<svg preserveAspectRatio="none" width="100%" height="100%" overflow="visible" style="display: block;" viewBox="0 0 16 16" fill="none" xmlns="http://www.w3.org/2000/svg">
<g id="nature-fx-sparkle-a-2-24-Solid 1">
<path id="Vector" d="M12.2325 1.24998C12.093 0.680684 11.2399 0.680757 11.1005 1.25008C11.0395 1.49928 10.9419 1.84366 10.8045 2.17874C10.6635 2.52266 10.4982 2.81267 10.3211 2.98961C10.1443 3.16623 9.85488 3.33112 9.51155 3.47178C9.17701 3.60882 8.83321 3.70628 8.58415 3.76723C8.01461 3.9066 8.01468 4.76015 8.58421 4.89942C8.83341 4.96036 9.17755 5.05784 9.51228 5.19496C9.85588 5.33571 10.1455 5.50072 10.3223 5.67751C10.4991 5.8543 10.6641 6.14396 10.8049 6.48754C10.942 6.82226 11.0395 7.1664 11.1004 7.4156C11.2397 7.98513 12.0932 7.9852 12.2326 7.41573C12.2935 7.1666 12.391 6.8228 12.5281 6.48828C12.6687 6.14496 12.8336 5.85546 13.0102 5.6787C13.1871 5.50162 13.4771 5.33632 13.8211 5.19533C14.1561 5.05797 14.5005 4.96032 14.7497 4.89932C15.3191 4.75994 15.3191 3.9068 14.7499 3.76733C14.5008 3.70631 14.1567 3.60869 13.8218 3.4714C13.4781 3.3305 13.1883 3.16533 13.0114 2.98842C12.8345 2.8115 12.6693 2.52166 12.5284 2.17799C12.3911 1.84316 12.2935 1.49903 12.2325 1.24998Z" fill="var(--fill-0, white)"/>
<path id="Vector_2" d="M6.23102 4.92468C6.0989 4.34589 5.2342 4.34596 5.10218 4.92477C5.02222 5.27532 4.87643 5.83548 4.65686 6.39952C4.43305 6.97452 4.15223 7.50118 3.82525 7.82792C3.49878 8.15412 2.97288 8.43432 2.39875 8.65765C1.83552 8.87672 1.27612 9.02225 0.925631 9.10212C0.346614 9.23412 0.346682 10.0993 0.925731 10.2312C1.27641 10.3111 1.83622 10.4566 2.39984 10.6758C2.97437 10.8993 3.50058 11.1796 3.82711 11.5061C4.15364 11.8327 4.43402 12.3589 4.65747 12.9334C4.87668 13.4971 5.02221 14.0569 5.10208 14.4075C5.23398 14.9866 6.09912 14.9867 6.23111 14.4076C6.311 14.0571 6.45653 13.4977 6.67564 12.9345C6.89898 12.3604 7.17911 11.8345 7.50531 11.508C7.83204 11.181 8.35878 10.9002 8.93371 10.6764C9.49778 10.4568 10.0579 10.3111 10.4084 10.2311C10.9873 10.0991 10.9874 9.23432 10.4086 9.10225C10.0582 9.02225 9.49844 8.87645 8.93478 8.65698C8.36024 8.43332 7.83384 8.15272 7.50718 7.82605C7.18051 7.49938 6.89991 6.97298 6.67624 6.39844C6.45678 5.83478 6.311 5.27504 6.23102 4.92468Z" fill="var(--fill-0, white)"/>
</g>
</svg>
