<svg width="246" height="246" viewBox="0 0 246 246" fill="none" xmlns="http://www.w3.org/2000/svg">
<path d="M85.1774 31.073C92.2367 29.0214 98.6488 29.5843 105.601 31.6808C106.443 31.9968 108.379 32.6155 109.029 32.9531C109.588 33.2314 110.264 33.5466 110.806 33.8386C113.028 34.9814 114.765 35.712 116.668 37.3895C119.991 39.8871 123.204 42.9523 125.49 46.4323C126.934 48.3808 127.792 49.757 128.767 52.0149C129.335 53.2716 130.032 54.7819 130.424 56.1215C132.798 64.2415 132.662 73.0411 129.884 81.0294C128.911 83.8245 126.478 88.4059 124.6 90.5575C124.639 90.5874 124.678 90.6172 124.717 90.6471C133.438 94.2589 142.464 99.2435 141.63 110.142C141.754 115.69 142.116 118.653 139.001 123.575C142.487 128.535 142.958 129.552 142.824 135.933C142.797 137.283 142.905 139.513 142.716 140.791L142.745 141.79C142.687 144.053 141.67 143.508 139.833 143.41C139.586 142.888 139.551 142.817 139.57 142.243L139.488 141.594L139.175 141.133L139.011 141.128C138.886 141.516 138.831 141.772 138.746 142.173L138.7 142.681L138.332 143.396C138.236 143.72 138.194 143.729 138.217 144.041C138.696 144.869 138.704 145.678 138.794 146.623C137.233 148.288 135.461 149.756 134.118 151.586C133.456 152.488 132.865 154.199 132.226 155.008L132.153 155.038C129.535 156.166 129.602 156.049 127.529 157.642C124.316 160.241 119.253 162.189 115.411 163.574C114.258 163.98 113.282 164.241 112.081 164.497C110.402 164.716 108.426 165.275 106.663 165.562C102.451 166.209 98.1899 166.468 93.9313 166.338C83.976 166.012 69.2636 163.267 62.2439 155.758C61.9043 155.488 61.5806 155.199 61.2746 154.891C60.4557 154.071 59.9523 153.298 59.327 152.352C56.8867 148.662 57.0449 145.616 57.0621 141.371C56.8171 141.063 56.3889 140.654 56.104 140.363C54.446 138.917 53.5319 137.322 52.2687 135.52L52.0719 135.087C51.1961 131.974 51.0211 130.542 51.0599 127.339C50.9336 124.172 51.0047 121.023 51.903 117.97C51.9374 117.89 51.9728 117.81 52.0094 117.731C54.0978 113.224 56.8981 110.753 61.1582 108.299C62.8261 107.339 63.7361 106.775 65.5973 106.091C66.0425 105.969 66.1537 104.373 66.2122 103.917C66.9467 101.536 69.1595 98.7563 70.9943 97.1359C70.052 96.5638 69.0823 95.4778 68.2938 94.669C66.6619 93.2786 65.1625 91.2736 63.7583 89.5993C63.4381 89.1545 63.0069 88.3544 62.7195 87.8579C62.0207 86.8342 61.2552 85.3585 60.6401 84.2484C60.2001 83.42 59.6757 81.9798 59.3195 81.0805C57.2205 75.781 56.4499 70.4602 56.9009 64.7767C56.9503 60.4831 58.8496 54.6337 60.7036 50.7577C61.3838 49.3356 62.8303 47.0185 63.6722 45.6265C63.8537 45.3702 63.897 45.2903 64.038 45.0083C65.0092 44.2112 65.4956 43.3987 66.2648 42.5577C67.356 41.3647 69.5547 38.8752 70.8723 38.1013L71.0204 37.9561C71.7012 37.51 72.5698 36.7364 73.3762 36.2118C77.5729 33.4816 80.3648 32.2486 85.1774 31.073Z" fill="#EDA31D"/>
<path d="M85.1771 31.073C92.2364 29.0214 98.6485 29.5843 105.601 31.6808C106.443 31.9968 108.378 32.6155 109.029 32.9531C109.588 33.2314 110.264 33.5466 110.805 33.8386C113.028 34.9814 114.764 35.712 116.667 37.3895C119.991 39.8871 123.204 42.9523 125.49 46.4323C126.934 48.3808 127.791 49.757 128.767 52.0149C129.335 53.2716 130.032 54.7819 130.423 56.1215C132.798 64.2415 132.662 73.0411 129.884 81.0294C128.911 83.8245 126.477 88.4059 124.6 90.5575C124.16 91.0785 120.417 95.3307 120.392 95.4453C119.673 95.8891 117.79 97.5251 116.938 98.1696C115.987 98.8516 115.102 99.562 114.03 100.019C115.017 101.643 115.12 101.862 115.118 103.769C114.309 105.136 113.44 106.207 111.965 106.95C111.156 106.665 108.555 108.191 107.627 108.627C107.521 108.741 107.329 108.93 107.274 109.084C106.14 109.478 103.97 110.227 102.966 110.807C102.243 112.057 101.334 114.2 101.232 115.649L101.041 115.805C101.199 116.011 101.097 115.926 101.411 115.989C100.589 116.109 99.6027 116.545 98.8091 116.857C97.9027 116.255 97.2759 115.695 96.4595 114.987C97.3452 114.449 98.0907 114.227 99.0689 113.916C98.6045 113.47 98.0629 113.004 97.5787 112.571C96.7294 113.056 95.7451 113.384 94.8225 113.726C93.9087 113.042 93.6509 112.539 92.5217 111.894L92.7153 111.654C93.598 111.296 94.2859 110.98 95.1419 110.559C95.1921 110.434 95.1711 110.395 95.17 110.246C94.797 109.751 94.2749 109.423 93.7698 109.05C92.7603 108.181 89.1441 104.839 88.0559 104.883C87.4453 104.626 86.2531 104.436 85.5552 104.3L85.0068 104.149C83.6397 103.78 82.2504 103.264 80.8771 102.852C80.2469 102.614 79.4104 102.214 78.7769 101.934L78.6776 101.945C78.2725 101.677 78.1302 101.549 77.6734 101.417C74.4962 99.7187 73.7816 99.1088 70.994 97.1359C70.0517 96.5638 69.082 95.4778 68.2935 94.669C66.6616 93.2786 65.1622 91.2736 63.758 89.5993C63.4378 89.1545 63.0066 88.3544 62.7191 87.8579C62.0204 86.8342 61.2549 85.3586 60.6398 84.2484C60.1998 83.42 59.6754 81.9798 59.3192 81.0805C57.2202 75.781 56.4496 70.4602 56.9005 64.7767C56.95 60.4831 58.8493 54.6337 60.7033 50.7577C61.3834 49.3356 62.83 47.0185 63.6719 45.6265C63.8534 45.3702 63.8967 45.2903 64.0377 45.0083C65.0089 44.2112 65.4953 43.3987 66.2645 42.5577C67.3557 41.3647 69.5544 38.8752 70.872 38.1013L71.0201 37.9561C71.7009 37.51 72.5695 36.7364 73.3759 36.2118C77.5726 33.4816 80.3645 32.2486 85.1771 31.073Z" fill="#875804"/>
<path d="M78.9058 45.4591L79.1424 45.4565L79.2778 45.3594C83.3453 42.4742 87.6055 41.1321 92.5213 40.6888C108.26 39.2692 122.34 52.4868 121.567 68.3707C121.501 69.7189 121.524 71.0999 121.251 72.4367C120.13 78.0061 116.899 84.4979 112.152 87.7631C106.367 91.7411 98.8465 93.4156 91.9694 92.0996C84.931 90.7936 78.7005 86.7428 74.6508 80.8399C70.5544 74.8614 69.025 67.4905 70.4045 60.3756C70.7153 58.7706 72.7108 52.8172 73.6339 51.7326C74.0665 50.9453 75.81 48.6261 76.4808 48.0462C76.9716 47.5863 78.4498 46.3012 78.5923 45.7189L78.9058 45.4591Z" fill="#AF7708"/>
<path d="M76.4807 48.0461C76.6544 48.419 76.7455 48.8205 76.909 49.1094C76.9589 49.8829 76.8839 50.7864 76.8415 51.5729C76.2158 51.6148 74.4126 51.7148 73.8651 51.8836L73.6338 51.7325C74.0665 50.9453 75.81 48.6261 76.4807 48.0461Z" fill="#D18E09"/>
<path d="M76.9091 49.1094L77.0343 48.5341L77.1671 48.467C77.357 48.9064 77.5228 50.8821 77.601 51.4936C78.9611 51.8013 80.179 51.6367 81.5466 51.8421C80.2035 52.0248 78.855 52.1573 77.5224 52.3415C77.4651 53.6446 77.4041 54.5939 77.0594 55.8586C76.9346 54.5504 76.893 53.6491 76.8736 52.3475C76.0436 52.3021 74.5599 52.2971 73.8652 51.8837C74.4127 51.7148 76.2159 51.6148 76.8416 51.5729C76.884 50.7864 76.959 49.8829 76.9091 49.1094Z" fill="#FCF8EF"/>
<path d="M90.8873 49.6233C94.5498 49.525 100.748 49.2271 104.018 50.5158C105.643 51.0201 107.098 51.8596 108.151 53.2355C109.213 54.4189 110.071 56.4363 110.306 57.9883C110.866 60.2093 110.43 63.0118 109.628 65.1225C110.312 67.3632 105.593 71.472 103.312 71.89C99.4736 72.5937 94.7616 72.7253 90.882 72.4883C90.9107 73.0258 90.9392 73.2881 90.8706 73.8149C90.8313 73.486 90.8428 73.0789 90.6789 72.8549C88.9901 74.0184 86.5582 77.3796 85.0102 78.4783C84.6731 78.4276 83.4635 78.4398 83.0593 78.4364L81.4467 78.4356L81.447 73.9814C82.5932 73.9722 83.757 73.9888 84.9047 73.9945C84.9112 73.2507 84.9262 72.5069 84.9496 71.7635L84.7995 72.3127C84.0771 72.8433 82.3493 72.6445 81.5717 72.2325C81.3936 71.881 81.4118 72.0608 81.5275 71.6742L81.8934 71.5166L81.6134 71.4547C81.2916 71.0612 81.4688 67.8093 81.481 67.0273L84.9182 67.0215L84.9308 63.6512C84.7884 59.7851 84.8483 56.7359 84.9488 52.8595C84.909 51.8065 84.9215 50.682 84.9146 49.6228C86.9054 49.5989 88.8964 49.599 90.8873 49.6233Z" fill="#AF7708"/>
<path d="M90.887 49.6233C94.5495 49.525 100.748 49.2271 104.018 50.5158C105.642 51.0201 107.098 51.8596 108.151 53.2355L107.94 53.4109C108.108 53.9915 108.686 54.5473 109.012 55.1576C108.289 55.8645 107.537 56.553 106.824 57.2613C106.052 58.0295 105.356 58.9702 104.55 59.7128C103.854 55.5701 101.539 54.588 97.7518 54.3691C95.4619 54.4034 93.1718 54.412 90.8816 54.3952C90.8864 56.4744 90.9512 58.7898 90.8988 60.8408C90.8179 59.8632 90.7993 59.0103 90.7838 58.0275C89.8707 58.8931 85.6561 63.3127 84.9305 63.6512C84.7882 59.7851 84.848 56.7359 84.9485 52.8595C84.9088 51.8065 84.9213 50.682 84.9143 49.6228C86.9051 49.5989 88.8962 49.599 90.887 49.6233Z" fill="#EDA31D"/>
<path d="M97.898 50.0025C99.9721 50.0417 101.396 50.3899 103.431 50.6815C103.663 50.7147 103.836 50.6538 104.018 50.5158C105.643 51.0201 107.098 51.8596 108.152 53.2355L107.94 53.4109C108.108 53.9915 108.687 54.5473 109.013 55.1576C108.289 55.8645 107.537 56.553 106.825 57.2613C106.052 58.0295 105.356 58.9702 104.551 59.7128C103.854 55.5701 101.539 54.588 97.7522 54.3691C97.2998 54.2096 94.6601 54.3182 94.0278 54.3351C95.3962 53.2801 96.8487 51.6086 97.9604 50.2475L97.898 50.0025Z" fill="#F3B850"/>
<path d="M90.8873 49.6233C94.5498 49.525 100.748 49.2271 104.018 50.5158C103.836 50.6538 103.663 50.7147 103.431 50.6815C101.396 50.3899 99.972 50.0417 97.8979 50.0025C93.9618 49.9387 89.4119 50.1164 85.5495 49.9119L85.2612 50.0489C85.1384 50.8203 85.2326 52.4102 85.0729 52.896L84.9488 52.8595C84.909 51.8065 84.9215 50.682 84.9146 49.6228C86.9054 49.5989 88.8964 49.599 90.8873 49.6233Z" fill="#E9B558"/>
<path d="M84.9146 49.6228C86.9054 49.5989 88.8964 49.599 90.8873 49.6233C89.6929 50.0442 86.4368 49.5142 85.5495 49.9119L85.2612 50.0489C85.1384 50.8203 85.2326 52.4102 85.0729 52.896L84.9488 52.8595C84.909 51.8065 84.9215 50.682 84.9146 49.6228Z" fill="#F3B850"/>
<path d="M109.012 55.1576C108.687 54.5473 108.108 53.9915 107.94 53.411L108.151 53.2355C109.213 54.4189 110.071 56.4364 110.306 57.9883C110.866 60.2094 110.43 63.0118 109.628 65.1225C110.312 67.3632 105.593 71.472 103.312 71.89C99.4735 72.5937 94.7615 72.7253 90.8818 72.4883C90.8701 72.0922 90.8429 72.0459 90.9814 71.667C91.4355 71.3974 91.4913 71.5003 92.1171 71.501C93.4115 69.8416 94.8929 68.5414 96.2337 67.0016C97.6964 66.9681 98.6259 66.9136 100.082 66.7144C100.207 66.64 100.535 66.3648 100.667 66.2599C103.936 65.3129 104.426 62.6197 104.55 59.7128C105.356 58.9702 106.052 58.0295 106.825 57.2613C107.537 56.553 108.289 55.8645 109.012 55.1576Z" fill="#EDA31D"/>
<path d="M109.628 65.1225C110.312 67.3632 105.593 71.472 103.312 71.89C99.4735 72.5937 94.7615 72.7253 90.8818 72.4883C90.8701 72.0922 90.8429 72.0459 90.9814 71.667C91.4355 71.3974 91.4913 71.5002 92.1171 71.501C92.8188 71.6039 93.9913 71.5514 94.7267 71.5551C100.689 71.5858 106.873 71.4165 109.628 65.1225Z" fill="#875804"/>
<path d="M96.2337 67.0016C97.6965 66.9681 98.626 66.9136 100.082 66.7144C99.5902 67.4519 96.6493 70.7671 95.9203 71.4562C94.8957 71.4595 93.079 71.4094 92.1172 71.501C93.4116 69.8415 94.893 68.5414 96.2337 67.0016Z" fill="#F3B850"/>
<path d="M109.012 55.1576C108.687 54.5473 108.108 53.9915 107.94 53.411L108.151 53.2355C109.213 54.4189 110.071 56.4364 110.306 57.9883L110.106 57.9005C109.689 57.1829 109.303 55.9705 109.012 55.1576Z" fill="#F8CE81"/>
<path d="M84.9308 63.6512C85.6564 63.3127 89.871 58.8931 90.7841 58.0275C90.7996 59.0103 90.8182 59.8632 90.899 60.8408C90.9007 61.8074 90.8336 65.6772 90.9649 66.4498C91.2039 66.637 91.0746 66.5691 91.3743 66.6142L91.0079 66.7609L91.084 66.925C91.8531 67.085 93.3534 67.0376 94.2161 67.0481L96.2338 67.0016C94.8931 68.5414 93.4116 69.8415 92.1173 71.501C91.4915 71.5002 91.4356 71.3974 90.9816 71.667C90.8431 72.0459 90.8702 72.0922 90.882 72.4883C90.9107 73.0258 90.9392 73.2881 90.8706 73.8149C90.8313 73.486 90.8428 73.0789 90.6789 72.8549C88.9901 74.0184 86.5582 77.3796 85.0102 78.4783C84.6731 78.4276 83.4635 78.4398 83.0593 78.4364L81.4467 78.4356L81.447 73.9814C82.5932 73.9722 83.757 73.9888 84.9047 73.9945C84.9112 73.2507 84.9262 72.5069 84.9496 71.7635L84.7995 72.3127C84.0771 72.8433 82.3493 72.6445 81.5717 72.2325C81.3936 71.881 81.4118 72.0608 81.5275 71.6742L81.8934 71.5166L81.6134 71.4547C81.2916 71.0612 81.4688 67.8093 81.481 67.0273L84.9182 67.0215L84.9308 63.6512Z" fill="#F3B850"/>
<path d="M94.2158 67.0481L96.2335 67.0016C94.8928 68.5414 93.4114 69.8415 92.117 71.5009C91.4912 71.5002 91.4353 71.3974 90.9813 71.6669C90.8428 72.0459 90.8699 72.0922 90.8817 72.4883C90.9104 73.0258 90.9389 73.288 90.8703 73.8149C90.831 73.486 90.8426 73.0789 90.6786 72.8549C88.9899 74.0183 86.558 77.3796 85.0099 78.4783C84.6729 78.4276 83.4633 78.4397 83.0591 78.4364C83.8941 77.6463 84.702 76.5693 85.5614 75.7005L94.2158 67.0481Z" fill="#EDA31D"/>
<path d="M81.8931 71.5166C82.7893 71.4532 84.1766 71.2845 84.9494 71.7635L84.7992 72.3127C84.0769 72.8433 82.3491 72.6445 81.5715 72.2325C81.3933 71.881 81.4116 72.0608 81.5273 71.6742L81.8931 71.5166Z" fill="#875804"/>
<path d="M100.667 66.2599C100.535 66.3648 100.207 66.6399 100.082 66.7144C98.626 66.9136 97.6965 66.9681 96.2337 67.0016L94.216 67.0481C93.3533 67.0376 91.8531 67.085 91.084 66.925L91.0078 66.7609L91.3743 66.6142C94.48 66.6829 97.5979 66.7581 100.667 66.2599Z" fill="#F8CE81"/>
<path d="M85.0101 78.4783C86.5582 77.3796 88.9901 74.0184 90.6788 72.8549C90.8428 73.0789 90.8313 73.486 90.8705 73.8149L91.0335 73.9954C92.8084 73.9834 102.651 73.7875 103.647 74.1413C103.625 75.4889 103.661 77.1325 103.589 78.4463C103.561 78.9113 103.614 79.1252 103.4 79.496C102.145 79.7716 91.7568 79.7761 90.7654 79.1665C91.0841 79.9412 90.8963 84.6916 90.8715 85.8729C90.838 86.2744 90.8621 86.5751 90.6346 86.8966C89.8139 87.0225 85.9967 86.958 85.0933 86.9079C84.8578 86.5235 84.9444 86.4088 84.9323 85.8766L84.9432 84.4874C84.8656 82.9752 84.9225 81.1431 84.9372 79.6023C84.9309 79.2339 84.9774 78.8472 85.0101 78.4783Z" fill="#EDA31D"/>
<path d="M85.0101 78.4783C86.5582 77.3796 88.9901 74.0184 90.6788 72.8549C90.8428 73.0789 90.8313 73.486 90.8705 73.8149L91.0335 73.9954C92.8084 73.9834 102.651 73.7875 103.647 74.1413C103.16 74.41 102.763 74.3617 102.192 74.3933C101.467 74.6749 93.884 74.4468 92.4291 74.4928C91.1324 76.1118 89.2012 77.899 87.7128 79.3696C86.9503 80.1229 86.0944 81.1639 85.3441 81.8567C85.3071 81.5743 85.2885 80.9965 85.1282 80.8449C84.9142 81.9597 85.0998 83.4061 84.9432 84.4874C84.8656 82.9752 84.9225 81.1431 84.9372 79.6023C84.9309 79.2339 84.9774 78.8472 85.0101 78.4783Z" fill="#F3B850"/>
<path d="M91.0333 73.9954C92.8082 73.9834 102.65 73.7875 103.647 74.1412C103.16 74.4099 102.763 74.3616 102.192 74.3932C100.468 74.1572 91.6596 74.6308 91.0044 74.223L91.0333 73.9954Z" fill="#FBF2BE"/>
<path d="M90.7651 79.1665C90.7841 78.858 90.7771 78.8708 90.8938 78.5863C91.6266 78.2659 102.012 78.4403 103.588 78.4463C103.56 78.9114 103.613 79.1252 103.4 79.496C102.144 79.7717 91.7565 79.7761 90.7651 79.1665Z" fill="#875804"/>
<path d="M84.9322 85.8766C86.2227 85.8531 87.5135 85.8464 88.8043 85.8568C89.487 85.8624 90.1908 85.8778 90.8714 85.8729C90.8379 86.2744 90.862 86.5751 90.6345 86.8966C89.8137 87.0225 85.9965 86.958 85.0931 86.9079C84.8577 86.5235 84.9443 86.4088 84.9322 85.8766Z" fill="#875804"/>
<path d="M84.9431 84.4874C85.0996 83.4061 84.914 81.9597 85.128 80.8448C85.2883 80.9964 85.3069 81.5743 85.3439 81.8567C85.4348 82.8906 85.4059 84.1774 85.41 85.2331C86.4157 85.4271 88.4414 85.3126 88.8672 85.7311L88.8042 85.8567C87.5134 85.8464 86.2227 85.853 84.9321 85.8766L84.9431 84.4874Z" fill="#FBF2BE"/>
<path d="M83.0595 78.4364C83.4637 78.4398 84.6732 78.4276 85.0103 78.4783C84.9775 78.8472 84.931 79.2338 84.9374 79.6022C83.8347 79.5206 82.4595 79.8461 81.6537 79.3154C81.4356 78.9764 81.4642 78.836 81.4468 78.4355L83.0595 78.4364Z" fill="#875804"/>
<path d="M125.49 46.4323C126.934 48.3808 127.791 49.757 128.767 52.0148C129.335 53.2716 130.032 54.7818 130.423 56.1215C132.798 64.2414 132.662 73.0411 129.884 81.0294C128.911 83.8245 126.477 88.4059 124.6 90.5574C124.16 91.0785 120.417 95.3306 120.392 95.4452C119.673 95.8891 117.79 97.5251 116.938 98.1696C115.987 98.8515 115.102 99.562 114.03 100.019C115.017 101.643 115.12 101.862 115.118 103.769C114.309 105.136 113.44 106.207 111.965 106.95C111.156 106.665 108.555 108.191 107.627 108.627C107.521 108.741 107.329 108.93 107.274 109.084C106.14 109.478 103.97 110.227 102.966 110.807C102.243 112.057 101.334 114.199 101.232 115.649L101.041 115.805C101.199 116.011 101.097 115.926 101.411 115.989C100.589 116.109 99.6027 116.545 98.809 116.857C97.9026 116.255 97.2759 115.695 96.4594 114.987C97.3452 114.449 98.0906 114.227 99.0689 113.916C98.6045 113.47 98.0629 113.004 97.5787 112.571C96.7293 113.056 95.7451 113.384 94.8225 113.726C93.9086 113.042 93.6509 112.539 92.5216 111.894L92.7153 111.654C93.598 111.296 94.2859 110.98 95.1419 110.558C95.1921 110.434 95.1711 110.395 95.17 110.246C94.797 109.751 94.2749 109.423 93.7698 109.05C92.7603 108.181 89.144 104.839 88.0559 104.883C87.4452 104.626 86.2531 104.436 85.5552 104.3L85.0067 104.149C83.6397 103.78 82.2504 103.264 80.8771 102.852C80.2468 102.614 79.4104 102.214 78.7769 101.934C78.8932 101.513 84.3874 95.2422 85.1481 94.0603C87.8333 94.9708 89.0266 95.2554 91.8947 95.6087C94.398 95.7598 96.3942 95.8246 98.9155 95.3784C106.513 94.0941 113.265 89.7824 117.625 83.4295C121.078 78.3891 122.656 72.2576 122.416 66.142C122.345 64.3476 121.87 62.1073 121.522 60.3167C120.975 57.8242 120.224 56.4282 119.092 54.1685C121.163 51.8139 123.638 48.9146 125.49 46.4323Z" fill="#EDA31D"/>
<path d="M94.6161 105.365C95.3016 105.344 96.01 105.3 96.6875 105.39C97.7991 106.535 99.1367 107.475 100.22 108.573C102.743 107.574 105.076 106.571 107.633 105.623C107.522 106.609 106.403 107.908 106.907 108.638C107.272 108.693 107.259 108.687 107.627 108.627C107.521 108.741 107.329 108.93 107.274 109.084C106.14 109.478 103.97 110.227 102.966 110.807C102.243 112.057 101.333 114.199 101.232 115.649L101.04 115.805C101.199 116.011 101.097 115.926 101.411 115.989C100.588 116.108 99.6025 116.545 98.8089 116.857C97.9025 116.255 97.2757 115.695 96.4593 114.987C97.345 114.449 98.0905 114.227 99.0687 113.916C98.6043 113.47 98.0627 113.004 97.5785 112.571C96.7292 113.056 95.7449 113.384 94.8223 113.725C93.9085 113.042 93.6507 112.539 92.5215 111.894L92.7151 111.654C93.5979 111.296 94.2858 110.98 95.1417 110.558C95.1919 110.434 95.1709 110.395 95.1698 110.246C94.7969 109.751 94.2747 109.423 93.7696 109.05C93.9885 107.909 94.3704 106.599 94.6161 105.365Z" fill="#F3B850"/>
<path d="M85.1481 94.0603C87.8333 94.9708 89.0266 95.2555 91.8947 95.6087C90.3378 97.8156 88.2009 99.8796 86.5536 102.049C86.0509 102.711 85.3676 103.42 85.0067 104.149C83.6397 103.78 82.2504 103.264 80.8771 102.852C80.2468 102.614 79.4104 102.214 78.7769 101.934C78.8932 101.513 84.3874 95.2423 85.1481 94.0603Z" fill="#F3B850"/>
<path d="M125.49 46.4323C126.934 48.3808 127.791 49.757 128.767 52.0148C127.597 53.3857 122.6 59.6408 121.522 60.3167C120.975 57.8242 120.224 56.4282 119.092 54.1685C121.163 51.8139 123.638 48.9146 125.49 46.4323Z" fill="#F3B850"/>
<path d="M96.6875 105.39C100.247 105.122 103.758 104.408 107.139 103.263C107.593 103.832 108.381 104.208 109.036 104.527C108.566 104.908 108.128 105.271 107.633 105.623C105.076 106.571 102.743 107.574 100.22 108.573C99.1367 107.475 97.7991 106.535 96.6875 105.39Z" fill="#AF7708"/>
<path d="M107.139 103.263C107.847 103.024 109.035 102.394 109.392 103.278C109.34 103.662 109.218 104.187 109.036 104.527C108.381 104.208 107.593 103.832 107.139 103.263Z" fill="#875804"/>
<path d="M63.6719 45.6265C65.9571 45.7338 68.113 46.158 70.4124 46.1335L70.6167 49.3802C70.6815 50.2629 70.732 51.1465 70.7682 52.0308L70.7885 52.2152C66.7324 60.5548 64.7658 67.0474 67.899 76.3909C68.3851 77.7949 68.8976 78.7821 69.3944 80.0758C69.7255 80.795 69.9513 81.2654 70.3519 81.9471C71.6211 83.7747 72.9175 85.7397 74.4988 87.3054C73.5439 88.4338 72.5139 89.6972 71.5665 90.8267C70.9819 91.5238 68.6485 93.9922 68.2935 94.6689C66.6616 93.2786 65.1622 91.2736 63.758 89.5993C63.4378 89.1545 63.0066 88.3544 62.7191 87.8579C62.0204 86.8342 61.2549 85.3585 60.6398 84.2484C60.1998 83.42 59.6754 81.9798 59.3192 81.0804C57.2202 75.781 56.4496 70.4602 56.9005 64.7767C56.95 60.4831 58.8493 54.6336 60.7033 50.7577C61.3834 49.3356 62.83 47.0184 63.6719 45.6265Z" fill="#EDA31D"/>
<path d="M63.6718 45.6265C65.957 45.7338 68.1128 46.158 70.4123 46.1335L70.6166 49.3802C69.3223 49.6724 66.8828 53.0223 65.9344 54.1655L60.2834 60.849C59.3033 62.0056 57.9401 63.7171 56.9004 64.7767C56.9499 60.4831 58.8492 54.6336 60.7032 50.7577C61.3833 49.3356 62.8299 47.0184 63.6718 45.6265Z" fill="#F3B850"/>
<path d="M70.3516 81.9471C71.6209 83.7747 72.9172 85.7397 74.4986 87.3054C73.5436 88.4338 72.5136 89.6972 71.5663 90.8267C70.9817 91.5238 68.6483 93.9922 68.2933 94.6689C66.6614 93.2786 65.162 91.2736 63.7578 89.5993C65.3365 88.6961 68.9606 83.5685 70.3516 81.9471Z" fill="#F3B850"/>
<path d="M60.6396 84.2484C62.5556 83.5669 66.0855 77.7104 67.8988 76.3909C68.3849 77.7949 68.8975 78.7821 69.3943 80.0758C69.7253 80.795 69.9511 81.2654 70.3517 81.9471C68.9606 83.5685 65.3366 88.6961 63.7579 89.5993C63.4377 89.1545 63.0064 88.3544 62.719 87.8579C62.0203 86.8342 61.2548 85.3585 60.6396 84.2484Z" fill="#F3B850"/>
<path d="M69.3945 80.0757C69.7256 80.795 69.9514 81.2654 70.352 81.9471C68.9609 83.5685 65.3368 88.6961 63.7581 89.5992C63.4379 89.1544 63.0067 88.3543 62.7192 87.8579C63.1754 86.928 68.3975 81.0797 69.3945 80.0757Z" fill="#EDA31D"/>
<path d="M85.177 31.073C92.2363 29.0214 98.6484 29.5843 105.601 31.6808C106.442 31.9968 108.378 32.6155 109.029 32.9531C109.588 33.2314 110.264 33.5466 110.805 33.8386C113.028 34.9814 114.764 35.712 116.667 37.3895C115.47 38.9728 112.081 43.1882 110.592 44.5152C108.688 43.5737 107.353 42.2611 104.918 41.4278C104.236 41.3017 103.255 40.9056 102.618 40.6435C101.445 40.2218 100.019 39.9342 98.7893 39.6498C90.8945 38.8664 83.7647 40.336 77.3229 45.1592C76.6928 45.2053 74.9952 45.0894 74.3009 45.0567C73.2697 45.0409 72.7777 44.9881 71.7533 44.8294C71.5347 42.4264 71.5123 40.3385 71.02 37.9561C71.7008 37.51 72.5694 36.7364 73.3759 36.2118C77.5725 33.4816 80.3644 32.2486 85.177 31.073Z" fill="#EDA31D"/>
<path d="M71.02 37.9561C71.7008 37.51 72.5694 36.7364 73.3759 36.2117C77.5725 33.4816 80.3644 32.2486 85.177 31.073C84.5904 32.188 82.7849 34.2371 81.9197 35.2882C80.3444 37.2016 78.6614 39.0857 77.0724 41.0045C76.1759 42.0871 74.6168 43.6261 73.8859 44.8032C74.0986 44.9946 74.018 44.9405 74.3009 45.0567C73.2697 45.0408 72.7777 44.9881 71.7533 44.8294C71.5347 42.4264 71.5123 40.3385 71.02 37.9561Z" fill="#F3B850"/>
<path d="M110.806 33.8386C113.028 34.9814 114.764 35.7119 116.668 37.3895C115.471 38.9727 112.081 43.1881 110.592 44.5152C108.689 43.5737 107.353 42.2611 104.918 41.4278C106.06 39.8927 110.355 35.0264 110.806 33.8386Z" fill="#F3B850"/>
<path d="M105.601 31.6808C106.443 31.9968 108.379 32.6154 109.029 32.9531C109.588 33.2314 110.264 33.5466 110.805 33.8386C110.355 35.0264 106.06 39.8927 104.918 41.4278C104.236 41.3017 103.255 40.9055 102.618 40.6434C101.446 40.2217 100.019 39.9342 98.7896 39.6497C100.393 37.2637 103.769 34.0957 105.601 31.6808Z" fill="#F3B850"/>
<path d="M109.029 32.9531C109.588 33.2314 110.264 33.5466 110.805 33.8386C110.355 35.0264 106.06 39.8927 104.918 41.4278C104.236 41.3017 103.255 40.9055 102.618 40.6434C103.32 39.5422 103.908 38.984 104.736 38.0058C106.168 36.3136 107.616 34.6637 109.029 32.9531Z" fill="#EDA31D"/>
<path d="M74.4987 87.3054C77.495 90.0383 81.1862 92.9188 85.1481 94.0603C84.3874 95.2422 78.8932 101.513 78.7768 101.934L78.6775 101.945C78.2724 101.677 78.1301 101.549 77.6733 101.417C74.4961 99.7186 73.7815 99.1088 70.9939 97.1359C70.0516 96.5638 69.0819 95.4778 68.2935 94.6689C68.6484 93.9922 70.9818 91.5238 71.5664 90.8267C72.5138 89.6971 73.5438 88.4337 74.4987 87.3054Z" fill="#EDA31D"/>
<path d="M116.667 37.3895C119.991 39.8871 123.204 42.9522 125.49 46.4323C123.638 48.9146 121.163 51.8139 119.092 54.1685C118.531 53.459 118.066 52.3049 117.562 51.5898C115.96 49.3163 112.943 46.0368 110.592 44.5152C112.081 43.1881 115.47 38.9727 116.667 37.3895Z" fill="#EDA31D"/>
<path d="M70.8719 38.1013L71.0201 37.9561C71.5123 40.3385 71.5347 42.4263 71.7534 44.8294C72.7777 44.9881 73.2697 45.0408 74.3009 45.0567C74.9952 45.0893 76.6928 45.2052 77.323 45.1591C77.8037 45.2397 78.4511 45.3276 78.9059 45.4591L78.5924 45.7189L76.8084 45.7754C75.0899 46.4894 72.7566 50.1834 71.3669 51.4288L71.2426 51.7209L70.7682 52.0308C70.732 51.1465 70.6814 50.2629 70.6167 49.3802L70.4124 46.1335C68.113 46.158 65.9571 45.7338 63.6719 45.6265C63.8534 45.3702 63.8966 45.2903 64.0376 45.0083C65.0089 44.2112 65.4953 43.3987 66.2645 42.5576C67.3556 41.3646 69.5544 38.8752 70.8719 38.1013Z" fill="white"/>
<path d="M70.8719 38.1013C70.8228 40.3265 70.5645 42.581 70.4899 44.8404C69.3274 44.9148 64.7257 45.4374 64.0376 45.0083C65.0089 44.2112 65.4952 43.3987 66.2645 42.5577C67.3556 41.3647 69.5543 38.8752 70.8719 38.1013Z" fill="#F3B850"/>
<path d="M71.7713 46.3049C73.1005 46.0302 75.4094 45.8592 76.8086 45.7755C75.0901 46.4894 72.7568 50.1834 71.3672 51.4288C71.4962 49.7153 71.6523 48.0333 71.7713 46.3049Z" fill="#EDA31D"/>
<path d="M70.7681 52.0308L71.2425 51.7209C71.2777 52.3527 71.3645 52.9117 71.1751 53.5052L71.0535 53.4766C70.8332 52.935 70.8449 52.8124 70.7884 52.2152L70.7681 52.0308Z" fill="#E9B558"/>
<path d="M120.392 95.4452C120.417 95.3307 124.16 91.0785 124.6 90.5574C124.638 90.5873 124.678 90.6171 124.716 90.647C133.438 94.2588 142.463 99.2435 141.63 110.142C141.754 115.69 142.115 118.653 139 123.575C138.531 124.094 137.945 124.775 137.446 125.244C135.684 127.138 134.681 127.755 132.509 129.242L131.516 129.866L130.22 130.601C129.105 131.085 127.994 131.576 126.885 132.074C125.681 132.535 125.051 132.829 123.92 133.352C123.466 130.187 123.904 127.725 123.629 125.148C122.501 125.56 121.71 125.752 120.55 126.035C119.133 126.531 114.825 127.349 113.299 127.507C108.318 128.019 103.24 128.461 98.2529 127.868C96.8075 127.697 95.2881 127.718 93.7536 127.522C85.5283 126.557 77.7179 123.382 71.1507 118.336C70.4328 117.8 69.9263 117.217 69.3485 116.543C69.9365 116.585 69.8128 116.612 70.3619 117.032C70.4439 116.106 69.4375 114.908 69.4217 112.929L69.234 113.115C68.5619 112.418 68.8531 109.971 68.4059 109.521C67.4131 109.336 66.3897 109.543 65.3803 109.325L65.3251 109.117L65.1816 109.014L65.5675 108.909C65.8987 108.5 65.9431 106.512 65.5968 106.091C66.0419 105.969 66.1531 104.373 66.2116 103.917C66.9462 101.536 69.159 98.7563 70.9937 97.1359C73.7813 99.1088 74.4959 99.7186 77.6731 101.417C78.1299 101.549 78.2723 101.677 78.6773 101.945L78.7766 101.934C79.4101 102.214 80.2466 102.614 80.8769 102.852C82.2502 103.264 83.6394 103.78 85.0065 104.149L85.555 104.3C86.2528 104.436 87.445 104.626 88.0557 104.883C89.1438 104.839 92.7601 108.181 93.7695 109.05C94.2746 109.423 94.7968 109.751 95.1697 110.246C95.1708 110.395 95.1918 110.434 95.1416 110.559C94.2857 110.98 93.5978 111.296 92.715 111.654L92.5214 111.894C93.6506 112.539 93.9084 113.042 94.8222 113.726C95.7449 113.384 96.7291 113.056 97.5784 112.571C98.0626 113.004 98.6042 113.47 99.0686 113.916C98.0904 114.227 97.3449 114.449 96.4592 114.987C97.2756 115.695 97.9024 116.255 98.8088 116.857C99.6024 116.545 100.588 116.109 101.411 115.989C101.097 115.926 101.199 116.011 101.04 115.805L101.232 115.649C101.333 114.199 102.243 112.057 102.966 110.807C103.97 110.227 106.139 109.478 107.274 109.084C107.329 108.93 107.521 108.741 107.627 108.627C108.555 108.191 111.156 106.665 111.965 106.95C113.439 106.207 114.309 105.136 115.118 103.769C115.12 101.862 115.017 101.643 114.03 100.019C115.102 99.562 115.986 98.8515 116.938 98.1696C117.79 97.5251 119.673 95.8891 120.392 95.4452Z" fill="#F3B850"/>
<path d="M116.938 98.1696C118.976 99.0705 121.125 99.6766 123.086 100.765C126.576 102.703 129.015 105.043 130.463 108.8C130.501 108.901 130.54 109.002 130.577 109.103C128.549 117.345 117.034 121.005 109.582 121.639C108.609 121.722 107.489 121.995 106.535 121.905L106.372 121.762C106.705 121.428 109.573 120.42 110.367 120.05C110.35 119.355 110.424 117.886 110.135 117.387C108.416 118.294 107.13 118.323 105.642 119.179C105.14 118.716 104.953 118.526 104.348 118.171C103.31 117.366 102.566 116.631 101.411 115.989C101.097 115.926 101.199 116.011 101.041 115.805L101.232 115.649C101.333 114.199 102.243 112.057 102.966 110.807C103.97 110.227 106.14 109.478 107.274 109.084C107.329 108.93 107.521 108.741 107.627 108.627C108.555 108.191 111.156 106.665 111.965 106.95C113.44 106.207 114.309 105.136 115.118 103.769C115.12 101.862 115.017 101.643 114.03 100.019C115.102 99.562 115.987 98.8515 116.938 98.1696Z" fill="#AF7708"/>
<path d="M115.118 103.769C115.411 104.894 115.349 107.15 114.589 108.102C115.099 108.919 115.876 109.286 116.229 109.912L116.171 110.091C116.67 110.561 116.517 112.107 116.494 112.825C114.439 113.828 111.098 115.183 108.9 115.732C109.285 116.129 110.026 116.737 110.305 117.072L110.135 117.387C108.416 118.294 107.13 118.323 105.642 119.179C105.14 118.716 104.953 118.526 104.348 118.171C103.31 117.366 102.566 116.631 101.411 115.989C101.097 115.926 101.199 116.011 101.041 115.805L101.232 115.649C101.333 114.199 102.243 112.057 102.966 110.807C103.97 110.227 106.14 109.478 107.274 109.084C107.329 108.93 107.521 108.741 107.627 108.627C108.555 108.191 111.156 106.665 111.965 106.95C113.44 106.207 114.309 105.136 115.118 103.769Z" fill="#EDA31D"/>
<path d="M116.171 110.091C116.67 110.561 116.517 112.107 116.494 112.825C114.439 113.828 111.098 115.183 108.9 115.732C108.129 115.204 107.194 114.426 106.444 113.837C109.588 112.453 112.952 111.514 116.171 110.091Z" fill="#875804"/>
<path d="M115.119 103.769C115.411 104.894 115.349 107.15 114.589 108.102C112.801 108.22 106.178 111.115 104.245 111.894C103.803 111.496 103.442 111.17 102.966 110.807C103.97 110.227 106.14 109.478 107.275 109.084C107.329 108.93 107.521 108.741 107.627 108.627C108.555 108.191 111.156 106.665 111.965 106.95C113.44 106.207 114.309 105.136 115.119 103.769Z" fill="#875804"/>
<path d="M107.627 108.627C108.555 108.191 111.156 106.665 111.965 106.95C111.003 107.559 108.322 108.889 107.274 109.084C107.329 108.93 107.521 108.741 107.627 108.627Z" fill="#E9B558"/>
<path d="M101.232 115.649C102.831 116.009 103.967 117.79 105.651 118.562C106.829 118.213 109.367 117.205 110.305 117.072L110.135 117.387C108.416 118.294 107.13 118.323 105.642 119.179C105.14 118.716 104.953 118.526 104.348 118.171C103.31 117.366 102.566 116.631 101.411 115.989C101.097 115.926 101.199 116.011 101.041 115.805L101.232 115.649Z" fill="#FBF2BE"/>
<path d="M77.6734 101.417C78.1302 101.549 78.2725 101.677 78.6776 101.945L78.7769 101.934C79.4104 102.214 80.2469 102.614 80.8771 102.852C82.2504 103.264 83.6397 103.78 85.0068 104.149L85.5552 104.3C86.2531 104.436 87.4453 104.626 88.056 104.883C89.1441 104.839 92.7603 108.181 93.7698 109.05C94.2749 109.423 94.7971 109.751 95.17 110.246C95.1711 110.395 95.1921 110.434 95.1419 110.559C94.2859 110.98 93.598 111.296 92.7153 111.654L92.5217 111.894C92.3349 112.824 92.3576 113.809 92.3576 114.761C92.932 115.35 94.0043 116.285 94.6952 116.72C95.243 116.535 95.8434 116.316 96.3966 116.166L96.3207 117.824C97.0632 118.506 97.8244 119.27 98.5589 119.927C99.5536 119.541 100.654 118.934 101.507 118.63L102.222 119.212C103.245 120.183 104.398 121.055 105.509 121.932C103.382 122.027 101.316 121.869 99.1999 121.733C91.669 121.252 83.1275 118.672 78.1218 112.713C78.1218 112.713 77.6378 112.62 77.5921 112.611C77.9399 112.566 78.174 112.604 78.3847 112.414L78.1343 112.301C76.9036 111.41 77.4024 109.993 76.5559 109.22C76.7676 109.121 76.6489 109.167 76.9168 109.084C76.3842 109.113 76.26 109.11 75.7324 109.013L75.6081 108.99L75.4364 108.927C75.1804 108.553 75.3138 107.837 75.2999 107.381C75.227 104.992 76.444 103.334 77.6734 101.417Z" fill="#AF7708"/>
<path d="M85.5552 104.3C86.2531 104.436 87.4453 104.626 88.056 104.883C89.1441 104.839 92.7603 108.181 93.7698 109.05C94.2749 109.423 94.7971 109.751 95.17 110.246C95.1711 110.395 95.1921 110.434 95.1419 110.559C94.286 110.98 93.598 111.296 92.7153 111.654C90.8982 109.796 87.7316 107.865 85.8618 105.795C85.4366 105.324 85.5333 104.937 85.5552 104.3Z" fill="#875804"/>
<path d="M88.0562 104.883C89.1443 104.839 92.7605 108.181 93.77 109.05C94.2751 109.423 94.7973 109.751 95.1702 110.246C95.1713 110.395 95.1923 110.434 95.1421 110.559C94.6636 110.258 93.4333 109.232 92.9638 108.836C91.303 107.435 89.8149 106.161 88.0562 104.883Z" fill="#FBF2BE"/>
<path d="M77.6734 101.417C78.1302 101.549 78.2725 101.677 78.6776 101.945L78.7769 101.934C79.4104 102.214 80.2469 102.614 80.8771 102.852C78.8705 104.612 77.6633 106.109 76.8751 108.713C76.6031 108.964 76.7615 108.891 76.3749 108.917L75.6081 108.99L75.4364 108.927C75.1804 108.553 75.3138 107.837 75.2999 107.381C75.227 104.992 76.444 103.334 77.6734 101.417Z" fill="#875804"/>
<path d="M78.6775 101.945L78.7769 101.934C79.4104 102.214 80.2469 102.614 80.8771 102.852C78.8704 104.612 77.6633 106.109 76.8751 108.713C76.6031 108.964 76.7614 108.891 76.3749 108.917L76.3569 108.828C76.8866 108.22 77.2417 107.361 77.4706 106.58L77.3376 106.338C76.6143 106.106 76.453 107.417 76.3081 107.976C76.4646 106.472 77.8278 103.21 78.6775 101.945Z" fill="#754C02"/>
<path d="M120.392 95.4453C124.919 97.5283 129.376 99.673 131.317 104.674C134.346 112.483 125.091 118.427 118.848 120.401C107.949 123.844 94.6903 123.673 84.3276 118.599C81.3651 117.149 78.8674 115.45 77.019 112.675L77.592 112.611C77.6378 112.62 78.1217 112.713 78.1217 112.713C83.1275 118.672 91.6689 121.252 99.1999 121.733C101.316 121.869 103.382 122.027 105.508 121.932C104.398 121.055 103.245 120.183 102.222 119.212L101.507 118.63C100.654 118.934 99.5535 119.541 98.5588 119.927C97.8243 119.27 97.0631 118.506 96.3207 117.824L96.3966 116.166C95.8433 116.316 95.243 116.535 94.6951 116.72C94.0042 116.285 92.9319 115.35 92.3575 114.761C92.3575 113.809 92.3348 112.824 92.5216 111.894C93.6508 112.539 93.9086 113.042 94.8225 113.726C95.7451 113.384 96.7293 113.056 97.5787 112.571C98.0628 113.004 98.6045 113.47 99.0688 113.916C98.0906 114.227 97.3451 114.449 96.4594 114.987C97.2758 115.695 97.9026 116.255 98.809 116.857C99.6026 116.545 100.589 116.109 101.411 115.989C102.566 116.631 103.31 117.366 104.348 118.171C104.953 118.526 105.14 118.716 105.642 119.179C107.13 118.323 108.416 118.294 110.135 117.387C110.424 117.886 110.35 119.355 110.367 120.05C109.573 120.42 106.705 121.428 106.372 121.762L106.535 121.905C107.489 121.995 108.609 121.722 109.582 121.639C117.034 121.005 128.549 117.345 130.577 109.103C130.54 109.002 130.501 108.901 130.463 108.8C129.015 105.043 126.576 102.703 123.086 100.765C121.125 99.6766 118.976 99.0705 116.938 98.1696C117.79 97.5251 119.673 95.8891 120.392 95.4453Z" fill="#875804"/>
<path d="M137.377 117.076C137.426 118.405 137.222 124.624 137.446 125.244C135.684 127.138 134.681 127.755 132.51 129.242L131.516 129.866L130.22 130.601C129.106 131.085 127.994 131.576 126.886 132.074C125.681 132.535 125.052 132.829 123.92 133.352C123.466 130.187 123.904 127.725 123.629 125.148C127.715 123.933 132.575 121.629 135.687 118.687C136.317 118.236 136.84 117.638 137.377 117.076Z" fill="#EDA31D"/>
<path d="M141.63 110.142C141.754 115.69 142.116 118.653 139.001 123.575C138.531 124.094 137.945 124.775 137.447 125.244C137.222 124.624 137.426 118.405 137.377 117.076C138.248 116.115 139.072 115.266 139.666 114.1C140.251 112.952 140.859 111.144 141.63 110.142Z" fill="#D18E09"/>
<path d="M69.3486 116.543C69.9366 116.585 69.8129 116.612 70.3621 117.032C70.843 117.653 72.0596 118.604 72.719 119.094C78.6159 123.473 87.3212 126.17 94.557 127.077C104.943 128.38 116.286 127.453 126.11 123.751C128.753 122.755 131.557 121.462 133.806 119.733C134.326 119.333 134.867 118.868 135.469 118.623L135.687 118.687C132.574 121.629 127.714 123.933 123.629 125.148C122.501 125.56 121.71 125.752 120.551 126.035C119.133 126.531 114.825 127.349 113.299 127.507C108.318 128.018 103.24 128.461 98.253 127.868C96.8077 127.697 95.2882 127.718 93.7537 127.522C85.5284 126.557 77.718 123.382 71.1509 118.336C70.4329 117.8 69.9264 117.217 69.3486 116.543Z" fill="#FBF2BE"/>
<path d="M68.571 108.194C68.7252 106.992 68.8873 105.506 69.2035 104.356C69.3202 105.403 69.5194 107.975 69.9278 108.823L70.1228 108.96L69.9784 109.213C70.1908 109.347 70.091 109.303 70.2683 109.364C69.9919 109.361 70.0261 109.385 69.7731 109.484C69.5807 110.637 69.3693 111.755 69.4218 112.929L69.2342 113.115C68.562 112.418 68.8533 109.971 68.4061 109.521C67.4132 109.336 66.3898 109.543 65.3805 109.325L65.3252 109.117C66.1616 108.941 68.073 109.019 68.5493 108.64L68.571 108.194Z" fill="#FDFDF8"/>
<path d="M65.5968 106.091C66.0419 105.969 66.1531 104.373 66.2116 103.917C67.1411 104.926 67.7967 107.926 68.5709 108.194L68.5491 108.64C68.0729 109.019 66.1614 108.941 65.3251 109.117L65.1816 109.014L65.5675 108.909C65.8987 108.5 65.9431 106.512 65.5968 106.091Z" fill="#F8CE81"/>
<path d="M75.6515 110.139C75.5401 109.796 75.5358 109.793 75.5146 109.435C75.7855 109.205 76.137 109.254 76.5558 109.22C77.4023 109.993 76.9034 111.41 78.1342 112.301L78.3846 112.414C78.1739 112.604 77.9398 112.566 77.5919 112.611L77.019 112.675L76.9307 112.655L77.0297 112.408C76.7412 112.334 76.7738 112.334 76.5016 112.201C76.0587 111.625 75.8966 110.862 75.6515 110.139Z" fill="#875804"/>
<path d="M78.1341 112.301L78.3846 112.414C78.1739 112.604 77.9398 112.566 77.5919 112.611L77.0189 112.675L76.9307 112.655L77.0296 112.408C77.5507 112.276 77.5903 112.278 78.1341 112.301Z" fill="#FBE6B5"/>
<path d="M75.6518 110.139C75.897 110.862 76.059 111.625 76.502 112.201C76.7742 112.334 76.7415 112.334 77.03 112.408L76.9311 112.655L75.7873 112.701L75.1261 112.811L74.9365 112.295C75.2617 111.648 75.1351 110.914 75.6518 110.139Z" fill="white"/>
<path d="M70.1231 108.96C71.0135 108.934 74.4888 108.968 75.1679 109.29L74.9587 109.245L74.7967 109.356C73.9622 109.389 70.4827 109.57 69.7734 109.484C70.0264 109.385 69.9922 109.361 70.2686 109.364C70.0913 109.303 70.1911 109.347 69.9787 109.213L70.1231 108.96Z" fill="#FBE6B5"/>
<path d="M71.7021 112.486C72.9275 112.316 73.6981 112.293 74.9364 112.295L75.126 112.811C74.3892 112.627 72.9021 112.771 71.7021 112.486Z" fill="#FBF2BE"/>
<path d="M75.126 112.811L75.7872 112.701C75.5925 113.442 75.5624 114.623 75.4249 115.472L75.126 112.811Z" fill="#FBF2BE"/>
<path d="M65.5973 106.091C65.9436 106.512 65.8993 108.5 65.568 108.909L65.1822 109.014L65.3256 109.117L65.3809 109.325C66.3902 109.543 67.4136 109.336 68.4065 109.521C68.8537 109.971 68.5624 112.418 69.2346 113.115L69.4222 112.929C69.4381 114.908 70.4444 116.106 70.3625 117.032C69.8133 116.612 69.9371 116.585 69.3491 116.543C69.9268 117.217 70.4334 117.801 71.1513 118.336C70.1545 120.079 71.2758 124.728 70.5296 125.906L70.4969 125.984C72.1271 127.331 73.2889 128.135 75.0544 129.337C75.9703 129.969 78.1289 131.02 79.2162 131.469C80.7941 132.119 83.7693 133.513 85.3547 133.938C87.8494 134.606 91.1988 135.043 93.7834 135.58C95.0036 135.833 96.5616 135.868 97.6709 136.089C98.1767 136.102 98.4405 136.062 98.875 136.286C101.334 136.2 103.748 136.389 106.257 136.281C110.155 136.114 114.159 135.256 117.998 135.116C110.583 140.071 97.4983 142.055 88.7012 142.084C82.1007 142.106 74.2883 140.815 68.0582 138.586C66.3603 137.98 64.7375 137.059 62.998 136.484C62.6569 136.126 62.1187 136.227 61.8343 135.508C61.4588 135.522 61.0402 135.52 60.6763 135.594L59.6069 135.574C60.1347 135.381 60.0617 135.264 60.2703 134.767C59.9357 134.612 59.4951 134.313 59.1701 134.106C58.9877 132.678 58.843 131.457 58.5308 130.05C58.4122 131.15 58.2667 132.248 58.0947 133.342L58.0112 133.796C58.0952 134.223 58.03 134.505 57.9772 134.934C56.2473 134.985 53.7409 135.139 52.0719 135.087C51.1961 131.974 51.0211 130.542 51.0599 127.339C50.9336 124.172 51.0047 121.023 51.903 117.97C51.9374 117.89 51.9728 117.81 52.0094 117.731C54.0978 113.224 56.8981 110.753 61.1582 108.299C62.8261 107.339 63.7361 106.775 65.5973 106.091Z" fill="#F3B850"/>
<path d="M65.8602 117.739C66.7095 121.29 67.7725 123.329 70.5294 125.906L70.4967 125.984C72.1269 127.331 73.2887 128.135 75.0542 129.337C75.9701 129.969 78.1287 131.02 79.216 131.469C80.7939 132.119 83.7691 133.513 85.3545 133.938C87.8492 134.606 91.1986 135.043 93.7832 135.58C95.0034 135.833 96.5614 135.868 97.6707 136.089C96.2289 136.056 95.3492 136.447 93.8331 136.464L93.4421 136.476C85.0609 136.734 76.8818 135.964 69.4288 131.771C66.717 130.245 62.4079 126.918 62.3071 123.49C62.8957 121.121 64.1501 119.418 65.8602 117.739Z" fill="#AF7708"/>
<path d="M70.4966 125.984C72.1268 127.331 73.2886 128.135 75.0541 129.337C74.0459 129.755 71.6909 128.177 70.9372 127.429C70.4285 126.924 70.2763 126.664 70.4966 125.984Z" fill="#875804"/>
<path d="M93.7876 136.851C92.4551 137.34 83.4091 136.923 81.5046 136.617C73.9645 135.401 61.1976 131.226 60.8597 121.927C60.7409 118.659 63.442 115.607 65.717 113.445C65.7752 114.173 65.8422 114.996 65.7197 115.709C65.7462 116.444 65.7656 117.007 65.8602 117.739C64.1501 119.418 62.8957 121.121 62.3072 123.49C62.4079 126.918 66.717 130.246 69.4288 131.771C76.8818 135.964 85.061 136.734 93.4421 136.476L93.8331 136.464C93.5797 136.571 93.3254 136.677 93.0701 136.78L93.7876 136.851Z" fill="#875804"/>
<path d="M62.3067 123.49C61.5055 122.18 62.6632 118.692 63.449 117.467C64.3312 116.093 65.1781 115.887 65.3578 114.154L65.526 114.021C65.6379 114.473 65.6758 115.22 65.7193 115.709C65.7458 116.444 65.7651 117.007 65.8598 117.739C64.1497 119.418 62.8953 121.121 62.3067 123.49Z" fill="#754C02"/>
<path d="M51.2284 124.983C52.6852 127.581 53.1347 129.12 55.3328 131.318L55.7415 131.124C56.1404 131.69 57.4609 133.115 58.0944 133.342L58.011 133.796C58.0949 134.223 58.0297 134.505 57.977 134.934C56.247 134.985 53.7407 135.139 52.0716 135.087C51.1959 131.974 51.0209 130.542 51.0597 127.339C51.1842 126.483 51.2008 125.85 51.2284 124.983Z" fill="#F3B850"/>
<path d="M55.7416 131.124C56.1406 131.69 57.4611 133.115 58.0946 133.342L58.0111 133.796C57.1634 133.318 56.0113 132.051 55.333 131.318L55.7416 131.124Z" fill="#FBF2BE"/>
<path d="M51.903 117.97C52.4396 118.777 55.9023 130.519 55.7417 131.124L55.3331 131.318C53.1349 129.12 52.6855 127.581 51.2287 124.983C51.2011 125.85 51.1845 126.483 51.0599 127.339C50.9336 124.172 51.0047 121.023 51.903 117.97Z" fill="#F8CE81"/>
<path d="M68.4061 109.521C68.8533 109.971 68.562 112.418 69.2342 113.115L69.4218 112.929C69.4376 114.908 70.444 116.106 70.3621 117.032C69.8129 116.612 69.9366 116.585 69.3486 116.543C67.0229 114.706 66.6552 112.039 65.6172 109.522C66.3917 109.529 67.6706 109.579 68.4061 109.521Z" fill="#F8CE81"/>
<path d="M60.2699 134.767C62.5813 135.438 64.1615 134.872 66.5657 135.407C64.9384 135.544 63.4605 135.503 61.8339 135.508C61.4584 135.522 61.0398 135.52 60.6759 135.594L59.6064 135.574C60.1342 135.38 60.0613 135.264 60.2699 134.767Z" fill="#FBF2BE"/>
<path d="M93.8328 136.464C95.3489 136.447 96.2287 136.056 97.6704 136.089C98.1762 136.102 98.44 136.062 98.8745 136.286C97.0512 136.61 95.6585 136.785 93.7873 136.851L93.0698 136.78C93.3251 136.677 93.5794 136.571 93.8328 136.464Z" fill="#754C02"/>
<path d="M61.3633 109.077C62.6579 109.081 63.8883 109.095 65.1823 109.014L65.3257 109.117L65.381 109.325C66.3903 109.543 67.4137 109.336 68.4066 109.521C67.6711 109.579 66.3922 109.529 65.6177 109.522C64.0871 109.456 62.8623 109.445 61.3633 109.077Z" fill="#FBE6B5"/>
<path d="M137.446 125.244C137.945 124.775 138.531 124.094 139.001 123.575C142.487 128.535 142.957 129.552 142.824 135.933C142.797 137.283 142.905 139.513 142.716 140.791L142.745 141.79C142.687 144.053 141.67 143.508 139.833 143.41C139.586 142.888 139.551 142.817 139.57 142.243L139.487 141.594L139.175 141.133L139.01 141.128C138.885 141.516 138.83 141.772 138.746 142.173L138.699 142.681L138.332 143.396C138.236 143.72 138.194 143.729 138.216 144.041C137.486 144.045 136.782 143.999 136.101 144.264L135.466 144.113L135.391 144.15C128.882 149.546 116.358 152.088 108.039 152.271C103.335 152.376 95.9119 152.5 91.4917 151.098C92.2642 150.637 96.3399 150.41 97.5107 150.202C100.017 149.755 102.649 149.407 105.15 148.916C107.106 148.535 109.013 147.668 110.986 147.219L111.206 147.17C112.055 146.438 112.921 146.273 113.979 145.996C115.353 145.13 116.421 144.487 117.857 143.735C118.436 143.215 119.74 142.572 120.46 141.994C121.454 141.197 122.254 140.389 123.235 139.576L123.233 139.49C122.901 138.508 122.971 134.767 122.989 133.566L123.92 133.352C125.052 132.829 125.681 132.535 126.886 132.074C127.994 131.576 129.106 131.085 130.22 130.601L131.516 129.866L132.51 129.242C134.681 127.755 135.684 127.138 137.446 125.244Z" fill="#F3B850"/>
<path d="M126.886 132.074C127.995 131.576 129.106 131.085 130.22 130.601C130.75 131.514 131.025 132.147 131.45 133.115C131.784 133.941 131.579 134.941 131.218 135.741C129.124 140.393 123.932 142.882 119.462 144.692C118.382 145.129 115.016 146.157 113.979 145.996C115.353 145.13 116.421 144.487 117.857 143.735C118.436 143.215 119.74 142.572 120.46 141.994C121.454 141.197 122.254 140.389 123.235 139.576L123.233 139.49C122.902 138.508 122.971 134.767 122.989 133.565L123.92 133.352C125.052 132.829 125.681 132.535 126.886 132.074Z" fill="#AF7708"/>
<path d="M123.92 133.352C125.052 132.829 125.681 132.535 126.886 132.074C126.678 135.009 125.216 137.177 123.309 139.428C123.283 139.449 123.258 139.469 123.233 139.49C122.902 138.508 122.971 134.767 122.989 133.566L123.92 133.352Z" fill="#D18E09"/>
<path d="M117.856 143.735C118.436 143.215 119.74 142.572 120.459 141.994C121.454 141.197 122.254 140.389 123.235 139.576L123.282 140.97C122.065 141.725 119.165 143.753 117.856 143.735Z" fill="#D18E09"/>
<path d="M132.509 129.242C133.204 132.659 133.396 134.637 131.325 137.722C128.255 142.296 120.833 145.44 115.567 146.434C114.462 146.643 112.249 147.092 111.206 147.17C112.054 146.438 112.921 146.273 113.979 145.996C115.016 146.157 118.381 145.129 119.462 144.692C123.932 142.882 129.123 140.393 131.218 135.741C131.579 134.941 131.784 133.941 131.45 133.115C131.025 132.147 130.75 131.514 130.22 130.601L131.516 129.866L132.509 129.242Z" fill="#875804"/>
<path d="M131.516 129.866L131.814 130.053C131.884 130.527 131.839 132.736 131.604 133.09L131.45 133.115C131.025 132.147 130.75 131.514 130.22 130.601L131.516 129.866Z" fill="#875804"/>
<path d="M142.68 135.081C142.698 136.923 142.607 138.972 142.716 140.791L142.745 141.79C142.687 144.053 141.67 143.508 139.833 143.41C139.586 142.888 139.551 142.817 139.57 142.243C139.582 142.036 139.576 141.175 139.634 141.069C140.734 139.084 141.731 137.149 142.68 135.081Z" fill="#D18E09"/>
<path d="M138.332 143.396C138.236 143.72 138.194 143.729 138.217 144.041C137.486 144.045 136.782 143.999 136.101 144.264L135.466 144.113C135.419 143.742 135.399 143.932 135.663 143.548L136.426 143.348L136.917 143.395C137.371 143.409 137.874 143.397 138.332 143.396Z" fill="#FBF8DC"/>
<path d="M138.47 141.893C138.551 142.156 138.638 142.415 138.7 142.681L138.332 143.396C137.874 143.397 137.371 143.409 136.917 143.395C137.3 142.947 137.895 142.57 138.47 141.893Z" fill="#EDA31D"/>
<path d="M139.123 138.818C139.27 139.761 139.413 140.639 139.487 141.594L139.175 141.133L139.01 141.128C138.885 141.516 138.83 141.772 138.746 142.173C138.665 141.182 138.95 139.833 139.123 138.818Z" fill="#FBF2BE"/>
<path d="M135.037 143.553L135.663 143.548C135.398 143.932 135.419 143.742 135.466 144.113L135.391 144.15C134.847 144.018 133.43 144.022 132.818 144.009C133.862 143.774 133.848 143.665 135.037 143.553Z" fill="#FBF2BE"/>
<path d="M131.107 143.741C132.703 143.629 133.317 143.485 135.037 143.553C133.848 143.665 133.862 143.774 132.819 144.009C132.383 144.022 131.572 143.83 131.107 143.741Z" fill="#FBE6B5"/>
<path d="M136.425 143.348C136.996 142.905 137.781 141.732 138.47 141.893C137.894 142.569 137.3 142.947 136.917 143.395L136.425 143.348Z" fill="#F8CE81"/>
<path d="M62.1826 147.391C63.9797 149.453 67.1953 151.597 69.6869 152.722C70.283 153.038 70.8455 153.352 71.4712 153.605C71.8502 153.816 72.8539 154.316 73.2818 154.406C74.2621 154.055 75.5853 155.277 77.6017 155.221C78.3504 155.511 80.5848 156.278 81.1054 156.639L81.1503 156.794C91.652 160.683 100.946 161.728 112.036 160.695C112.466 160.545 114.291 160.523 115.202 160.293C115.192 161.078 115.072 162.992 115.411 163.574C114.257 163.98 113.282 164.241 112.08 164.497C110.401 164.715 108.426 165.275 106.662 165.562C102.451 166.209 98.1895 166.468 93.9309 166.338C83.9756 166.012 69.2632 163.267 62.2435 155.758L62.1826 147.391Z" fill="#D18E09"/>
<path d="M112.036 160.695C112.467 160.545 114.291 160.523 115.202 160.293C115.192 161.078 115.072 162.992 115.411 163.574C114.257 163.98 113.282 164.241 112.08 164.497L112.036 160.695Z" fill="#E9B558"/>
<path d="M73.2817 154.406C74.262 154.055 75.5852 155.277 77.6016 155.221C78.3503 155.511 80.5847 156.278 81.1053 156.639L81.1503 156.794C78.8242 156.316 75.4894 155.295 73.2817 154.406Z" fill="#F8CE81"/>
<path d="M57.0617 141.371C57.7884 141.719 58.5127 142.315 59.118 142.849C59.7042 143.185 60.1245 143.438 60.6869 143.821L61.4444 144.322C64.96 146.157 68.2673 147.339 72.0493 148.536C72.0266 149.291 71.823 151.009 72.3226 151.44C73.7336 152.658 76.0162 154.28 77.6018 155.221C75.5854 155.277 74.2621 154.055 73.2819 154.406C72.854 154.316 71.8503 153.816 71.4712 153.605C70.8455 153.352 70.283 153.038 69.687 152.722C67.1954 151.598 63.9798 149.453 62.1827 147.391L62.2436 155.758C61.904 155.488 61.5803 155.199 61.2742 154.891C60.4554 154.071 59.952 153.298 59.3267 152.352C56.8864 148.662 57.0445 145.616 57.0617 141.371Z" fill="#F3B850"/>
<path d="M60.6868 143.821L61.4444 144.322C61.5234 145.289 61.7073 146.244 61.9927 147.171C61.6359 146.841 60.4945 145.845 60.3594 145.485C60.4749 145.177 60.6293 144.171 60.6868 143.821Z" fill="#E9B558"/>
<path d="M59.1179 142.849C59.7041 143.184 60.1244 143.438 60.6868 143.821C60.6292 144.171 60.4749 145.177 60.3593 145.485C59.9816 144.924 58.95 143.472 59.1179 142.849Z" fill="#F8CE81"/>
<path d="M69.687 152.722C70.271 152.468 71.069 152.876 71.5235 153.279C71.5103 153.375 71.4979 153.517 71.4712 153.605C70.8455 153.352 70.283 153.038 69.687 152.722Z" fill="#E9B558"/>
<path d="M117.998 135.116C118.344 134.883 118.627 134.627 119.027 134.593C118.913 135.059 117.869 135.783 117.406 136.035C105.111 142.744 87.9407 144.215 74.4477 140.928C71.8637 140.298 68.0649 139.227 65.8259 138.201C64.7793 137.759 63.9445 137.299 62.9492 136.762L62.9981 136.484C64.7376 137.059 66.3604 137.98 68.0583 138.586C74.2884 140.815 82.1008 142.106 88.7013 142.084C97.4984 142.055 110.583 140.071 117.998 135.116Z" fill="#FBF2BE"/>
<path d="M120.551 126.035C121.71 125.752 122.501 125.56 123.629 125.148C123.904 127.725 123.466 130.187 123.92 133.352L122.989 133.566C122.212 133.794 121.416 133.966 120.626 134.147C120.625 131.443 120.6 128.739 120.551 126.035Z" fill="#F3B850"/>
<path d="M115.202 160.293C117.931 159.853 120.635 159.271 123.304 158.549C124.21 158.306 126.76 157.337 127.529 157.642C124.316 160.241 119.253 162.189 115.411 163.574C115.073 162.992 115.193 161.078 115.202 160.293Z" fill="#D18E09"/>
<path d="M135.466 144.113L136.101 144.264C133.621 146.025 130.09 148.137 127.269 149.154C116.252 153.127 104.26 153.707 92.7415 151.988C91.315 151.775 88.7691 151.205 87.4795 150.604C88.8625 150.715 90.1211 150.9 91.4915 151.098C95.9117 152.5 103.334 152.376 108.039 152.271C116.358 152.088 128.882 149.546 135.391 144.15L135.466 144.113Z" fill="#FBF2BE"/>
<path d="M58.5302 130.05C58.8424 131.457 58.987 132.678 59.1695 134.106C59.4945 134.313 59.9351 134.612 60.2697 134.767C60.0611 135.264 60.134 135.38 59.6062 135.574C58.7544 136.238 59.2632 137.545 58.8769 138.528L58.385 138.568C58.2173 137.797 58.3071 135.976 57.7 135.713C56.7571 135.547 53.3334 135.507 52.268 135.52L52.0713 135.087C53.7403 135.139 56.2467 134.985 57.9766 134.934C58.0293 134.505 58.0946 134.223 58.0106 133.796L58.0941 133.342C58.2661 132.248 58.4116 131.15 58.5302 130.05Z" fill="white"/>
<path d="M52.2686 135.52C53.3339 135.507 56.7576 135.547 57.7005 135.713C57.3776 135.73 56.6906 135.71 56.4723 135.854C56.4142 137.075 56.3739 139.245 56.1039 140.363C54.4459 138.917 53.5318 137.322 52.2686 135.52Z" fill="#F3B850"/>
<path d="M60.6761 135.594C61.04 135.52 61.4586 135.522 61.8341 135.508C62.1185 136.227 62.6567 136.126 62.9978 136.484L62.9489 136.762L62.919 138.41L65.3713 138.523L65.4173 138.592L65.3515 138.731C64.7587 138.876 63.653 138.851 62.9938 138.86C62.9672 139.336 62.9481 140.213 62.6272 140.512L62.7671 140.515L62.6749 140.612C62.4334 140.102 62.3912 139.44 62.3127 138.865C61.3241 138.854 60.7822 138.892 59.8071 138.649L59.8577 138.541C60.6788 138.351 61.5321 138.404 62.3787 138.411C62.4218 137.804 62.4584 137.197 62.4884 136.59C61.8321 136.189 61.3661 135.935 60.6761 135.594Z" fill="#FBF2BE"/>
<path d="M58.3853 138.568L58.8771 138.528C58.7627 139.08 58.6768 139.958 58.6036 140.543C58.4976 139.846 58.4441 139.268 58.3853 138.568Z" fill="#F8CE81"/>
<path d="M142.977 142.909C148.834 134.522 158.36 131.166 168.162 129.584C181.761 127.389 198.241 129.076 209.886 136.955C216.178 141.215 217.963 146.822 217.19 154.148C217.168 160.033 217.26 161.819 213.38 166.497C212.72 167.321 212.093 167.631 211.371 168.285C211.489 169.559 211.698 171.408 211.553 172.644C211.528 178.752 212.081 182.215 207.605 187.008C204.915 190.416 198.232 193.703 193.916 195.079C179.746 199.596 163.1 199.439 149.332 193.578C148.52 193.233 147.426 192.554 146.623 192.371L146.499 192.281C144.759 191.203 141.659 189.26 140.285 187.783L140.095 187.636C139.679 186.956 138.728 186.19 138.208 185.442C135.824 182.003 135.581 179.915 135.35 175.972C131.961 171.075 131.561 169.986 131.658 163.682C131.68 161.827 131.653 159.968 131.686 158.113C131.704 157.114 132.184 156.026 132.153 155.038L132.226 155.008C132.865 154.199 133.456 152.488 134.118 151.585C135.461 149.756 137.233 148.288 138.794 146.623C138.704 145.678 138.696 144.869 138.216 144.041C138.194 143.729 138.236 143.72 138.332 143.396L138.699 142.681L138.746 142.173C138.83 141.772 138.885 141.516 139.01 141.128L139.175 141.133L139.487 141.594L139.57 142.243C139.551 142.817 139.586 142.888 139.833 143.41C141.67 143.508 142.687 144.053 142.745 141.79C142.801 142.12 142.864 142.616 142.977 142.909Z" fill="#F3B850"/>
<path d="M132.226 155.008C133.132 155.845 133.492 157.388 133.835 158.563C134.755 161.717 135.831 164.849 136.52 168.062C137.987 170.791 148.497 175.615 151.713 176.403C158.77 178.13 171.275 179.964 178.295 178.003C177.649 177.683 174.662 177.695 173.651 177.572C163.961 176.39 153.993 174.169 146.375 167.458C146.432 166.086 146.255 160.451 146.572 159.547C159.626 170.693 181.824 171.386 197.659 167.091C199.599 166.565 201.481 165.648 203.37 165.07C203.635 166.102 203.776 167.179 203.937 168.234L204.321 167.059L204.229 166.816C204.372 166.042 204.448 165.25 204.538 164.467C206.181 163.904 206.712 163.878 208.467 163.833C208.86 163.741 209.317 163.699 209.723 163.646L209.8 163.493C208.875 163.429 208.035 163.361 207.114 163.251C208.218 162.269 209.362 161.647 210.529 160.767C211.419 160.097 212.147 159.256 213.022 158.564C212.979 159.871 212.842 165.664 213.38 166.497C212.72 167.321 212.093 167.631 211.371 168.285C211.489 169.559 211.698 171.408 211.553 172.644C211.528 178.752 212.081 182.215 207.605 187.008C204.915 190.416 198.232 193.703 193.916 195.079C179.746 199.596 163.1 199.439 149.332 193.578C148.52 193.233 147.426 192.554 146.623 192.371L146.499 192.281C144.759 191.203 141.659 189.26 140.285 187.783L140.095 187.636C139.679 186.956 138.728 186.19 138.208 185.442C135.824 182.003 135.581 179.915 135.35 175.972C131.961 171.075 131.561 169.986 131.658 163.682C131.68 161.827 131.653 159.968 131.686 158.113C131.704 157.114 132.184 156.026 132.153 155.038L132.226 155.008Z" fill="#EDA31D"/>
<path d="M206.902 171.515C207.171 171.258 210.953 168.528 211.371 168.285C211.489 169.559 211.698 171.408 211.553 172.644C211.527 178.752 212.081 182.215 207.604 187.008C204.915 190.416 198.232 193.703 193.916 195.079C179.746 199.596 163.1 199.439 149.332 193.578C148.52 193.233 147.426 192.554 146.623 192.371L146.498 192.281C144.759 191.203 141.659 189.26 140.285 187.783L141.64 187.729C141.876 187.586 142.446 187.468 142.749 187.391C143.775 187.306 144.51 187.265 145.536 187.272L145.867 187.217C146.236 186.828 146.342 184.427 146.361 183.793L146.155 183.584L146.089 183.202L146.606 183.131C146.758 183.371 146.727 183.248 146.733 183.485L146.926 183.616C148.48 183.498 152.165 185.26 153.953 185.635C168.004 188.584 183.4 188.149 196.424 181.626C199.323 180.173 201.308 178.376 203.757 176.333C204.798 175.287 206.267 172.803 206.902 171.515Z" fill="#EDA31D"/>
<path d="M206.902 171.515C207.171 171.258 210.954 168.528 211.372 168.285C211.489 169.559 211.698 171.408 211.553 172.644C211.528 178.752 212.081 182.215 207.605 187.008C207.256 186.514 207.32 180.225 207.31 179.151C207.011 179.431 206.447 180.022 206.073 180.118C200.8 185.036 194 187.414 187.021 188.828C185.31 189.174 183.243 189.287 181.477 189.543L181.008 189.195C180.337 189.192 179.617 189.264 178.939 189.29C172.995 189.469 166.098 189.729 160.291 188.335C156.578 187.445 149.994 185.687 146.926 183.616C148.481 183.498 152.166 185.26 153.953 185.635C168.004 188.584 183.4 188.149 196.424 181.626C199.324 180.173 201.308 178.376 203.757 176.333C204.799 175.287 206.268 172.803 206.902 171.515Z" fill="#F3B850"/>
<path d="M207.31 179.151C207.564 178.731 208.617 177.415 208.966 176.964C210.385 175.13 210.69 173.819 211.365 171.757C211.466 171.872 211.52 172.439 211.553 172.644C211.527 178.752 212.081 182.215 207.604 187.008C207.256 186.514 207.32 180.225 207.31 179.151Z" fill="#D18E09"/>
<path d="M181.008 189.195C188.432 188.283 196.499 186.405 202.85 182.295C203.541 181.848 205.488 180.172 206.073 180.118C200.8 185.036 194 187.414 187.021 188.828C185.31 189.174 183.242 189.287 181.477 189.543L181.008 189.195Z" fill="#FBF2BE"/>
<path d="M146.733 183.485L146.926 183.616C149.994 185.687 156.578 187.445 160.291 188.335C166.098 189.729 172.995 189.469 178.939 189.29C179.617 189.264 180.337 189.192 181.008 189.195L181.477 189.542C173.001 190.531 161.524 190.06 153.518 187.003C153.039 186.87 152.209 186.516 151.719 186.325C151.128 186.464 150.109 186.723 149.768 187.248C149.348 187.251 148.927 187.259 148.507 187.272C147.909 187.247 147.752 187.335 147.287 187.046C147.009 186.592 147.013 185.511 146.943 184.907C146.867 184.622 146.779 183.814 146.733 183.485Z" fill="#FBF2BE"/>
<path d="M146.943 184.907L147.031 184.329C147.575 184.417 149.185 185.416 149.832 185.687C150.524 185.976 151 186.114 151.719 186.325C151.128 186.464 150.109 186.723 149.768 187.248C149.348 187.251 148.927 187.259 148.507 187.272C147.909 187.247 147.751 187.335 147.286 187.046C147.009 186.592 147.013 185.511 146.943 184.907Z" fill="#F3B850"/>
<path d="M141.64 187.729C142.454 187.795 143.445 187.907 144.244 187.864C144.891 187.94 145.396 187.993 146.054 188.016C146.12 188.625 146.575 191.94 146.498 192.281C144.759 191.203 141.659 189.26 140.285 187.783L141.64 187.729Z" fill="#EDA31D"/>
<path d="M146.089 183.202L146.606 183.131C146.758 183.371 146.727 183.248 146.733 183.485C146.778 183.814 146.867 184.623 146.943 184.907C147.012 185.511 147.009 186.592 147.286 187.046C147.751 187.335 147.909 187.247 148.507 187.272C148.006 187.338 147.811 187.313 147.438 187.615C147.686 187.86 149.34 187.676 149.913 187.866C148.96 187.997 148.139 187.997 147.177 188.013C147.083 189.097 146.948 191.427 146.623 192.371L146.498 192.281C146.575 191.94 146.12 188.625 146.054 188.016C145.396 187.993 144.891 187.94 144.244 187.864C143.445 187.907 142.454 187.795 141.64 187.729C141.876 187.586 142.446 187.468 142.75 187.391C143.775 187.306 144.51 187.265 145.536 187.272L145.867 187.217C146.237 186.828 146.342 184.427 146.361 183.793L146.155 183.584L146.089 183.202Z" fill="white"/>
<path d="M142.75 187.391C143.775 187.306 144.51 187.265 145.536 187.272L144.908 187.443L144.974 187.359L144.938 187.499C145.237 187.551 145.535 187.605 145.832 187.663C145.387 187.7 144.641 187.73 144.244 187.864C143.445 187.907 142.454 187.795 141.64 187.729C141.876 187.586 142.446 187.468 142.75 187.391Z" fill="#FBF8DC"/>
<path d="M148.507 187.272C148.927 187.259 149.348 187.251 149.768 187.248C150.542 187.383 152.438 187.541 153.158 187.312L153.565 187.426L153.612 187.601C153.013 187.887 150.711 187.855 149.914 187.866C149.341 187.676 147.687 187.86 147.438 187.615C147.812 187.313 148.006 187.338 148.507 187.272Z" fill="#FBF2BE"/>
<path d="M151.991 189.167C152.399 189.63 152.394 190.584 152.439 191.205C153.833 191.212 154.701 191.246 156.075 191.469C154.776 191.607 153.791 191.654 152.492 191.695L152.262 193.009L152.161 193.373L152.065 193.36C151.93 192.824 151.948 192.231 151.935 191.672C150.793 191.635 149.87 191.607 148.731 191.464C149.963 191.249 150.689 191.235 151.953 191.207L151.991 189.167Z" fill="#FBF2BE"/>
<path d="M132.226 155.008C133.132 155.845 133.492 157.388 133.835 158.563C134.755 161.717 135.831 164.849 136.52 168.062C136.269 167.89 135.982 167.675 135.717 167.541L135.911 167.702L135.594 167.554C136.033 168.318 136.773 168.929 136.961 169.25C136.648 170.599 136.827 175.564 136.805 177.291C137.707 178.16 139.563 179.412 140.64 180.181C140.658 182.644 140.548 184.8 140.464 187.248C140.739 187.419 141.287 187.388 141.641 187.398L142.75 187.391C142.446 187.468 141.876 187.586 141.64 187.729L140.285 187.783L140.095 187.636C139.679 186.956 138.728 186.19 138.208 185.442C135.824 182.003 135.581 179.915 135.35 175.972C131.961 171.075 131.561 169.986 131.658 163.682C131.68 161.827 131.653 159.968 131.686 158.113C131.704 157.114 132.184 156.026 132.153 155.038L132.226 155.008Z" fill="#F3BD5B"/>
<path d="M141.641 187.398L142.75 187.391C142.446 187.468 141.877 187.586 141.64 187.729L140.285 187.783L140.095 187.636C140.487 187.522 141.212 187.453 141.641 187.398Z" fill="#F8CE81"/>
<path d="M136.961 169.25C136.773 168.929 136.033 168.318 135.594 167.554L135.911 167.702L135.717 167.541C135.982 167.675 136.269 167.89 136.52 168.062C137.987 170.791 148.497 175.615 151.713 176.403C158.77 178.13 171.275 179.964 178.295 178.003C180.669 177.8 183.113 177.309 185.483 177.433C184.482 177.751 183.188 177.868 182.131 178.069C168.172 180.727 151.625 179.318 139.652 171.157C138.75 170.542 137.792 169.943 136.961 169.25Z" fill="#FBF2BE"/>
<path d="M203.606 173.12C204.486 172.576 205.908 171.736 206.902 171.515C206.268 172.803 204.799 175.287 203.757 176.333C203.51 175.765 203.601 173.847 203.606 173.12Z" fill="#D18E09"/>
<path d="M207.673 166.757C207.662 166.218 207.592 165.609 207.786 165.129C208.1 165.342 208.104 166.329 208.133 166.727C209.065 166.769 210.468 166.779 211.35 166.962C210.828 167.195 208.754 167.183 208.11 167.186C208.002 168.243 207.962 168.713 207.7 169.735C207.693 168.903 207.675 168.051 207.68 167.221C206.593 167.197 205.309 167.061 204.32 167.059L204.229 166.816C205.346 166.818 206.569 166.838 207.673 166.757Z" fill="#F8CE81"/>
<path d="M141.998 180.796C142.903 181.354 145.423 182.74 146.089 183.202L146.155 183.584C144.396 182.888 143.267 182.148 141.998 180.796Z" fill="#F8CE81"/>
<path d="M209.8 163.493C210.515 163.439 211.131 163.526 211.84 163.6C210.726 163.798 209.596 163.876 208.467 163.833C208.86 163.741 209.317 163.699 209.723 163.646L209.8 163.493Z" fill="#F8CE81"/>
<path d="M217.132 151.572C217.131 152.431 217.15 153.289 217.19 154.148C217.168 160.033 217.26 161.819 213.38 166.497C212.842 165.664 212.979 159.871 213.022 158.564C214.958 156.616 216.177 154.112 217.132 151.572Z" fill="#D18E09"/>
<path d="M143.112 155.41C144.205 155.766 144.799 157.742 146.235 158.567C147.182 159.734 149.111 161.017 150.412 161.801C163.674 169.789 180.756 170.467 195.551 167.064C198.23 166.448 200.687 165.278 203.223 164.667L203.37 165.07C201.481 165.648 199.599 166.565 197.659 167.091C181.824 171.386 159.626 170.693 146.572 159.547C145.242 157.869 144.473 157.793 143.112 155.41Z" fill="#FBF2BE"/>
<path d="M141.181 147.408C141.718 147.393 142.123 147.294 142.542 147.518C142.733 148.108 142.711 148.673 143.085 149.121L143.265 149.126L143.346 148.977C144.141 151.811 145.662 155.81 146.236 158.567C144.799 157.742 144.206 155.766 143.113 155.41C141.511 153.458 141.265 149.791 141.181 147.408Z" fill="#F8CE81"/>
<path d="M203.948 158.893C204.282 160.127 204.471 161.96 204.59 163.248C205.449 163.256 206.239 163.209 207.115 163.251C208.035 163.361 208.876 163.429 209.801 163.493L209.724 163.646C209.318 163.699 208.86 163.741 208.467 163.833C206.712 163.878 206.181 163.904 204.538 164.467C204.448 165.25 204.372 166.042 204.229 166.816L204.321 167.059L203.938 168.234C203.777 167.179 203.635 166.102 203.371 165.07L203.223 164.667C203.235 164.36 203.254 164.454 203.157 164.186C202.527 163.794 198.033 163.823 196.586 163.61C199.149 163.345 200.746 163.245 203.314 163.262C203.392 161.944 203.727 160.226 203.948 158.893Z" fill="white"/>
<path d="M138.746 142.173C138.83 141.772 138.886 141.516 139.011 141.128L139.175 141.133L139.487 141.594L139.57 142.243C139.551 142.817 139.586 142.888 139.833 143.41C139.83 143.702 139.824 143.988 139.831 144.28C139.765 144.912 139.653 145.365 139.511 145.976C139.264 147.117 139.36 148.227 139.185 149.395C138.948 148.383 138.892 147.667 138.794 146.623C138.704 145.678 138.696 144.869 138.217 144.041C138.194 143.729 138.236 143.72 138.332 143.396L138.699 142.681L138.746 142.173Z" fill="#FDFDF2"/>
<path d="M142.745 141.79C142.802 142.12 142.864 142.616 142.977 142.909L142.88 143.297C143.591 144.059 145.7 143.241 146.749 143.918C145.738 144.137 141.646 144.029 140.373 144.039L140.011 144.024L139.831 144.28C139.824 143.988 139.83 143.702 139.833 143.41C141.67 143.508 142.687 144.053 142.745 141.79Z" fill="#FCEEBC"/>
<path d="M142.812 146.965C142.906 146.16 142.994 145.338 143.098 144.536L143.19 146.938L146.56 147.071C145.511 147.368 144.379 147.383 143.294 147.399L143.346 148.977L143.265 149.126L143.085 149.121C142.711 148.673 142.733 148.108 142.542 147.518C142.123 147.294 141.718 147.393 141.181 147.408C140.798 147.336 140.524 147.36 140.296 147.136C140.947 146.972 142.104 146.974 142.812 146.965Z" fill="#FBF2BE"/>
<path d="M139.831 144.28L140.011 144.024L140.372 144.039C141.171 144.143 141.594 144.15 142.394 144.155C141.697 144.907 140.77 145.59 139.89 146.111C139.585 146.091 139.696 146.159 139.511 145.976C139.653 145.365 139.765 144.912 139.831 144.28Z" fill="#D18E09"/>
<path d="M179.792 133.867C187.638 133.813 197.709 136.104 203.713 141.383C206.663 144.04 208.866 148.37 206.943 152.239C202.281 161.619 188.432 164.12 178.968 164.162C170.635 163.904 161.512 162.263 154.961 156.694C149.984 152.464 149.612 146.269 154.453 141.733C161.133 135.475 170.976 134.004 179.792 133.867Z" fill="#875804"/>
<path d="M152.316 150.46C152.369 150.225 152.435 149.992 152.514 149.763C153.957 145.534 157.579 143.327 161.286 141.301C164.092 139.767 175.312 136.947 178.051 137.895C180.044 137.688 181.259 137.726 183.242 137.905C186.059 137.777 192.55 139.458 195.276 140.519C200.112 142.4 204.83 145.58 206.198 150.83C200.484 168.144 157.11 167.407 152.316 150.46Z" fill="#AF7708"/>
<path d="M171.504 146.136C172.349 145.675 176.118 144.18 177.051 143.969C179.939 143.318 182.057 144.233 184.442 145.715C184.204 145.869 183.699 146.179 183.515 146.352C183.29 147.428 182.932 148.47 182.687 149.641C183.348 149.428 186.699 148.237 187.042 148.341C185.427 149.404 180.708 151.062 178.665 151.963C177.869 152.83 176.929 155.515 177.038 156.678C175.998 157.214 174.633 157.255 174.04 158.074C173.647 157.474 172.659 156.686 172.085 156.197C172.907 155.745 173.642 155.445 174.508 155.08C174.096 154.688 173.847 154.378 173.486 153.946C172.583 154.203 171.376 154.71 170.475 155.059C169.852 154.582 168.189 153.543 168.079 152.913L168.261 152.747C168.74 152.608 170.354 152.209 170.615 151.901L170.439 151.673C170.566 151.594 170.489 151.652 170.641 151.465C170.463 151.055 169.903 150.691 169.53 150.395C169.611 149.773 170.713 146.521 171.033 145.93L171.504 146.136Z" fill="#F3B850"/>
<path d="M171.504 146.136C172.349 145.675 176.118 144.18 177.051 143.969C179.939 143.318 182.057 144.233 184.442 145.715C184.204 145.869 183.699 146.179 183.515 146.352C181.089 147.706 178.448 148.73 175.813 149.583C174.573 148.748 172.81 147.15 171.504 146.136Z" fill="#AF7708"/>
<path d="M190.6 145.1C191.083 145.945 190.808 148.467 189.951 149.056L189.664 149.081C190.548 149.891 191.173 150.375 192.141 151.088C192.238 151.924 192.177 153.044 192.155 153.91C189.594 154.992 186.854 155.684 184.488 156.955C184.939 157.38 185.385 157.809 185.827 158.244C184.107 158.472 182.886 159.242 181.24 159.81C180.392 159.315 177.92 157.346 177.038 156.678C176.929 155.515 177.87 152.83 178.665 151.963C180.708 151.062 185.427 149.404 187.042 148.341C188.531 147.606 189.831 146.622 190.6 145.1Z" fill="#EDA31D"/>
<path d="M182.052 155.015C185.351 153.796 188.818 152.363 192.141 151.088C192.238 151.924 192.177 153.044 192.155 153.91C189.594 154.992 186.855 155.684 184.488 156.955C183.577 156.355 183.004 155.632 182.052 155.015Z" fill="#875804"/>
<path d="M190.599 145.1C191.082 145.945 190.807 148.467 189.951 149.056L189.664 149.081C186.371 150.347 183.028 151.8 179.73 152.883C179.382 152.57 179.036 152.247 178.665 151.963C180.708 151.062 185.427 149.404 187.042 148.341C188.531 147.606 189.831 146.622 190.599 145.1Z" fill="#875804"/>
<path d="M178.051 137.895C180.044 137.688 181.259 137.726 183.242 137.905C184.153 138.067 184.472 138.153 185.314 138.619C184.866 139.469 184.012 142.257 183.648 142.548C184.669 143.431 185.552 144.455 184.442 145.715C182.057 144.233 179.939 143.318 177.052 143.969C176.118 144.18 172.349 145.675 171.505 146.136L171.034 145.93C170.458 145.247 169.762 144.769 169.234 144.034C169.405 143.393 170.851 143.091 171.429 142.915C171.377 142.041 171.775 140.662 171.999 139.764C172.545 139.631 173.746 139.155 174.375 138.946C175.632 138.531 176.771 138.227 178.051 137.895Z" fill="#875804"/>
<path d="M178.051 137.895C180.044 137.688 181.259 137.726 183.242 137.905C184.153 138.067 184.472 138.153 185.314 138.619C184.866 139.469 184.012 142.257 183.648 142.548C182.918 141.993 182.644 141.838 181.825 141.416L181.862 141.263C180.995 140.703 179.522 140.655 178.504 140.673C176.005 140.717 173.717 142.204 171.429 142.915C171.377 142.041 171.775 140.662 171.999 139.764C172.545 139.631 173.746 139.155 174.375 138.946C175.632 138.531 176.771 138.227 178.051 137.895Z" fill="#F3B850"/>
<path d="M171.429 142.915C173.717 142.204 176.005 140.717 178.504 140.673C179.522 140.655 180.995 140.703 181.862 141.263L181.825 141.416C177.258 140.399 176.095 141.625 171.781 143.219C171.077 143.48 169.962 143.926 169.234 144.034C169.405 143.393 170.851 143.091 171.429 142.915Z" fill="#FBF2BE"/>
<path d="M185.314 138.619C188.148 140.031 191.155 141.23 190.6 145.1C189.831 146.622 188.531 147.606 187.042 148.341C186.699 148.237 183.348 149.428 182.688 149.641C182.933 148.47 183.29 147.428 183.515 146.352C183.699 146.179 184.205 145.869 184.442 145.715C185.552 144.455 184.669 143.431 183.648 142.548C184.012 142.257 184.866 139.469 185.314 138.619Z" fill="#EDA31D"/>
<path d="M161.255 143.947C161.961 143.462 170.917 140.042 171.999 139.764C171.775 140.662 171.377 142.041 171.429 142.915C170.851 143.091 169.405 143.393 169.234 144.034C169.762 144.769 170.458 145.247 171.034 145.93C170.713 146.521 169.611 149.773 169.53 150.395C168.533 149.5 162.115 144.25 161.255 143.947Z" fill="#EDA31D"/>
<path d="M161.255 143.947C162.115 144.25 168.533 149.5 169.53 150.395C169.904 150.691 170.463 151.055 170.641 151.465C170.49 151.652 170.567 151.594 170.439 151.673L170.616 151.901C170.354 152.209 168.741 152.608 168.262 152.747C167.262 151.786 165.99 150.906 164.94 149.983C163.722 148.912 162.224 148.058 161.105 146.887C161.169 146.232 161.235 144.923 161.461 144.39L161.255 143.947Z" fill="#875804"/>
<path d="M161.255 143.947C162.115 144.25 168.533 149.5 169.53 150.395C169.903 150.691 170.463 151.055 170.641 151.465C170.489 151.652 170.566 151.594 170.439 151.673C167.459 149.077 164.433 146.855 161.46 144.39L161.255 143.947Z" fill="#FBF2BE"/>
<path d="M177.038 156.678C177.92 157.346 180.392 159.315 181.24 159.81C182.885 159.242 184.107 158.472 185.827 158.244C185.592 158.749 182.055 160.037 181.265 160.354C179.808 159.215 178.627 158.288 177.115 157.191C176.223 157.492 174.928 158 174.04 158.074C174.633 157.255 175.998 157.214 177.038 156.678Z" fill="#FBF2BE"/>
<path d="M141.501 159.725C141.724 159.925 143.266 163.829 143.432 164.352C142.67 163.749 141.577 160.766 141.501 159.725Z" fill="#D18E09"/>
<path d="M35.0763 188.081C36.9695 183.289 42.7907 179.352 47.4054 177.361C58.1841 172.71 70.5821 171.72 82.1287 173.405C87.0212 174.118 91.3437 175.145 95.936 177.112C100.989 179.276 106.426 182.809 108.879 187.913C110.218 190.84 110.042 194.299 110.024 197.414C110.019 198.096 110.023 200.229 109.923 200.846C109.817 204.8 108.715 207.624 105.906 210.451C102.348 214.168 97.2248 216.912 92.3523 218.476C91.2329 218.843 90.0102 219.273 88.8874 219.597C83.1561 220.857 77.1275 221.661 71.249 221.602C61.229 221.5 46.1277 218.625 38.8705 211.185C38.8027 211.119 38.7356 211.052 38.6688 210.985C32.8501 205.093 33.9858 200.608 34.0076 192.769L35.8699 192.772C36.0478 194.561 36.1679 196.031 36.6311 197.786C36.7685 196.622 36.9236 193.912 37.2468 192.876C37.2671 192.609 37.2443 192.454 37.2244 192.19C37.0106 191.546 36.8172 189.185 36.4915 187.959C36.2305 188.955 36.0596 190.233 35.9028 191.269C35.9076 191.761 35.8675 191.862 35.5997 192.16C35.0668 192.369 34.5643 192.25 33.9769 192.191C34.2578 190.304 34.3192 189.892 35.0763 188.081Z" fill="#F3B850"/>
<path d="M38.7324 202.907C50.3239 213.995 73.6533 215.381 88.5475 211.441L92.0272 210.49C92.0576 211.947 91.8192 217.686 92.3523 218.476C91.2329 218.843 90.0102 219.273 88.8874 219.597C83.1561 220.857 77.1275 221.661 71.249 221.602C61.2289 221.5 46.1277 218.625 38.8704 211.185C39.2072 208.113 39.1254 206.006 38.7324 202.907Z" fill="#EDA31D"/>
<path d="M88.5479 211.441L92.0275 210.49C92.0579 211.947 91.8195 217.686 92.3526 218.476C91.2332 218.843 90.0105 219.273 88.8877 219.597C88.8618 217.419 88.9277 215.242 88.9014 213.066C88.8937 212.434 88.9726 211.849 88.5479 211.441Z" fill="#F3B850"/>
<path d="M105.774 202.467C105.904 204.264 105.577 208.917 105.906 210.451C102.348 214.168 97.2251 216.912 92.3525 218.476C91.8194 217.686 92.0579 211.947 92.0275 210.49C95.4375 209.777 101.944 206.087 104.481 203.644C105.116 203.169 105.237 203.054 105.774 202.467Z" fill="#EDA31D"/>
<path d="M38.7324 202.907C37.2157 200.788 36.0677 200.757 35.1157 197.888C37.9511 201.576 38.3877 202.692 42.4556 205.286C48.4989 209.142 55.2639 211.363 62.3226 212.275C70.6518 213.398 79.1144 213.024 87.3124 211.173C91.6884 210.188 95.1619 209.004 99.1612 206.985C100.273 206.423 103.815 203.611 104.481 203.644C101.944 206.087 95.4373 209.777 92.0272 210.49L88.5476 211.441C73.6533 215.381 50.3239 213.995 38.7324 202.907Z" fill="#FBF2BE"/>
<path d="M109.869 194.973C109.981 196.828 109.819 198.903 109.923 200.846C109.817 204.8 108.715 207.624 105.906 210.451C105.577 208.917 105.904 204.264 105.773 202.467C106.051 202.002 107.005 200.882 107.408 200.341C108.779 198.498 109.171 197.109 109.869 194.973Z" fill="#D18E09"/>
<path d="M33.9771 192.191C34.258 190.304 34.3194 189.892 35.0765 188.081C35.5834 189.151 35.1591 190.311 35.903 191.269C35.9078 191.761 35.8677 191.862 35.5998 192.16C35.067 192.369 34.5644 192.25 33.9771 192.191Z" fill="#F8CE81"/>
<path d="M39.6721 192.31C40.7594 192.216 42.2847 192.302 43.3603 192.515L43.2833 192.613C41.7037 192.712 39.993 192.655 38.4648 192.817C38.9655 192.34 38.9399 192.463 39.6721 192.31Z" fill="#FBF2BE"/>
<path d="M37.2246 192.19L39.6726 192.31C38.9404 192.463 38.9659 192.34 38.4653 192.817C38.0921 192.837 37.6131 192.878 37.2471 192.876C37.2674 192.609 37.2445 192.454 37.2246 192.19Z" fill="#FBF8DC"/>
<path d="M69.8177 177.825C78.3949 177.526 89.7438 179.375 96.3608 185.262C98.4464 187.117 100.142 189.672 100.231 192.531C100.458 195.347 98.9629 198.088 96.9677 200.003C90.8915 205.839 81.794 207.661 73.7184 207.95C67.8459 208.071 62.8768 207.666 57.1935 205.768C52.2442 204.116 47.2552 201.664 44.596 196.816C44.2166 196.125 43.4395 193.741 43.6944 193.011C43.9066 192.798 43.9739 192.736 44.1436 192.491C43.8709 192.398 43.9583 192.443 43.7178 192.251C43.6629 190.816 45.0764 187.778 46.1511 186.619C52.1312 180.166 61.4957 178.379 69.8177 177.825Z" fill="#875804"/>
<path d="M45.0024 194.78C45.0302 194.676 45.0584 194.573 45.0874 194.47C46.1753 190.578 48.3719 188.492 51.8054 186.403C52.9344 185.716 55.8376 184.375 56.9904 183.964C59.6307 183.025 67.8505 181.14 70.4536 181.873C72.9093 181.618 75.3886 181.708 77.8189 182.143C80.8736 181.832 86.8364 183.89 89.6966 185.304C93.6957 187.281 96.9542 189.342 98.7059 193.765C99.0525 194.64 98.8164 195.351 98.4028 196.149C95.7168 201.328 90.8961 203.698 85.5813 205.363C76.6046 208.153 66.9853 208.104 58.0377 205.221C52.7618 203.495 46.7552 200.522 45.0024 194.78Z" fill="#AF7708"/>
<path d="M70.4535 181.873C72.9092 181.618 75.3885 181.708 77.8189 182.143L78.0531 182.357L78.1677 182.426C81.1553 184.189 83.8428 184.432 83.4458 189.055C82.9814 189.778 82.3281 190.735 81.5613 191.157C80.5297 191.418 79.9047 192.002 78.8979 192.278C77.7908 192.626 76.7525 193.284 75.4826 193.438C75.3017 193.146 76.0105 191.186 76.0156 190.525C73.5897 191.745 71.2688 192.419 68.776 193.435C67.5176 192.308 65.7001 190.957 64.3361 189.826L63.807 189.439C63.3432 189.079 62.4297 188.409 62.2406 187.888L62.041 187.734C62.324 187.257 63.6514 186.89 64.2239 186.697C64.379 185.802 64.7909 184.469 64.9947 183.441C66.258 182.938 69.0312 182.25 70.4535 181.873Z" fill="#875804"/>
<path d="M78.0532 182.357L78.1678 182.426C81.1553 184.189 83.8428 184.432 83.4458 189.055C82.9815 189.778 82.3281 190.735 81.5613 191.157C80.5297 191.418 79.9048 192.003 78.898 192.278C77.7908 192.626 76.7525 193.284 75.4827 193.438C75.3018 193.146 76.0106 191.186 76.0156 190.525C76.7034 190.076 76.9453 189.882 77.5541 189.337C78.4135 188.21 77.339 186.837 76.4181 186.159C77.021 185.748 77.8026 183.156 78.0532 182.357Z" fill="#EDA31D"/>
<path d="M64.3359 189.826C67.5521 188.671 70.9664 186.87 74.4229 188.019C75.5161 188.383 76.3998 189.018 77.5539 189.337C76.9451 189.882 76.7032 190.076 76.0154 190.525C73.5895 191.746 71.2686 192.419 68.7758 193.436C67.5175 192.308 65.7 190.958 64.3359 189.826Z" fill="#AF7708"/>
<path d="M70.4533 181.873C72.9089 181.618 75.3883 181.708 77.8186 182.143L78.0528 182.357C77.8023 183.156 77.0207 185.748 76.4178 186.159C75.7843 185.81 75.1423 185.479 74.4924 185.162L74.5155 184.893C71.9504 183.461 66.6689 185.848 64.2236 186.697C64.3787 185.802 64.7906 184.469 64.9944 183.441C66.2577 182.938 69.031 182.25 70.4533 181.873Z" fill="#F3B850"/>
<path d="M64.2239 186.697C66.6691 185.848 71.9507 183.461 74.5158 184.893L74.4927 185.162C69.4549 184.074 66.9006 186.55 62.2406 187.889L62.041 187.734C62.324 187.257 63.6514 186.89 64.2239 186.697Z" fill="#FBF2BE"/>
<path d="M83.4458 189.055C84.3147 189.858 83.4408 192.64 82.5101 192.935C83.1149 193.09 84.4909 194.434 84.9442 194.924C85.147 195.593 85.0524 197.195 85.0304 197.941C82.6625 198.644 79.7754 199.587 77.7006 200.931C78.0786 201.23 78.5883 201.578 78.8373 201.972C77.2446 202.405 75.7653 203.08 74.2566 203.74C72.6688 202.358 71.5952 201.509 69.8281 200.388C69.8768 199.498 71.061 196.443 71.6414 195.739C73.2801 194.657 77.0464 193.874 78.568 192.833C78.5077 192.698 78.5345 192.788 78.5515 192.551L78.8979 192.278C79.9048 192.003 80.5297 191.418 81.5613 191.157C82.3281 190.735 82.9814 189.778 83.4458 189.055Z" fill="#EDA31D"/>
<path d="M84.9442 194.924C85.1471 195.593 85.0524 197.195 85.0304 197.941C82.6626 198.644 79.7754 199.587 77.7006 200.931C76.7984 200.203 75.9066 199.463 75.0254 198.71C78.6956 197.656 81.4274 196.3 84.9442 194.924Z" fill="#875804"/>
<path d="M83.446 189.055C84.3149 189.858 83.441 192.64 82.5103 192.935L75.5681 195.614C74.5809 195.996 73.6713 196.434 72.6576 196.754L71.6416 195.739C73.2802 194.657 77.0466 193.874 78.5682 192.833C78.5079 192.698 78.5346 192.788 78.5517 192.551L78.8981 192.278C79.9049 192.003 80.5299 191.418 81.5615 191.157C82.3283 190.735 82.9816 189.778 83.446 189.055Z" fill="#875804"/>
<path d="M78.8981 192.278C79.9049 192.003 80.5299 191.418 81.5614 191.157C80.7489 191.986 79.6378 192.364 78.5681 192.833C78.5078 192.698 78.5346 192.788 78.5517 192.551L78.8981 192.278Z" fill="#F8CE81"/>
<path d="M63.8069 189.439L64.336 189.826C65.7 190.957 67.5175 192.308 68.7759 193.436C71.2687 192.419 73.5896 191.745 76.0155 190.525C76.0104 191.186 75.3016 193.146 75.4825 193.438C76.7524 193.284 77.7907 192.626 78.8978 192.278L78.5514 192.551C78.5343 192.788 78.5075 192.698 78.5678 192.833C77.0463 193.874 73.2799 194.657 71.6413 195.739C71.0609 196.443 69.8766 199.498 69.828 200.388C69.4364 200.668 68.6835 200.963 68.466 201.207L68.5645 201.393C66.5304 201.928 66.2993 201.219 64.8986 199.838L66.4985 199.268C66.928 199.111 67.0516 199.095 67.2112 198.748C66.9962 198.285 66.6112 198.125 66.1422 197.768C65.2012 198.172 64.1944 198.298 63.3719 198.741C62.4286 198.083 61.903 197.652 61.0508 196.877C61.0988 196.621 61.1954 196.641 61.4928 196.437C62.2135 196.209 62.9142 195.978 63.5366 195.546C63.6889 195.534 63.5935 195.553 63.8057 195.433C63.6106 195.049 62.9084 194.515 62.5495 194.207C62.993 193.333 63.329 190.64 63.8069 189.439Z" fill="#F3B850"/>
<path d="M61.051 196.877C61.9032 197.652 62.4289 198.083 63.3722 198.741C64.1946 198.298 65.2014 198.172 66.1424 197.768C66.6115 198.125 66.9964 198.285 67.2115 198.748C67.0518 199.095 66.9282 199.111 66.4987 199.268L64.8988 199.838C66.2995 201.219 66.5306 201.928 68.5647 201.393L68.4662 201.207C68.6837 200.963 69.4366 200.668 69.8282 200.388C71.5953 201.509 72.6689 202.358 74.2567 203.74C75.7654 203.08 77.2447 202.405 78.8374 201.972L78.6727 202.331C79.01 202.729 78.9972 204.258 79.0333 204.885C78.0452 205.464 75.4344 206.465 74.2146 206.994C72.6554 205.858 71.6392 204.837 69.9021 203.738C67.3453 205.119 66.9076 204.918 64.9941 202.97L64.9627 201.307L63.168 201.679C62.4295 201.063 61.6829 200.456 60.9285 199.861C60.918 198.956 60.8779 197.743 61.051 196.877Z" fill="#875804"/>
<path d="M69.8283 200.388C71.5954 201.509 72.669 202.358 74.2568 203.74C75.7655 203.08 77.2448 202.405 78.8375 201.972L78.6728 202.331C77.3008 202.95 75.7025 203.53 74.2617 204.16C72.7432 202.888 71.6504 201.88 69.9572 200.806C69.4065 201.08 69.1575 201.212 68.5648 201.393L68.4663 201.207C68.6838 200.963 69.4367 200.668 69.8283 200.388Z" fill="#FBF2BE"/>
<path d="M54.1953 187.722C55.5646 186.982 57.7935 186.23 59.2882 185.686C61.2117 184.985 63.1254 184.277 64.995 183.441C64.7912 184.469 64.3793 185.802 64.2243 186.697C63.6518 186.89 62.3244 187.257 62.0414 187.734L62.241 187.888C62.4301 188.409 63.3436 189.079 63.8073 189.439C63.3295 190.64 62.9934 193.333 62.5499 194.207C61.2135 193.255 55.0998 187.994 54.1953 187.722Z" fill="#EDA31D"/>
<path d="M54.1948 187.722C55.0993 187.994 61.213 193.255 62.5494 194.207C62.9083 194.515 63.6105 195.049 63.8056 195.433C63.5935 195.553 63.6889 195.534 63.5365 195.546C62.9141 195.978 62.2135 196.209 61.4928 196.437C61.0715 195.988 59.7948 195.269 59.2464 194.836C57.6716 193.593 55.284 191.962 53.9291 190.559C53.9148 189.767 53.8232 188.542 54.146 187.85L54.1948 187.722Z" fill="#875804"/>
<path d="M54.1952 187.722C55.0997 187.994 61.2135 193.255 62.5499 194.207C62.9088 194.515 63.611 195.049 63.8061 195.433C63.5939 195.553 63.6893 195.534 63.537 195.546C63.1652 195.306 60.4429 193.03 59.9306 192.569C58.4669 191.252 55.2886 189.104 54.1465 187.85L54.1952 187.722Z" fill="#FBF2BE"/>
<path d="M40.4901 193.463C40.965 193.946 40.826 194.787 40.8373 195.554C42.0122 195.625 43.1867 195.705 44.3606 195.791C43.1293 196.024 42.1019 196.016 40.8567 196.052C40.8324 196.98 40.8127 197.395 40.6527 198.303C40.2896 197.54 40.2594 196.891 40.1945 196.071C38.7694 196.065 38.0028 196.102 36.6284 195.745C37.7436 195.637 39.1005 195.612 40.2359 195.56C40.3015 194.844 40.3501 194.168 40.4901 193.463Z" fill="#FBF2BE"/>
<path d="M35.1765 67.512C35.6197 67.5647 35.4058 67.5978 35.8293 67.3545C36.1428 70.3738 37.649 71.3603 40.3697 72.0764C36.0606 72.9398 36.214 75.1178 35.2593 78.7041C35.1249 75.0034 35.1455 72.3943 30.5713 72.1281L30.9761 71.9899C33.5125 71.1406 34.6196 70.1897 35.1765 67.512Z" fill="#EDA31D"/>
<path d="M195.958 77.3054C197.457 78.5744 194.252 82.1795 200.742 83.9582C196.331 84.3554 196.869 86.3507 195.988 89.8744C195.483 89.3415 195.915 86.6619 195.153 85.5926C194.167 84.2069 192.945 84.0746 191.408 83.7523C195.295 82.5875 195.577 80.9273 195.958 77.3054Z" fill="#EDA31D"/>
<path d="M147.044 53.3152L147.385 53.434C147.804 56.374 148.007 56.9615 150.923 57.9757C147.442 58.6666 147.716 60.4661 147.206 63.4438C146.568 59.3967 147.116 58.5677 142.774 57.8499C145.802 57.2588 146.727 56.4414 147.044 53.3152Z" fill="#EDA31D"/>
<path d="M72.1059 14.2808C73.0084 17.0704 71.865 17.7728 75.3051 19.1047C74.386 19.4589 73.9917 19.6765 73.1301 20.1735C72.4474 21.2479 72.1155 23.0012 72.0838 23.0445C72.0371 21.8317 71.9537 21.3614 71.4983 20.2405C70.5686 19.5626 69.7252 19.2507 68.6211 19.0232C71.5051 17.9488 71.8538 17.221 72.1059 14.2808Z" fill="#485D68"/>
<path d="M207.778 59.4841C208.221 61.9221 208.005 62.46 210.399 63.5241C208.811 64.1835 207.894 64.8641 207.906 66.774L207.673 66.1668C207.691 64.1011 206.423 63.8125 204.687 63.2924C207.322 62.8213 207.612 62.0073 207.778 59.4841Z" fill="#4A5B65"/>
<path d="M22.78 57.1581C23.0339 57.5707 23.0292 58.6812 23.299 59.0791C23.3724 59.1873 24.1411 59.6329 24.3899 59.8257C23.0959 60.7182 22.9126 60.9105 22.8083 62.6089L22.8004 62.76C22.578 62.0092 22.6041 61.6867 22.5993 60.9218C22.1015 60.3799 21.7443 60.2044 21.124 59.8327C21.1462 59.5784 22.1009 58.8757 22.4369 58.5666C22.5629 58.1282 22.6727 57.6081 22.78 57.1581Z" fill="#4A5B65"/>
<path d="M37.1385 123.792C37.4878 124.547 37.876 124.93 38.4212 125.556C37.6002 126.205 37.5079 126.395 37.1301 127.354C36.8428 126.352 36.6774 126.224 35.8896 125.552C36.4363 124.97 36.9057 124.551 37.1385 123.792Z" fill="#EDA31D"/>
<path d="M155.991 114.084C156.48 114.583 155.846 114.906 157.371 115.912C156.415 116.554 156.284 116.79 156.013 117.884C155.482 116.589 155.974 116.587 154.492 115.86L155.595 115.155L155.991 114.084Z" fill="#4A5B65"/>
<path d="M185.67 16.4319C185.659 16.4201 186.56 18.2115 186.583 18.2966C186.114 18.9981 185.974 19.24 185.741 20.0547C185.416 18.9706 185.248 18.8665 184.428 18.1287C185.159 17.5209 185.368 17.326 185.67 16.4319Z" fill="#EDA31D"/>
<path d="M35.1763 67.512C35.2213 66.8218 35.2542 65.9906 35.3497 65.3204C35.4949 65.9029 35.7415 66.7919 35.8291 67.3545C35.4056 67.5979 35.6195 67.5647 35.1763 67.512Z" fill="#EDA31D"/>
<path d="M147.075 51.2475C147.23 52.0717 147.315 52.6011 147.385 53.434L147.044 53.3152C147.009 52.5231 147.027 52.0387 147.075 51.2475Z" fill="#F8CE81"/>
<path d="M207.673 66.1668L207.906 66.774C207.942 67.2171 207.964 67.2883 207.85 67.7334C207.637 67.0839 207.673 66.8415 207.673 66.1668Z" fill="#C4C8CF"/>
</svg>
