<svg width="220" height="220" viewBox="0 0 220 220" fill="none" xmlns="http://www.w3.org/2000/svg">
<g clip-path="url(#clip0_1387_34447)">
<path d="M181.721 209.306V189.996C181.721 171.713 161.391 159.653 143.102 159.653H76.8981C58.6204 159.653 38.2793 171.713 38.2793 189.996V209.306H181.721Z" fill="#E1E8ED"/>
<path d="M176.204 52.0718C176.204 74.9231 146.567 93.4491 110.001 93.4491C73.4396 93.4491 43.7969 74.9231 43.7969 52.0718C43.7969 29.2205 73.4396 10.6945 110.001 10.6945C146.567 10.6945 176.204 29.2205 176.204 52.0718Z" fill="#292F33"/>
<path d="M109.691 38.6598C132.343 38.6598 170.091 49.9861 170.091 99.0596C170.091 148.133 170.091 159.459 158.764 159.459C147.432 159.459 132.338 148.133 109.685 148.133C87.038 148.133 72.258 159.459 60.6117 159.459C47.9943 159.459 49.2853 114.16 49.2853 99.0596C49.2963 49.9861 87.0435 38.6598 109.691 38.6598Z" fill="#292F33"/>
<path d="M89.7432 159.763C97.831 165.638 106.095 170.686 110.001 170.686C113.908 170.686 122.106 165.638 130.194 159.763V142.081H89.7432V159.763Z" fill="#F7DECE"/>
<path d="M89.7051 149.607C95.3489 155.979 102.344 157.705 109.947 157.705C117.555 157.705 124.55 155.984 130.194 149.607V133.409H89.7051V149.607Z" fill="#EEC2AD"/>
<path d="M64.3994 97.405C64.3994 65.2189 84.6798 39.1292 109.699 39.1292C134.713 39.1292 154.999 65.2189 154.999 97.405C154.999 129.585 134.713 154.153 109.699 154.153C84.6798 154.153 64.3994 129.591 64.3994 97.405Z" fill="#F7DECE"/>
<path d="M109.693 140.581C100.832 140.581 96.1982 136.2 95.7017 135.698C94.2231 134.225 94.2231 131.836 95.7017 130.363C97.1637 128.901 99.5194 128.89 100.998 130.324C101.191 130.501 104.043 133.033 109.693 133.033C115.425 133.033 118.283 130.424 118.393 130.319C119.899 128.907 122.271 128.951 123.706 130.429C125.14 131.913 125.14 134.242 123.684 135.698C123.193 136.2 118.559 140.581 109.693 140.581Z" fill="#DF1F32"/>
<path d="M53.3137 115.517C53.1978 110 53.0709 114.281 53.0709 112.951C53.0709 94.0721 64.3973 115.677 64.3973 102.232C64.3973 88.7758 71.9445 87.4297 79.4917 79.8825C83.2708 76.1034 90.8181 68.7051 90.8181 68.7051C90.8181 68.7051 109.692 80.1087 124.792 80.1087C139.886 80.1087 154.992 87.6945 154.992 102.794C154.992 117.894 166.318 94.0556 166.318 112.929C166.318 114.275 166.191 110 166.097 115.517H170.058C170.097 104.483 170.097 104.902 170.097 97.8513C170.097 48.7778 132.344 30.5056 109.697 30.5056C87.05 30.5056 49.3028 48.4743 49.3028 97.5478C49.3028 101.923 49.1925 104.483 49.347 115.517H53.3137Z" fill="#292F33"/>
<path d="M91.2855 109.371C88.7201 109.371 86.6182 107.269 86.6182 104.704V100.042C86.6182 97.4765 88.7201 95.3745 91.2855 95.3745C93.8509 95.3745 95.9529 97.4765 95.9529 100.042V104.704C95.9584 107.269 93.8564 109.371 91.2855 109.371ZM128.608 109.371C126.042 109.371 123.941 107.269 123.941 104.704V100.042C123.941 97.4765 126.042 95.3745 128.608 95.3745C131.173 95.3745 133.275 97.4765 133.275 100.042V104.704C133.275 107.269 131.173 109.371 128.608 109.371Z" fill="#662113"/>
<path d="M114.616 123.792H105.287C104.001 123.792 102.953 122.744 102.953 121.459V120.615C102.953 119.329 104.001 118.275 105.287 118.275H114.616C115.896 118.275 116.95 119.324 116.95 120.615V121.459C116.95 122.744 115.896 123.792 114.616 123.792Z" fill="#C1694F"/>
<path d="M57.5889 60.3472C57.5889 54.2509 81.0526 49.3132 110 49.3132C138.948 49.3132 162.411 54.2509 162.411 60.3472C162.411 66.4434 138.948 71.3811 110 71.3811C81.0526 71.3811 57.5889 66.4434 57.5889 60.3472Z" fill="#292F33"/>
<path d="M162.411 54.8303H57.5889V35.8188C57.5889 35.8188 79.4251 16.2114 110 16.2114C140.575 16.2114 162.411 35.8188 162.411 35.8188V54.8303Z" fill="#66757F"/>
<path d="M93.4492 38.2796C93.4492 22.8762 100.859 32.7626 110 32.7626C119.142 32.7626 126.551 22.8762 126.551 38.2796C126.551 47.4212 119.142 49.3135 110 49.3135C100.859 49.3135 93.4492 47.4212 93.4492 38.2796Z" fill="#FFAC33"/>
<path d="M98.9669 38.2793C98.9669 32.1831 103.905 27.2454 110.001 27.2454C116.097 27.2454 121.035 32.1831 121.035 38.2793C121.035 44.3756 116.097 49.3133 110.001 49.3133C103.905 49.3133 98.9669 44.3756 98.9669 38.2793ZM162.412 60.3472H57.5895C56.0724 60.3472 54.8311 59.1059 54.8311 57.5887C54.8311 56.0716 56.0724 54.8302 57.5895 54.8302H162.412C163.929 54.8302 165.171 56.0716 165.171 57.5887C165.171 59.1059 163.929 60.3472 162.412 60.3472Z" fill="#FDCB58"/>
<path d="M74.5707 170.995L41.8771 176.17C40.3765 176.408 38.9586 175.376 38.7214 173.875L37.8552 168.424C37.618 166.929 38.6497 165.512 40.1503 165.274L72.8439 160.099C74.3445 159.862 75.7624 160.899 75.9996 162.389L76.8658 167.84C77.103 169.335 76.0713 170.753 74.5707 170.995Z" fill="#292F33"/>
<path d="M42.8809 164.839L48.3371 163.973L50.0584 174.863L44.6022 175.73L42.8809 164.839ZM53.7659 163.112L59.2111 162.252L60.9379 173.148L55.4872 174.014L53.7659 163.112ZM64.6784 161.385L70.1292 160.53L71.8395 171.432L66.3887 172.287L64.6784 161.385Z" fill="#FDCB58"/>
<path d="M178.125 176.17L145.432 170.99C143.931 170.753 142.899 169.335 143.136 167.834L144.003 162.395C144.24 160.894 145.658 159.862 147.158 160.099L179.852 165.274C181.347 165.512 182.384 166.93 182.147 168.43L181.281 173.875C181.044 175.376 179.626 176.408 178.125 176.17Z" fill="#292F33"/>
<path d="M148.155 171.432L149.877 160.536L155.327 161.396L153.601 172.292L148.155 171.432ZM159.057 173.153L160.767 162.251L166.223 163.107L164.513 174.008L159.057 173.153ZM169.953 174.891L171.674 163.989L177.136 164.85L175.409 175.751L169.953 174.891Z" fill="#FDCB58"/>
<path d="M110.004 181.048C110.004 181.048 128.657 194.807 132.585 196.374C133.445 196.721 130.566 176.204 130.566 176.204H89.4421C89.4421 176.204 86.5512 197.063 88.1621 196.203C91.6875 194.31 110.004 181.048 110.004 181.048Z" fill="#99AAB5"/>
<path d="M117.237 195.171C117.237 195.171 119.306 191.723 120.167 190.173C121.176 188.358 122.666 181.511 122.666 181.511L110.595 176.204C110.595 176.165 109.712 176.237 109.712 176.237L108.697 176.468L107.748 176.811C106.545 177.197 108.267 176.855 108.267 176.893L97.376 181.511C97.376 181.511 98.9594 188.358 99.969 190.173C100.83 191.723 102.882 195.171 102.882 195.171C102.882 195.171 98.7277 198.272 97.1719 209.311H122.925C121.375 200.511 117.237 195.171 117.237 195.171Z" fill="#292F33"/>
<path d="M84.0283 157.584C87.1509 160.706 110.008 176.248 110.008 176.248C110.008 176.248 98.2786 183.1 87.4764 195.745C86.3896 197.013 78.9692 170.229 78.743 164.248C78.6768 162.576 82.5332 156.089 84.0283 157.584ZM136.098 157.584C132.975 160.706 110.118 176.248 110.118 176.248C110.118 176.248 121.847 183.1 132.649 195.745C133.731 197.013 141.157 170.229 141.383 164.248C141.449 162.576 137.593 156.089 136.098 157.584Z" fill="#F5F8FA"/>
<path d="M110.09 179.999C112.242 179.878 118.603 184.253 117.935 186.895C115.392 196.975 113.251 194.569 110.261 194.569C106.89 194.569 104.943 197.179 102.592 187.331C102.074 185.191 106.99 180.17 110.09 179.999ZM121.295 209.305H99.0947C99.0947 209.305 102.085 197.35 110.233 197.35C118.382 197.35 121.295 209.305 121.295 209.305Z" fill="#323A3F"/>
</g>
<defs>
<clipPath id="clip0_1387_34447">
<rect width="198.611" height="198.611" fill="white" transform="translate(10.6943 10.6945)"/>
</clipPath>
</defs>
</svg>
