<svg width="220" height="220" viewBox="0 0 220 220" fill="none" xmlns="http://www.w3.org/2000/svg">
<g clip-path="url(#clip0_1387_34510)">
<path d="M209.305 209.306V198.272C209.305 179.988 194.487 165.17 176.204 165.17H87.9319C69.6542 165.17 54.8301 179.988 54.8301 198.272V209.306H209.305Z" fill="#CCD6DD"/>
<path d="M108.013 165.38C108.013 181.081 156.121 181.721 156.121 165.38V144.697H108.013V165.38Z" fill="#F7DECE"/>
<path d="M107.969 153.986C114.678 161.567 122.998 163.619 132.045 163.619C141.088 163.619 149.402 161.561 156.116 153.986V134.727H107.964L107.969 153.986Z" fill="#EEC2AD"/>
<path d="M95.8981 98.6129C95.8981 106.601 91.8487 113.078 86.8558 113.078C81.8629 113.078 77.8135 106.601 77.8135 98.6129C77.8135 90.6243 81.8629 84.1418 86.8558 84.1418C91.8487 84.1363 95.8981 90.6188 95.8981 98.6129ZM186.316 98.6129C186.316 106.601 182.272 113.078 177.274 113.078C172.281 113.078 168.231 106.601 168.231 98.6129C168.231 90.6243 172.275 84.1418 177.274 84.1418C182.272 84.1363 186.316 90.6188 186.316 98.6129Z" fill="#F7DECE"/>
<path d="M85.0439 104.256C85.0439 73.4219 106.097 48.4189 132.065 48.4189C158.034 48.4189 179.081 73.4219 179.081 104.256C179.081 135.091 158.034 160.094 132.065 160.094C106.102 160.094 85.0439 135.096 85.0439 104.256Z" fill="#F7DECE"/>
<path d="M132.069 142.009C116.876 142.009 112.208 138.12 111.43 137.331C110.018 135.918 110.018 133.629 111.43 132.216C112.799 130.848 114.994 130.81 116.407 132.089C116.694 132.294 120.384 134.776 132.069 134.776C144.207 134.776 147.715 132.101 147.749 132.073C149.161 130.666 151.373 130.732 152.786 132.156C154.198 133.568 154.121 135.924 152.708 137.331C151.93 138.12 147.263 142.009 132.069 142.009Z" fill="#C1694F"/>
<path d="M132.07 29.8934C163.23 29.8934 182.705 52.8882 182.705 72.0486C182.705 91.2091 178.81 98.8777 174.915 91.2091L167.125 75.8829C167.125 75.8829 143.76 75.8829 135.97 68.2143C135.97 68.2143 147.655 91.2091 124.285 68.2143C124.285 68.2143 128.18 83.546 104.81 64.3856C104.81 64.3856 93.1254 72.0486 89.2304 91.2091C88.1491 96.5275 81.4404 91.2091 81.4404 72.0486C81.4349 52.8882 97.0149 29.8934 132.07 29.8934Z" fill="#292F33"/>
<path d="M109.999 104.483C106.965 104.483 104.482 102 104.482 98.9661V93.4491C104.482 90.4148 106.965 87.9321 109.999 87.9321C113.034 87.9321 115.516 90.4148 115.516 93.4491V98.9661C115.516 102 113.034 104.483 109.999 104.483ZM154.135 104.483C151.101 104.483 148.618 102 148.618 98.9661V93.4491C148.618 90.4148 151.101 87.9321 154.135 87.9321C157.17 87.9321 159.652 90.4148 159.652 93.4491V98.9661C159.652 102 157.17 104.483 154.135 104.483Z" fill="#662113"/>
<path d="M136.205 119.655H127.93C125.651 119.655 123.792 117.796 123.792 115.517C123.792 113.238 125.651 111.379 127.93 111.379H136.205C138.484 111.379 140.343 113.238 140.343 115.517C140.343 117.796 138.484 119.655 136.205 119.655Z" fill="#C1694F"/>
<path d="M82.415 165.17H98.966V209.306H82.415V165.17ZM165.17 165.17H181.721V209.306H165.17V165.17Z" fill="#226699"/>
<path d="M176.203 181.721H87.9318L83.1045 209.306H181.72L176.203 181.721Z" fill="#226699"/>
<path d="M182.028 63.1057C182.028 70.3881 159.453 63.1057 132.375 63.1057C105.293 63.1057 82.7227 70.3881 82.7227 63.1057C82.7227 43.537 88.2396 16.2114 132.375 16.2114C170.994 16.2114 182.028 43.537 182.028 63.1057Z" fill="#3B88C3"/>
<path d="M83.0292 63.1057C83.0292 63.1057 80.2707 79.6566 91.3046 79.6566C96.8216 79.6566 105.097 68.6227 132.682 68.6227C160.267 68.6227 168.542 79.6566 174.059 79.6566C185.093 79.6566 182.335 63.1057 182.335 63.1057C182.335 63.1057 174.059 65.8642 132.682 65.8642C91.3046 65.8642 83.0292 63.1057 83.0292 63.1057Z" fill="#226699"/>
<path d="M82.7215 60.3472C82.7215 60.3472 79.9631 76.8981 90.997 76.8981C96.514 76.8981 104.789 65.8641 132.374 65.8641C159.959 65.8641 168.235 76.8981 173.752 76.8981C184.786 76.8981 182.027 60.3472 182.027 60.3472C182.027 60.3472 173.752 63.1057 132.374 63.1057C90.997 63.1057 82.7215 60.3472 82.7215 60.3472Z" fill="#55ACEE"/>
<path d="M124.1 18.9699C124.1 18.9699 124.1 10.6945 132.375 10.6945C140.651 10.6945 140.651 18.9699 140.651 18.9699H124.1Z" fill="#226699"/>
<path d="M163.79 203.789C170.646 203.789 176.203 200.701 176.203 196.892C176.203 193.084 170.646 189.996 163.79 189.996C156.935 189.996 151.377 193.084 151.377 196.892C151.377 200.701 156.935 203.789 163.79 203.789Z" fill="#F5F8FA"/>
<path d="M49.258 118.17L49.3242 142.495C49.3242 145.546 43.7741 148.028 36.9165 148.039C30.0645 148.056 24.5033 145.595 24.4978 142.55L24.4427 118.231C16.2775 122.683 10.6833 131.246 10.6944 141.204C10.733 155.669 22.4841 167.387 36.9607 167.354C51.4372 167.316 63.1442 155.553 63.1111 141.082C63.0836 131.13 57.4507 122.59 49.258 118.17Z" fill="#66757F"/>
<path d="M28.625 161.838H45.1759V209.306H28.625V161.838Z" fill="#66757F"/>
</g>
<defs>
<clipPath id="clip0_1387_34510">
<rect width="198.611" height="198.611" fill="white" transform="translate(10.6943 10.6945)"/>
</clipPath>
</defs>
</svg>
