<svg width="220" height="220" viewBox="0 0 220 220" fill="none" xmlns="http://www.w3.org/2000/svg">
<g clip-path="url(#clip0_1387_34399)">
<path d="M187.578 209.306V187.238C187.578 168.954 172.765 154.136 154.476 154.136H66.2044C47.9267 154.136 33.1025 168.954 33.1025 187.238V209.306H187.578Z" fill="#3B88C3"/>
<path d="M88.2725 154.136L110.34 181.726L132.408 154.136V132.068H88.2725V154.136Z" fill="#F7DECE"/>
<path d="M88.2725 143.102C94.9811 150.682 101.265 152.586 110.318 152.586C119.361 152.586 125.694 150.677 132.408 143.102V121.034H88.2725V143.102Z" fill="#EEC2AD"/>
<path d="M74.1706 87.5789C74.1706 95.5675 70.1211 102.044 65.1283 102.044C60.1354 102.044 56.0859 95.5675 56.0859 87.5789C56.0859 79.5904 60.1354 73.1079 65.1283 73.1079C70.1211 73.1024 74.1706 79.5848 74.1706 87.5789ZM164.588 87.5789C164.588 95.5675 160.544 102.044 155.546 102.044C150.553 102.044 146.504 95.5675 146.504 87.5789C146.504 79.5904 150.548 73.1079 155.546 73.1079C160.544 73.1024 164.588 79.5848 164.588 87.5789Z" fill="#F7DECE"/>
<path d="M63.3164 93.2283C63.3164 62.3939 84.3692 37.391 110.338 37.391C136.306 37.391 157.353 62.3939 157.353 93.2283C157.353 124.063 136.306 149.066 110.338 149.066C84.3692 149.06 63.3164 124.063 63.3164 93.2283Z" fill="#F7DECE"/>
<path d="M110.342 130.976C95.1481 130.976 90.4807 127.086 89.7028 126.297C88.2905 124.885 88.2905 122.596 89.7028 121.183C91.071 119.815 93.2668 119.776 94.6791 121.056C94.966 121.26 98.6569 123.743 110.342 123.743C122.479 123.743 125.988 121.067 126.021 121.04C127.433 119.633 129.646 119.699 131.058 121.122C132.47 122.535 132.393 124.891 130.981 126.297C130.203 127.086 125.536 130.976 110.342 130.976Z" fill="#C1694F"/>
<path d="M110.341 18.8594C141.501 18.8594 160.976 41.8542 160.976 61.0146C160.976 80.1751 157.081 87.8437 153.186 80.1751L145.396 64.8489C145.396 64.8489 122.032 64.8489 114.242 57.1803C114.242 57.1803 125.927 80.1751 102.557 57.1803C102.557 57.1803 106.452 72.512 83.0818 53.3516C83.0818 53.3516 71.3969 61.0146 67.5019 80.1751C66.4206 85.4935 59.7119 80.1751 59.7119 61.0146C59.7064 41.8542 75.2863 18.8594 110.341 18.8594Z" fill="#292F33"/>
<path d="M88.2719 93.4491C85.2375 93.4491 82.7549 90.9665 82.7549 87.9321V82.4152C82.7549 79.3808 85.2375 76.8982 88.2719 76.8982C91.3062 76.8982 93.7888 79.3808 93.7888 82.4152V87.9321C93.7888 90.9665 91.3062 93.4491 88.2719 93.4491ZM132.408 93.4491C129.373 93.4491 126.891 90.9665 126.891 87.9321V82.4152C126.891 79.3808 129.373 76.8982 132.408 76.8982C135.442 76.8982 137.925 79.3808 137.925 82.4152V87.9321C137.925 90.9665 135.442 93.4491 132.408 93.4491Z" fill="#662113"/>
<path d="M114.478 108.621H106.202C103.924 108.621 102.064 106.762 102.064 104.483C102.064 102.204 103.924 100.345 106.202 100.345H114.478C116.756 100.345 118.615 102.204 118.615 104.483C118.615 106.762 116.756 108.621 114.478 108.621Z" fill="#C1694F"/>
<path d="M66.2039 189.996H55.1699C55.1699 167.41 65.5253 143.102 88.2718 143.102V154.136C70.8161 154.136 66.2039 177.594 66.2039 189.996ZM159.992 167.928H148.959C148.959 165.661 146.084 154.136 132.408 154.136V143.102C151.899 143.102 159.992 159.272 159.992 167.928Z" fill="#292F33"/>
<path d="M60.6876 206.547C69.8285 206.547 77.2386 199.137 77.2386 189.996C77.2386 180.855 69.8285 173.445 60.6876 173.445C51.5468 173.445 44.1367 180.855 44.1367 189.996C44.1367 199.137 51.5468 206.547 60.6876 206.547Z" fill="#CCD6DD"/>
<path d="M60.6863 201.03C66.7802 201.03 71.7202 196.09 71.7202 189.996C71.7202 183.902 66.7802 178.962 60.6863 178.962C54.5924 178.962 49.6523 183.902 49.6523 189.996C49.6523 196.09 54.5924 201.03 60.6863 201.03Z" fill="#F5F8FA"/>
<path d="M176.544 198.272H165.51C165.51 193.665 164.914 170.687 153.097 170.687C141.279 170.687 140.683 193.665 140.683 198.272H129.649C129.649 174.091 138.416 159.653 153.097 159.653C167.777 159.653 176.544 174.091 176.544 198.272Z" fill="#292F33"/>
<path d="M135.166 203.789C138.213 203.789 140.683 201.319 140.683 198.272C140.683 195.225 138.213 192.755 135.166 192.755C132.119 192.755 129.649 195.225 129.649 198.272C129.649 201.319 132.119 203.789 135.166 203.789Z" fill="#CCD6DD"/>
<path d="M171.027 203.789C174.074 203.789 176.544 201.319 176.544 198.272C176.544 195.225 174.074 192.755 171.027 192.755C167.98 192.755 165.51 195.225 165.51 198.272C165.51 201.319 167.98 203.789 171.027 203.789Z" fill="#CCD6DD"/>
</g>
<defs>
<clipPath id="clip0_1387_34399">
<rect width="198.611" height="198.611" fill="white" transform="translate(11.0342 10.6945)"/>
</clipPath>
</defs>
</svg>
