<svg width="220" height="220" viewBox="0 0 220 220" fill="none" xmlns="http://www.w3.org/2000/svg">
<g clip-path="url(#clip0_1387_34708)">
<path d="M187.237 209.305V198.272C187.237 179.994 172.413 165.17 154.135 165.17H65.8636C47.5858 165.17 32.7617 179.994 32.7617 198.272V209.305H187.237Z" fill="#5D80CE"/>
<path d="M33.2582 192.755C32.9548 194.553 32.7617 196.39 32.7617 198.272V209.306H187.237V198.272C187.237 196.39 187.044 194.553 186.74 192.755H33.2582Z" fill="#5D80CE"/>
<path d="M187.237 86.0339C187.237 105.84 152.657 121.894 109.999 121.894C67.3421 121.894 32.7617 105.84 32.7617 86.0339C32.7617 66.228 67.3421 72.2415 109.999 72.2415C152.657 72.2415 187.237 66.228 187.237 86.0339Z" fill="#763D05"/>
<path d="M87.9326 159.653H132.068C132.068 159.653 126.452 198.271 110.001 198.271C93.5489 198.271 87.9326 159.653 87.9326 159.653Z" fill="#292F33"/>
<path d="M85.9434 165.727C95.565 172.717 101.656 176.551 109.997 176.551C118.334 176.551 124.43 172.712 134.051 165.727V144.702H85.9434V165.727Z" fill="#F7DECE"/>
<path d="M85.9004 153.987C92.609 161.567 100.929 163.62 109.976 163.62C119.019 163.62 127.338 161.567 134.053 153.987V134.727H85.9004V153.987Z" fill="#EEC2AD"/>
<path d="M127.392 28.9002C116.771 25.4632 94.9738 26.3624 88.7286 34.4834C72.4866 34.7979 55.1688 50.6592 52.6696 70.0293C50.198 89.2008 53.9661 96.919 55.9301 111.329C58.1535 127.66 67.3337 132.884 74.6713 135.069C85.2308 149.021 96.4578 148.426 115.309 148.426C152.119 148.426 166.457 123.831 168.007 82.0011C168.94 56.7058 154.094 37.5398 127.392 28.9002Z" fill="#292F33"/>
<path d="M151.634 83.7554C148.07 78.8232 143.513 74.851 133.516 73.4497C137.268 75.1654 140.859 81.1017 141.328 84.3843C141.797 87.6669 142.266 90.3206 139.298 87.038C127.409 73.8965 114.461 79.0715 101.634 71.0443C92.674 65.439 89.9431 59.2324 89.9431 59.2324C89.9431 59.2324 88.8507 67.5079 75.2624 75.9433C71.3233 78.3874 66.6228 83.8326 64.0188 91.8764C62.1431 97.6582 62.7279 102.811 62.7279 111.616C62.7279 137.325 83.9186 158.941 110.052 158.941C136.186 158.941 157.377 137.132 157.377 111.616C157.366 95.6279 155.694 89.3827 151.634 83.7554Z" fill="#F7DECE"/>
<path d="M115.302 124.769H104.787C103.336 124.769 102.155 123.594 102.155 122.137C102.155 120.681 103.33 119.506 104.787 119.506H115.302C116.753 119.506 117.934 120.681 117.934 122.137C117.934 123.594 116.759 124.769 115.302 124.769Z" fill="#C1694F"/>
<path d="M89.0077 106.365C86.1057 106.365 83.75 104.009 83.75 101.107V95.8492C83.75 92.9473 86.1057 90.5916 89.0077 90.5916C91.9096 90.5916 94.2654 92.9473 94.2654 95.8492V101.107C94.2654 104.009 91.9151 106.365 89.0077 106.365ZM131.08 106.365C128.178 106.365 125.822 104.009 125.822 101.107V95.8492C125.822 92.9473 128.178 90.5916 131.08 90.5916C133.982 90.5916 136.338 92.9473 136.338 95.8492V101.107C136.338 104.009 133.982 106.365 131.08 106.365Z" fill="#662113"/>
<path d="M110.739 146.727C95.5455 146.727 90.8782 142.837 90.1003 142.048C88.6879 140.636 88.6879 138.346 90.1003 136.934C91.4685 135.566 93.6642 135.527 95.0766 136.807C95.3635 137.011 99.0543 139.494 110.739 139.494C122.877 139.494 126.385 136.818 126.419 136.79C127.831 135.384 130.043 135.45 131.456 136.873C132.868 138.286 132.791 140.641 131.378 142.054C130.595 142.837 125.933 146.727 110.739 146.727Z" fill="#C1694F"/>
<path d="M159.653 209.305V159.653C159.653 156.618 157.171 154.136 154.136 154.136H148.619C145.585 154.136 143.102 156.618 143.102 159.653V209.305H159.653ZM76.8986 209.305V159.653C76.8986 156.618 74.4159 154.136 71.3816 154.136H65.8646C62.8303 154.136 60.3477 156.618 60.3477 159.653V209.305H76.8986Z" fill="#292F33"/>
<path d="M169.877 70.5921C165.133 69.6377 163.847 48.3698 152.863 32.7512C142.519 18.0595 122.713 10.6943 109.985 10.6943C97.2573 10.6943 77.4513 18.0595 67.1125 32.7512C56.1227 48.3698 54.8428 69.6377 50.0982 70.5921C31.7984 74.2609 32.659 83.7556 32.7749 85.9404C33.4535 83.3695 35.1913 77.2346 54.3021 76.8925C73.0819 76.5615 90.6038 81.3392 109.99 81.3392C129.377 81.3392 146.899 76.5615 165.679 76.8925C184.79 77.2291 186.522 83.3639 187.206 85.9404C187.316 83.7556 188.177 74.2609 169.877 70.5921Z" fill="#AD5A07"/>
<path d="M110 10.6943C98.4474 10.6943 82.415 30.5168 82.415 38.5771V60.3471C82.415 60.3471 83.0164 65.8641 87.4907 65.8641H132.509C136.983 65.8641 137.585 60.3471 137.585 60.3471V38.5771C137.585 30.5168 121.552 10.6943 110 10.6943Z" fill="#C46608"/>
<path d="M142.457 148.619C140.218 146.534 128.808 150.627 125.802 154.136C122.795 157.645 122.282 163.719 120.23 170.687C118.475 176.64 111.557 192.523 109.576 197.03C107.601 192.523 100.722 176.64 98.9671 170.687C96.9148 163.719 96.4569 157.645 93.4502 154.136C90.4434 150.627 79.1391 146.534 76.8992 148.619C74.6594 150.704 76.982 156.69 76.8992 159.653C76.8165 162.615 76.8992 209.306 76.8992 209.306H143.103C143.103 209.306 143.186 162.615 143.103 159.653C143.02 156.69 144.697 150.704 142.457 148.619Z" fill="#5D80CE"/>
</g>
<defs>
<clipPath id="clip0_1387_34708">
<rect width="198.611" height="198.611" fill="white" transform="translate(10.6943 10.6943)"/>
</clipPath>
</defs>
</svg>
