<svg width="220" height="220" viewBox="0 0 220 220" fill="none" xmlns="http://www.w3.org/2000/svg">
<g clip-path="url(#clip0_1387_34535)">
<path d="M209.645 209.306V198.272C209.645 179.988 194.827 165.17 176.543 165.17H88.2718C69.994 165.17 55.1699 179.988 55.1699 198.272V209.306H209.645Z" fill="#3B88C3"/>
<path d="M132.411 209.3L101.516 159.653H163.306L132.411 209.3Z" fill="#292F33"/>
<path d="M108.352 176.413C117.974 183.409 124.065 187.243 132.406 187.243C140.748 187.243 146.833 183.403 156.455 176.413V144.696H108.347L108.352 176.413Z" fill="#F7DECE"/>
<path d="M93.7881 165.17C93.7881 170.687 99.3051 181.721 110.339 192.755C119.061 201.477 132.407 209.305 132.407 209.305C132.407 192.407 126.89 187.238 121.373 181.721C115.856 176.204 104.822 170.687 104.822 159.653C104.822 154.136 93.7881 165.17 93.7881 165.17ZM171.026 165.17C171.026 170.687 165.509 181.721 154.475 192.755C145.752 201.477 132.407 209.305 132.407 209.305C132.407 192.407 137.924 187.238 143.441 181.721C148.958 176.204 159.992 170.687 159.992 159.653C159.992 154.136 171.026 165.17 171.026 165.17Z" fill="#55ACEE"/>
<path d="M108.309 153.987C115.018 161.567 123.337 163.619 132.385 163.619C141.428 163.619 149.742 161.562 156.456 153.987V134.727H108.304L108.309 153.987Z" fill="#EEC2AD"/>
<path d="M96.2389 98.6129C96.2389 106.601 92.1895 113.078 87.1966 113.078C82.2038 113.078 78.1543 106.601 78.1543 98.6129C78.1543 90.6243 82.2038 84.1418 87.1966 84.1418C92.1895 84.1363 96.2389 90.6188 96.2389 98.6129ZM186.657 98.6129C186.657 106.601 182.613 113.078 177.614 113.078C172.621 113.078 168.572 106.601 168.572 98.6129C168.572 90.6243 172.616 84.1418 177.614 84.1418C182.613 84.1363 186.657 90.6188 186.657 98.6129Z" fill="#F7DECE"/>
<path d="M85.3838 104.257C85.3838 73.4225 106.437 48.4196 132.405 48.4196C158.373 48.4196 179.421 73.4225 179.421 104.257C179.421 135.091 158.373 160.094 132.405 160.094C106.442 160.094 85.3838 135.097 85.3838 104.257Z" fill="#F7DECE"/>
<path d="M132.41 142.01C117.216 142.01 112.549 138.12 111.771 137.331C110.359 135.919 110.359 133.629 111.771 132.217C113.139 130.849 115.335 130.81 116.747 132.09C117.034 132.294 120.725 134.777 132.41 134.777C144.548 134.777 148.056 132.101 148.089 132.073C149.502 130.667 151.714 130.733 153.126 132.156C154.539 133.569 154.462 135.924 153.049 137.331C152.271 138.12 147.604 142.01 132.41 142.01ZM136.548 119.655H128.272C125.994 119.655 124.135 117.796 124.135 115.517C124.135 113.238 125.994 111.379 128.272 111.379H136.548C138.826 111.379 140.686 113.238 140.686 115.517C140.686 117.796 138.826 119.655 136.548 119.655Z" fill="#C1694F"/>
<path d="M132.409 29.8934C163.568 29.8934 183.043 52.8882 183.043 72.0486C183.043 91.2091 179.148 98.8777 175.253 91.2091L167.463 75.8829C167.463 75.8829 144.099 75.8829 136.309 68.2143C136.309 68.2143 147.994 91.2091 124.624 68.2143C124.624 68.2143 128.519 83.546 105.149 64.3856C105.149 64.3856 93.4643 72.0486 89.5693 91.2091C88.4879 96.5275 81.7793 91.2091 81.7793 72.0486C81.7738 52.8882 97.3537 29.8934 132.409 29.8934Z" fill="#292F33"/>
<path d="M106.202 119.655C117.628 119.655 126.891 110.392 126.891 98.966C126.891 87.54 117.628 78.2773 106.202 78.2773C94.7763 78.2773 85.5137 87.54 85.5137 98.966C85.5137 110.392 94.7763 119.655 106.202 119.655Z" fill="#EEC2AD"/>
<path d="M158.613 119.655C170.039 119.655 179.302 110.392 179.302 98.966C179.302 87.54 170.039 78.2773 158.613 78.2773C147.187 78.2773 137.925 87.54 137.925 98.966C137.925 110.392 147.187 119.655 158.613 119.655Z" fill="#EEC2AD"/>
<path d="M118.614 93.4491H146.199V107.242H118.614V93.4491Z" fill="#EEC2AD"/>
<path d="M107.582 115.517C118.246 115.517 126.891 106.872 126.891 96.2076C126.891 85.5433 118.246 76.8982 107.582 76.8982C96.9176 76.8982 88.2725 85.5433 88.2725 96.2076C88.2725 106.872 96.9176 115.517 107.582 115.517Z" fill="#E1E8ED"/>
<path d="M157.234 115.517C167.899 115.517 176.544 106.872 176.544 96.2076C176.544 85.5433 167.899 76.8982 157.234 76.8982C146.57 76.8982 137.925 85.5433 137.925 96.2076C137.925 106.872 146.57 115.517 157.234 115.517Z" fill="#E1E8ED"/>
<path d="M118.614 87.9321H146.199V101.725H118.614V87.9321Z" fill="#E1E8ED"/>
<path d="M107.581 110C115.198 110 121.373 103.825 121.373 96.2076C121.373 88.5902 115.198 82.4152 107.581 82.4152C99.9632 82.4152 93.7881 88.5902 93.7881 96.2076C93.7881 103.825 99.9632 110 107.581 110Z" fill="#292F33"/>
<path d="M157.234 110C164.851 110 171.026 103.825 171.026 96.2076C171.026 88.5902 164.851 82.4152 157.234 82.4152C149.616 82.4152 143.441 88.5902 143.441 96.2076C143.441 103.825 149.616 110 157.234 110Z" fill="#292F33"/>
<path d="M38.6192 143.102L30.3438 148.619C30.3438 148.619 38.6192 162.411 38.6192 181.721V209.306H49.6532V181.721C49.6532 156.894 38.6192 143.102 38.6192 143.102Z" fill="#66757F"/>
<path d="M44.5705 142.037C45.718 144.128 44.9622 146.748 42.8768 147.907L31.1256 154.406C29.0347 155.554 26.4086 154.792 25.2555 152.701L22.7674 148.199C21.6199 146.108 22.3702 143.482 24.4611 142.329L36.2123 135.83C38.2977 134.677 40.9293 135.439 42.0823 137.535L44.5705 142.037Z" fill="#99AAB5"/>
<path d="M30.2893 135.29C53.3944 123.103 11.3219 100.693 11.3219 100.693C11.3219 100.693 7.1842 147.477 30.2893 135.29Z" fill="#F4900C"/>
<path d="M27.3669 128.565C39.5153 122.154 17.3922 110.364 17.3922 110.364C17.3922 110.364 15.2185 134.964 27.3669 128.565Z" fill="#FFDC5D"/>
<path d="M198.611 71.3812C182.06 60.3472 193.05 48.3809 182.06 32.7624C171.721 18.0707 154.475 10.6945 132.391 10.6945C104.822 10.6945 93.0932 18.0707 82.7544 32.7624C71.7645 48.3809 82.7544 60.3472 66.2034 71.3812C55.9363 78.2222 99.3053 84.142 132.407 84.142C165.509 84.142 208.878 78.2222 198.611 71.3812Z" fill="#3B88C3"/>
<path d="M121.375 74.1398V11.1801C119.444 11.3566 117.607 11.5883 115.858 11.8642V68.5842C104.328 68.3083 87.5892 66.3995 73.6368 63.8782C72.6768 65.5167 71.3748 67.1332 69.6094 68.7166C85.6693 71.8337 105.999 74.1343 118.617 74.1343H121.375V74.1398ZM146.202 74.1398C159.558 74.1398 179.508 71.9716 195.341 68.849C193.548 67.2601 192.235 65.6491 191.253 64.0106C177.841 66.4822 161.621 68.3525 148.955 68.6007V12.3055C147.173 11.9414 145.313 11.6876 143.438 11.4504V74.1398H146.202Z" fill="#226699"/>
</g>
<defs>
<clipPath id="clip0_1387_34535">
<rect width="198.611" height="198.611" fill="white" transform="translate(11.0342 10.6945)"/>
</clipPath>
</defs>
</svg>
