<svg width="220" height="220" viewBox="0 0 220 220" fill="none" xmlns="http://www.w3.org/2000/svg">
<g clip-path="url(#clip0_1387_34666)">
<path d="M209.305 209.305V198.272C209.305 179.988 194.487 165.17 176.204 165.17H87.9319C69.6542 165.17 54.8301 179.988 54.8301 198.272V209.305H209.305Z" fill="#77B255"/>
<path d="M132.067 198.272C136.299 198.272 159.652 181.721 159.652 165.17H104.482C104.482 181.721 127.836 198.272 132.067 198.272Z" fill="#3E721D"/>
<path d="M108.011 165.379C108.011 181.081 156.119 181.72 156.119 165.379V144.696H108.011V165.379Z" fill="#F7DECE"/>
<path d="M107.968 153.987C114.676 161.567 122.996 163.619 132.044 163.619C141.086 163.619 149.406 161.567 156.12 153.987V134.727H107.968V153.987Z" fill="#EEC2AD"/>
<path d="M149.459 28.9005C138.838 25.4634 117.041 26.3627 110.796 34.4837C100.462 34.6823 101.991 54.9516 82.5873 50.8525C78.5158 56.3916 75.6414 62.9788 74.7311 70.0295C72.2595 89.201 76.0276 96.9193 77.9917 111.33C80.215 127.66 89.3952 132.884 96.7328 135.069C107.292 149.022 118.519 148.426 137.371 148.426C174.18 148.426 188.519 123.831 190.069 82.0014C190.51 70.1013 187.459 59.5638 181.33 50.836C160.161 59.0563 163.604 33.4796 149.459 28.9005Z" fill="#292F33"/>
<path d="M173.702 83.7554C170.138 78.8232 165.581 74.851 155.585 73.4497C159.336 75.1654 165.923 85.598 166.392 88.8806C166.861 92.1632 167.33 94.8169 164.362 91.5343C152.473 78.3929 136.529 79.0715 123.702 71.0443C114.742 65.439 112.011 59.2324 112.011 59.2324C112.011 59.2324 110.919 67.5079 97.3308 75.9433C93.3917 78.3874 88.6912 83.8326 86.0872 91.8764C84.2114 97.6582 84.7962 102.811 84.7962 111.616C84.7962 137.325 105.987 158.941 132.121 158.941C158.255 158.941 179.445 137.132 179.445 111.616C179.434 95.6279 177.763 89.3827 173.702 83.7554Z" fill="#F7DECE"/>
<path d="M137.37 124.769H126.854C125.403 124.769 124.223 123.594 124.223 122.137C124.223 120.681 125.398 119.506 126.854 119.506H137.37C138.821 119.506 140.001 120.681 140.001 122.137C140.001 123.594 138.826 124.769 137.37 124.769Z" fill="#C1694F"/>
<path d="M111.076 106.364C108.174 106.364 105.818 104.008 105.818 101.106V95.8487C105.818 92.9468 108.174 90.5911 111.076 90.5911C113.978 90.5911 116.334 92.9468 116.334 95.8487V101.106C116.334 104.008 113.983 106.364 111.076 106.364ZM153.148 106.364C150.247 106.364 147.891 104.008 147.891 101.106V95.8487C147.891 92.9468 150.247 90.5911 153.148 90.5911C156.05 90.5911 158.406 92.9468 158.406 95.8487V101.106C158.406 104.008 156.05 106.364 153.148 106.364Z" fill="#662113"/>
<path d="M132.809 146.727C117.615 146.727 112.948 142.837 112.17 142.048C110.757 140.636 110.757 138.346 112.17 136.934C113.538 135.566 115.734 135.527 117.146 136.807C117.433 137.011 121.124 139.494 132.809 139.494C144.946 139.494 148.455 136.818 148.488 136.79C149.9 135.384 152.113 135.45 153.525 136.873C154.937 138.286 154.86 140.641 153.448 142.054C152.664 142.837 148.002 146.727 132.809 146.727Z" fill="#C1694F"/>
<path d="M82.415 165.17H98.966V209.305H82.415V165.17ZM165.17 165.17H181.721V209.305H165.17V165.17Z" fill="#77B255"/>
<path d="M83.1045 203.789H181.72V209.306H83.1045V203.789Z" fill="#77B255"/>
<path d="M176.204 59.2437C176.204 66.5261 159.146 71.3811 132.068 71.3811C104.986 71.3811 87.9326 66.5261 87.9326 59.2437C87.9326 39.675 110.001 10.6943 117.355 10.6943C124.714 10.6943 129.619 20.4042 132.068 20.4042C134.518 20.4042 139.423 10.6943 146.782 10.6943C154.136 10.6943 176.204 39.675 176.204 59.2437Z" fill="#C1694F"/>
<path d="M208.981 54.83C208.981 63.9716 189.672 87.9318 131.744 87.9318C73.8153 87.9318 54.5059 63.9716 54.5059 54.83C54.5059 45.6884 92.1316 49.313 131.744 49.313C171.355 49.313 208.981 45.6884 208.981 54.83Z" fill="#C1694F"/>
<path d="M176.204 59.2438C176.204 66.5262 159.146 71.3811 132.068 71.3811C104.986 71.3811 87.9326 66.5262 87.9326 59.2438C87.9326 56.1212 88.4954 52.7613 89.4719 49.3132C102.646 60.3472 161.49 60.3472 174.671 49.3353C175.636 52.7724 176.204 56.1267 176.204 59.2438Z" fill="#292F33"/>
<path d="M49.3129 185.858C49.3129 182.052 46.2234 178.962 42.4167 178.962C38.61 178.962 35.5205 182.052 35.5205 185.858V209.306H49.3129V185.858Z" fill="#C1694F"/>
<path d="M65.8806 136.205C65.8806 149.17 55.3763 159.669 42.4169 159.669C29.4576 159.669 18.9532 149.17 18.9532 136.205C18.9532 135.731 10.6943 135.742 10.6943 136.205C10.6943 153.727 24.9005 167.928 42.4169 167.928C59.9333 167.928 74.1396 153.727 74.1396 136.205C74.1396 135.742 65.8806 135.731 65.8806 136.205Z" fill="#66757F"/>
<path d="M18.9698 136.206C18.9698 138.49 17.1161 140.343 14.8321 140.343C12.548 140.343 10.6943 138.49 10.6943 136.206V89.3113C10.6943 87.0273 12.548 85.1736 14.8321 85.1736C17.1161 85.1736 18.9698 87.0273 18.9698 89.3113V136.206ZM74.1396 136.206C74.1396 138.49 72.2859 140.343 70.0018 140.343C67.7178 140.343 65.8641 138.49 65.8641 136.206V89.3113C65.8641 87.0273 67.7178 85.1736 70.0018 85.1736C72.2859 85.1736 74.1396 87.0273 74.1396 89.3113V136.206ZM46.5547 181.721C46.5547 184.005 44.701 185.858 42.4169 185.858C40.1329 185.858 38.2792 184.005 38.2792 181.721V89.3113C38.2792 87.0273 40.1329 85.1736 42.4169 85.1736C44.701 85.1736 46.5547 87.0273 46.5547 89.3113V181.721Z" fill="#66757F"/>
</g>
<defs>
<clipPath id="clip0_1387_34666">
<rect width="198.611" height="198.611" fill="white" transform="translate(10.6943 10.6943)"/>
</clipPath>
</defs>
</svg>
