<svg width="220" height="220" viewBox="0 0 220 220" fill="none" xmlns="http://www.w3.org/2000/svg">
<g clip-path="url(#clip0_1387_34645)">
<path d="M187.237 209.305V187.238C187.237 168.954 172.424 154.136 154.135 154.136H65.8636C47.5858 154.136 32.7617 168.954 32.7617 187.238V209.305H187.237Z" fill="#292F33"/>
<path d="M134.826 176.22L158.505 171.167L147.951 154.136L134.826 154.152V176.22Z" fill="#546170"/>
<path d="M124.235 209.305H139.848L164.024 167.007L147.953 172.104L138.331 159.945L124.235 209.305Z" fill="#66757F"/>
<path d="M85.173 176.22L61.4941 171.167L72.0426 154.136L85.173 154.152V176.22Z" fill="#546170"/>
<path d="M95.766 209.305H80.1529L55.9775 167.007L72.043 172.104L81.6701 159.945L95.766 209.305Z" fill="#66757F"/>
<path d="M125.475 209.306L141.265 154.042H78.7354L94.5249 209.306H125.475Z" fill="#DFE7EC"/>
<path d="M110 190.255C112.132 190.255 113.861 188.526 113.861 186.393C113.861 184.261 112.132 182.531 110 182.531C107.867 182.531 106.138 184.261 106.138 186.393C106.138 188.526 107.867 190.255 110 190.255Z" fill="#292F33"/>
<path d="M110 206.018C112.132 206.018 113.861 204.289 113.861 202.156C113.861 200.023 112.132 198.294 110 198.294C107.867 198.294 106.138 200.023 106.138 202.156C106.138 204.289 107.867 206.018 110 206.018Z" fill="#292F33"/>
<path d="M87.9326 153.512L110.001 163.167L132.068 153.512V131.444H87.9326V153.512Z" fill="#F7DECE"/>
<path d="M87.9326 143.102C94.6413 150.682 100.925 152.586 109.978 152.586C119.021 152.586 125.354 150.677 132.068 143.102V121.034H87.9326V143.102Z" fill="#EEC2AD"/>
<path d="M164.248 87.5734C164.248 79.5848 160.205 73.1024 155.206 73.1024C154.754 73.1024 154.318 73.2127 153.882 73.3175C147.129 52.3254 130.054 37.391 110 37.391C89.9458 37.391 72.8763 52.3254 66.1125 73.3175C65.6766 73.2127 65.2408 73.1024 64.7884 73.1024C59.7956 73.1024 55.7461 79.5848 55.7461 87.5734C55.7461 94.911 59.1721 100.908 63.5967 101.846C67.0945 128.576 86.5087 149.055 110 149.055C133.491 149.055 152.9 128.576 156.403 101.846C160.828 100.908 164.248 94.911 164.248 87.5734Z" fill="#F7DECE"/>
<path d="M87.5294 147.207L110 163.167L95.347 178.714L78.7354 154.042L87.5294 147.207ZM132.471 147.207L110 163.167L124.653 178.714L141.265 154.042L132.471 147.207Z" fill="#F4F7F9"/>
<path d="M126.797 157.738C126.4 157.501 125.92 157.501 125.523 157.722L109.998 166.257L94.4733 157.722C94.0761 157.501 93.5961 157.507 93.1989 157.738C92.8072 157.97 92.5645 158.395 92.5645 158.847V176.601C92.5645 177.053 92.8072 177.478 93.1989 177.71C93.403 177.826 93.6292 177.886 93.8554 177.886C94.0706 177.886 94.2802 177.831 94.4733 177.726L109.998 169.186L125.523 177.726C125.716 177.837 125.926 177.886 126.141 177.886C126.367 177.886 126.593 177.826 126.797 177.71C127.183 177.478 127.426 177.053 127.426 176.601V158.847C127.426 158.395 127.183 157.97 126.797 157.738Z" fill="#292F33"/>
<path d="M110.002 130.975C94.8082 130.975 90.1409 127.086 89.363 126.297C87.9506 124.885 87.9506 122.595 89.363 121.183C90.7312 119.815 92.9269 119.776 94.3393 121.056C94.6262 121.26 98.317 123.743 110.002 123.743C122.139 123.743 125.648 121.067 125.681 121.039C127.094 119.633 129.306 119.699 130.718 121.122C132.131 122.534 132.053 124.89 130.641 126.297C129.863 127.086 125.196 130.975 110.002 130.975ZM114.14 108.621H105.864C103.586 108.621 101.727 106.761 101.727 104.483C101.727 102.204 103.586 100.345 105.864 100.345H114.14C116.418 100.345 118.277 102.204 118.277 104.483C118.277 106.761 116.418 108.621 114.14 108.621Z" fill="#C1694F"/>
<path d="M132.068 93.4491C129.033 93.4491 126.551 90.9665 126.551 87.9321V82.4152C126.551 79.3808 129.033 76.8982 132.068 76.8982C135.102 76.8982 137.585 79.3808 137.585 82.4152V87.9321C137.585 90.9665 135.102 93.4491 132.068 93.4491ZM87.932 93.4491C84.8977 93.4491 82.415 90.9665 82.415 87.9321V82.4152C82.415 79.3808 84.8977 76.8982 87.932 76.8982C90.9664 76.8982 93.449 79.3808 93.449 82.4152V87.9321C93.449 90.9665 90.9664 93.4491 87.932 93.4491Z" fill="#662113"/>
<path d="M110 18.8595C141.16 18.8595 160.635 41.8543 160.635 61.0147C160.635 80.1752 156.74 87.8438 152.845 80.1752L145.055 64.849C145.055 64.849 121.691 64.849 113.901 57.1804C113.901 57.1804 125.586 80.1752 102.216 57.1804C102.216 57.1804 106.111 72.5121 82.741 53.3516C82.741 53.3516 71.056 61.0147 67.1611 80.1752C66.0797 85.4935 59.3711 80.1752 59.3711 61.0147C59.3656 41.8543 74.9455 18.8595 110 18.8595Z" fill="#292F33"/>
</g>
<defs>
<clipPath id="clip0_1387_34645">
<rect width="198.611" height="198.611" fill="white" transform="translate(10.6943 10.6945)"/>
</clipPath>
</defs>
</svg>
