<svg width="220" height="220" viewBox="0 0 220 220" fill="none" xmlns="http://www.w3.org/2000/svg">
<g clip-path="url(#clip0_1387_34599)">
<path d="M176.204 154.136C176.204 166.323 166.323 176.204 154.136 176.204H32.7622C20.5752 176.204 10.6943 166.323 10.6943 154.136V32.7624C10.6943 20.5754 20.5752 10.6945 32.7622 10.6945H154.136C166.323 10.6945 176.204 20.5754 176.204 32.7624V154.136Z" fill="#CCD6DC"/>
<path d="M165.171 154.136C165.171 160.227 160.228 165.17 154.137 165.17H32.7634C26.6727 165.17 21.7295 160.227 21.7295 154.136V32.7623C21.7295 26.6716 26.6727 21.7284 32.7634 21.7284H154.137C160.228 21.7284 165.171 26.6716 165.171 32.7623V154.136Z" fill="#F5F8FA"/>
<path d="M43.7963 154.136C40.7509 154.136 38.2793 151.67 38.2793 148.619V82.4152C38.2793 79.3698 40.7509 76.8982 43.7963 76.8982C46.8416 76.8982 49.3132 79.3698 49.3132 82.4152V148.619C49.3132 151.67 46.8416 154.136 43.7963 154.136Z" fill="#50A5E6"/>
<path d="M65.8646 154.136C62.8193 154.136 60.3477 151.67 60.3477 148.619V54.8302C60.3477 51.7848 62.8193 49.3132 65.8646 49.3132C68.91 49.3132 71.3816 51.7848 71.3816 54.8302V148.619C71.3816 151.67 68.91 154.136 65.8646 154.136Z" fill="#77B255"/>
<path d="M209.306 209.305V184.479C209.306 166.196 189.66 154.136 171.376 154.136H105.173C86.895 154.136 65.8643 166.196 65.8643 184.479V209.305H209.306Z" fill="#226798"/>
<path d="M166.55 154.136L148.995 209.305H126.425L111.38 154.136" fill="#F4F7F9"/>
<path d="M115.518 154.136H107.243L101.726 184.479L118.277 189.996L115.518 209.305H134.827L115.518 154.136ZM162.412 154.136H170.688L173.446 184.479L156.895 189.996L159.654 209.305H140.344L162.412 154.136Z" fill="#3A87C2"/>
<path d="M138.688 32.6465C161.33 32.6465 199.083 43.9728 199.083 93.0408C199.083 142.114 199.083 153.441 187.756 153.441C176.43 153.441 161.33 142.114 138.683 142.114C116.03 142.114 101.25 153.441 89.6038 153.441C76.9865 153.441 78.2775 108.141 78.2775 93.0408C78.2885 43.9673 116.041 32.6465 138.688 32.6465Z" fill="#292F33"/>
<path d="M119.683 154.135C125.2 165.07 135.086 178.962 138.992 178.962C142.898 178.962 152.851 164.899 158.301 154.135V134.324H119.683V154.135Z" fill="#F6DDCD"/>
<path d="M119.683 143.399C125.062 149.479 131.737 151.123 138.987 151.123C146.241 151.123 152.922 149.479 158.301 143.399V127.946H119.683V143.399Z" fill="#ECC0AC"/>
<path d="M93.3896 91.391C93.3896 59.205 113.67 33.1152 138.69 33.1152C163.698 33.1152 183.978 59.205 183.978 91.391C183.978 123.572 163.698 148.133 138.69 148.133C113.67 148.133 93.3896 123.572 93.3896 91.391Z" fill="#F6DDCD"/>
<path d="M138.688 134.562C129.828 134.562 125.188 130.181 124.692 129.679C123.213 128.206 123.213 125.817 124.692 124.344C126.159 122.882 128.51 122.871 129.994 124.306C130.187 124.482 133.034 127.015 138.688 127.015C144.415 127.015 147.267 124.405 147.383 124.3C148.889 122.888 151.262 122.932 152.696 124.405C154.131 125.889 154.131 128.217 152.674 129.674C152.183 130.181 147.549 134.562 138.688 134.562Z" fill="#DE2032"/>
<path d="M143.602 117.773H134.278C132.993 117.773 131.944 116.73 131.944 115.439V114.595C131.944 113.31 132.987 112.256 134.278 112.256H143.602C144.887 112.256 145.941 113.304 145.941 114.595V115.439C145.941 116.73 144.887 117.773 143.602 117.773Z" fill="#C1694F"/>
<path d="M157.599 103.358C155.034 103.358 152.932 101.256 152.932 98.685V94.0232C152.932 91.4578 155.034 89.3558 157.599 89.3558C160.164 89.3558 162.266 91.4578 162.266 94.0232V98.685C162.266 101.256 160.164 103.358 157.599 103.358ZM120.277 103.358C117.711 103.358 115.609 101.256 115.609 98.685V94.0232C115.609 91.4578 117.711 89.3558 120.277 89.3558C122.848 89.3558 124.95 91.4578 124.95 94.0232V98.685C124.95 101.256 122.848 103.358 120.277 103.358Z" fill="#662213"/>
<path d="M82.3059 109.498C82.19 103.981 82.0631 108.262 82.0631 106.933C82.0631 88.0535 93.3895 109.658 93.3895 96.2131C93.3895 82.7627 100.937 81.4111 108.484 73.8639C112.263 70.0847 119.81 62.6865 119.81 62.6865C119.81 62.6865 138.684 74.0901 153.784 74.0901C168.878 74.0901 183.984 81.6759 183.984 96.7759C183.984 111.87 195.31 88.037 195.31 106.911C195.31 108.257 195.189 103.981 195.089 109.498H199.056C199.089 98.4641 199.089 98.8833 199.089 91.8326C199.089 42.7647 161.342 24.4869 138.689 24.4869C116.048 24.4869 78.295 42.4557 78.295 91.5292C78.295 95.9042 78.1847 98.4641 78.3392 109.498H82.3059Z" fill="#292F33"/>
<path d="M193.241 92.5936C193.241 100.582 189.197 107.059 184.198 107.059C179.205 107.059 175.156 100.582 175.156 92.5936C175.156 84.605 179.2 78.1226 184.198 78.1226C189.197 78.1226 193.241 84.605 193.241 92.5936ZM102.823 92.5936C102.823 100.582 98.7735 107.059 93.7806 107.059C88.7877 107.059 84.7383 100.582 84.7383 92.5936C84.7383 84.605 88.7877 78.1226 93.7806 78.1226C98.7735 78.1226 102.823 84.605 102.823 92.5936Z" fill="#F6DDCD"/>
</g>
<defs>
<clipPath id="clip0_1387_34599">
<rect width="198.611" height="198.611" fill="white" transform="translate(10.6943 10.6945)"/>
</clipPath>
</defs>
</svg>
