<svg width="220" height="220" viewBox="0 0 220 220" fill="none" xmlns="http://www.w3.org/2000/svg">
<g clip-path="url(#clip0_1387_34620)">
<path d="M203.467 209.305V184.545C203.467 166.262 183.137 154.202 164.848 154.202H98.6442C80.3665 154.202 60.0254 166.262 60.0254 184.545V209.305H203.467Z" fill="#CCD6DD"/>
<path d="M131.447 33.2095C154.088 33.2095 191.841 44.5358 191.841 93.6038C191.841 142.677 191.841 154.004 180.514 154.004C169.188 154.004 154.088 142.677 131.441 142.677C108.794 142.677 94.0083 154.004 82.3675 154.004C69.7502 154.004 71.0412 108.704 71.0412 93.6038C71.0412 44.5358 108.794 33.2095 131.447 33.2095Z" fill="#292F33"/>
<path d="M111.487 167.873C119.575 173.743 143.85 173.743 151.938 167.873V136.625H111.487V167.873Z" fill="#F7DECE"/>
<path d="M111.455 144.15C117.093 150.527 124.089 152.254 131.691 152.254C139.299 152.254 146.295 150.533 151.939 144.15V127.952H111.455V144.15Z" fill="#EEC2AD"/>
<path d="M86.1387 91.954C86.1387 59.768 106.419 33.6782 131.439 33.6782C156.447 33.6782 176.727 59.7735 176.727 91.954C176.727 124.135 156.447 148.691 131.439 148.691C106.425 148.696 86.1387 124.135 86.1387 91.954Z" fill="#F7DECE"/>
<path d="M131.448 135.13C122.588 135.13 117.948 130.744 117.452 130.247C115.973 128.769 115.973 126.38 117.452 124.912C118.919 123.445 121.269 123.434 122.754 124.868C122.947 125.05 125.793 127.582 131.448 127.582C137.175 127.582 140.027 124.973 140.143 124.868C141.649 123.456 144.021 123.5 145.456 124.978C146.89 126.457 146.89 128.791 145.434 130.247C144.937 130.744 140.303 135.13 131.448 135.13Z" fill="#DF1F32"/>
<path d="M75.0598 110.066C74.9439 104.549 74.817 108.831 74.817 107.501C74.817 88.6219 86.1434 110.226 86.1434 96.7815C86.1434 83.3256 93.6906 81.9795 101.238 74.4322C105.017 70.6586 112.564 63.2548 112.564 63.2548C112.564 63.2548 131.438 74.6584 146.538 74.6584C161.632 74.6584 176.738 82.2443 176.738 97.3442C176.738 112.439 188.064 88.6053 188.064 107.479C188.064 108.825 187.943 104.549 187.843 110.066H191.81C191.843 99.0324 191.843 99.4517 191.843 92.401C191.843 43.3275 154.096 25.0553 131.443 25.0553C108.802 25.0553 71.0489 43.0241 71.0489 92.0976C71.0489 96.4725 70.9386 99.0324 71.0931 110.066H75.0598Z" fill="#292F33"/>
<path d="M95.5807 93.1566C95.5807 101.145 91.5313 107.622 86.5384 107.622C81.5456 107.622 77.4961 101.145 77.4961 93.1566C77.4961 85.168 81.5456 78.6855 86.5384 78.6855C91.5313 78.6855 95.5807 85.168 95.5807 93.1566ZM185.993 93.1566C185.993 101.145 181.949 107.622 176.951 107.622C171.958 107.622 167.908 101.145 167.908 93.1566C167.908 85.168 171.952 78.6855 176.951 78.6855C181.949 78.6855 185.993 85.168 185.993 93.1566Z" fill="#F7DECE"/>
<path d="M113.036 103.921C110.47 103.921 108.368 101.819 108.368 99.248V94.5862C108.368 92.0208 110.47 89.9188 113.036 89.9188C115.606 89.9188 117.708 92.0208 117.708 94.5862V99.248C117.703 101.824 115.606 103.921 113.036 103.921ZM150.358 103.921C147.792 103.921 145.69 101.819 145.69 99.248V94.5862C145.69 92.0208 147.792 89.9188 150.358 89.9188C152.923 89.9188 155.025 92.0208 155.025 94.5862V99.248C155.02 101.824 152.918 103.921 150.358 103.921Z" fill="#662113"/>
<path d="M136.355 118.341H127.031C125.745 118.341 124.697 117.299 124.697 116.002V115.164C124.697 113.873 125.74 112.824 127.031 112.824H136.355C137.64 112.824 138.694 113.873 138.694 115.164V116.002C138.694 117.293 137.646 118.341 136.355 118.341Z" fill="#C1694F"/>
<path d="M115.52 209.306L109.678 158.445C109.678 158.445 117.457 167.52 131.746 167.52C146.035 167.52 155.022 158.445 155.022 158.445L148.28 209.306H115.52Z" fill="#66757F"/>
<path d="M109.673 149.998C112.801 153.12 125.777 209.305 125.777 209.305H108.365L98.9641 195.171L108.365 179.53L97.2373 176.032L98.6386 154.201C98.6386 154.201 108.177 148.502 109.673 149.998ZM153.775 149.998C150.647 153.12 137.671 209.305 137.671 209.305H155.083L164.484 195.171L155.083 179.53L166.211 176.032L164.809 154.201C164.809 154.201 155.265 148.502 153.775 149.998Z" fill="#F5F8FA"/>
<path opacity="0.4" d="M92.0859 81.0359H172.082V110H92.0859V81.0359Z" fill="white"/>
<path d="M170.687 76.8982H93.4496C87.9326 76.8982 87.9326 82.4152 87.9326 82.4152V104.483C87.9326 112.543 100.804 115.517 110.001 115.517C119.197 115.517 124.339 110 132.068 110C139.798 110 144.94 115.517 154.136 115.517C163.333 115.517 176.204 112.543 176.204 104.483V82.4152C176.204 76.8927 170.687 76.8982 170.687 76.8982ZM170.687 98.9661C170.687 106.276 165.987 110 154.136 110C145.646 110 138.667 104.483 132.068 104.483C125.47 104.483 118.491 110 110.001 110C98.1501 110 93.4496 106.276 93.4496 98.9661V82.4152H170.687V98.9661Z" fill="#F5F8FA"/>
<path d="M49.3139 76.8982C52.3608 76.8982 54.8308 74.4282 54.8308 71.3812C54.8308 68.3343 52.3608 65.8643 49.3139 65.8643C46.2669 65.8643 43.7969 68.3343 43.7969 71.3812C43.7969 74.4282 46.2669 76.8982 49.3139 76.8982Z" fill="#9266CC"/>
<path d="M60.348 104.483C63.395 104.483 65.865 102.013 65.865 98.9661C65.865 95.9191 63.395 93.4491 60.348 93.4491C57.3011 93.4491 54.8311 95.9191 54.8311 98.9661C54.8311 102.013 57.3011 104.483 60.348 104.483Z" fill="#9266CC"/>
<path d="M41.0372 98.9661C45.6076 98.9661 49.3126 95.261 49.3126 90.6906C49.3126 86.1202 45.6076 82.4152 41.0372 82.4152C36.4668 82.4152 32.7617 86.1202 32.7617 90.6906C32.7617 95.261 36.4668 98.9661 41.0372 98.9661Z" fill="#9266CC"/>
<path d="M65.8641 110H38.2792C38.2792 110 27.2453 110 27.2453 121.034C27.2453 132.068 38.2792 132.068 38.2792 132.068V159.653L16.2113 187.238C11.3398 193.328 10.6943 197.284 10.6943 198.272C10.6943 209.306 21.7283 209.306 21.7283 209.306H82.415C82.415 209.306 93.449 209.306 93.449 198.272C93.449 197.532 94.2931 195.188 87.932 187.238L65.8641 159.653V132.068C65.8641 132.068 76.898 132.068 76.898 121.034C76.898 110 65.8641 110 65.8641 110Z" fill="#A8BCCC"/>
<path d="M60.3466 161.589V126.551H65.8636C68.3407 126.485 71.3805 125.481 71.3805 121.034C71.3805 116.604 68.3628 115.589 65.8194 115.517H38.2787C35.7961 115.583 32.7617 116.587 32.7617 121.034C32.7617 125.481 35.7961 126.485 38.3449 126.551L43.7239 126.683L43.7957 161.589L33.3465 174.653L52.0711 193.963L70.7957 174.653L60.3466 161.589Z" fill="#E1E8ED"/>
<path d="M16.2061 198.459C16.2116 202.718 19.2459 203.722 21.7948 203.789H82.4153C84.8924 203.722 87.9323 202.718 87.9323 198.272V198.045L87.9654 197.593C87.9654 197.576 87.6619 195.734 83.6235 190.686L70.7965 174.653H33.3473L20.5203 190.686C16.5536 195.646 16.2061 198.432 16.2061 198.459Z" fill="#9266CC"/>
</g>
<defs>
<clipPath id="clip0_1387_34620">
<rect width="198.611" height="198.611" fill="white" transform="translate(10.6943 10.6945)"/>
</clipPath>
</defs>
</svg>
