<svg width="220" height="220" viewBox="0 0 220 220" fill="none" xmlns="http://www.w3.org/2000/svg">
<g clip-path="url(#clip0_1387_34421)">
<path d="M187.237 209.311V203.789C187.237 181.721 166.907 165.17 148.618 165.17H71.3805C53.1028 165.17 32.7617 181.721 32.7617 203.789V209.311H187.237Z" fill="#2A6797"/>
<path d="M110.015 93.4545C146.579 93.4545 176.219 74.9292 176.219 52.0771C176.219 29.2251 146.579 10.6998 110.015 10.6998C73.4519 10.6998 43.8115 29.2251 43.8115 52.0771C43.8115 74.9292 73.4519 93.4545 110.015 93.4545Z" fill="#2A6797"/>
<path d="M85.943 165.727C85.943 165.727 101.655 176.557 109.997 176.557C118.339 176.557 134.046 165.727 134.046 165.727V144.702H85.9375V165.727H85.943Z" fill="#F7DECE"/>
<path d="M85.901 152.492C92.6097 160.072 100.929 162.125 109.977 162.125C119.019 162.125 127.334 160.067 134.048 152.492V133.232H85.8955V152.492H85.901Z" fill="#EEC2AD"/>
<path d="M60.3576 57.5887C58.3053 61.4617 54.3331 65.6987 53.7759 70.2116C51.4312 89.2341 56.6557 98.0723 58.5205 112.378C60.628 128.587 69.3393 133.773 76.3072 135.941C86.326 149.788 96.9793 149.193 114.865 149.193C149.793 149.193 165.004 124.416 166.477 82.9006C166.813 73.4004 164.386 65.1139 160.64 57.5943H60.3576V57.5887Z" fill="#292F33"/>
<path d="M149.502 85.0084C146.12 80.1149 141.795 76.1703 132.311 74.78C135.87 76.4847 139.279 82.3769 139.721 85.6319C140.168 88.8869 140.609 91.524 137.795 88.269C126.513 75.2268 114.232 80.3632 102.056 72.3966C93.5546 66.83 90.9616 60.6786 90.9616 60.6786C90.9616 60.6786 89.9244 68.8934 77.0313 77.2681C73.2963 79.6956 68.833 85.0967 66.3614 93.0798C64.585 98.8174 65.1367 103.932 65.1367 112.671C65.1367 138.187 85.2405 159.642 110.045 159.642C134.849 159.642 154.953 137.999 154.953 112.671C154.942 96.7872 153.353 90.5861 149.502 85.0084Z" fill="#F7DECE"/>
<path d="M110.002 145.678C94.8082 145.678 90.1409 141.789 89.363 141C87.9506 139.588 87.9506 137.298 89.363 135.886C90.7312 134.517 92.9269 134.479 94.3393 135.759C94.6262 135.963 98.317 138.446 110.002 138.446C122.139 138.446 125.648 135.77 125.681 135.742C127.094 134.335 129.306 134.402 130.718 135.825C132.131 137.237 132.053 139.593 130.641 141C129.863 141.789 125.196 145.678 110.002 145.678ZM114.989 125.707H105.009C103.63 125.707 102.515 124.537 102.515 123.097C102.515 121.657 103.63 120.488 105.009 120.488H114.989C116.369 120.488 117.483 121.657 117.483 123.097C117.489 124.537 116.369 125.707 114.989 125.707Z" fill="#C1694F"/>
<path d="M90.0372 107.44C87.2842 107.44 85.0498 105.101 85.0498 102.221V97.002C85.0498 94.1222 87.2842 91.783 90.0372 91.783C92.7901 91.783 95.0245 94.1222 95.0245 97.002V102.221C95.03 105.101 92.7956 107.44 90.0372 107.44ZM129.958 107.44C127.205 107.44 124.971 105.101 124.971 102.221V97.002C124.971 94.1222 127.205 91.783 129.958 91.783C132.711 91.783 134.945 94.1222 134.945 97.002V102.221C134.945 105.101 132.711 107.44 129.958 107.44Z" fill="#662113"/>
<path d="M57.5889 54.8303V60.3473C57.5889 66.4436 81.0526 71.3812 110 71.3812C138.948 71.3812 162.411 66.4436 162.411 60.3473V54.8303H57.5889Z" fill="#2A6797"/>
<path d="M159.657 54.8303V43.7964C159.657 43.7964 138.969 31.3832 109.999 31.3832C81.0461 31.3832 60.3574 43.7964 60.3574 43.7964V54.8303H159.657Z" fill="#4289C1"/>
<path d="M162.411 54.8303H57.5886C56.0714 54.8303 54.8301 56.0716 54.8301 57.5888C54.8301 59.106 56.0714 60.3473 57.5886 60.3473H162.411C163.928 60.3473 165.17 59.106 165.17 57.5888C165.17 56.0716 163.928 54.8303 162.411 54.8303Z" fill="#FDCB58"/>
<path d="M120.741 188.766C125.629 192.197 130.737 195.635 132.585 196.374C132.685 196.412 132.674 195.767 132.652 195.745C121.849 183.1 110.12 176.248 110.12 176.248L110.192 176.198L110.115 176.204H109.949L110.01 176.248C110.01 176.248 98.4795 183.006 87.749 195.447C87.8207 196.015 87.9532 196.319 88.1683 196.203C89.8069 195.32 94.6508 191.977 99.3678 188.656C99.5829 189.273 99.7981 189.831 99.9857 190.173C100.846 191.723 102.899 195.171 102.899 195.171C102.899 195.171 98.7444 198.272 97.1886 209.311H122.936C121.386 200.512 117.248 195.171 117.248 195.171C117.248 195.171 119.317 191.723 120.178 190.173C120.349 189.847 120.542 189.34 120.741 188.766Z" fill="#193D59"/>
<path d="M110.006 176.248C110.006 176.248 109.951 176.214 109.945 176.203C109.261 175.74 87.1048 160.662 84.0263 157.584C82.5312 156.089 78.6749 162.576 78.7411 164.248C78.9673 170.229 86.3876 197.013 87.4744 195.745L87.7448 195.447C98.4753 183 110.006 176.248 110.006 176.248ZM110.116 176.248C110.116 176.248 121.845 183.1 132.647 195.745C132.67 195.772 132.708 195.717 132.736 195.717C134.043 195.877 141.16 170.107 141.381 164.248C141.447 162.576 137.585 156.089 136.096 157.584C133.023 160.657 110.938 175.69 110.188 176.198L110.116 176.248Z" fill="#4289C1"/>
<path d="M110.09 179.999C106.99 180.17 102.079 185.191 102.592 187.326C104.948 197.174 106.89 194.564 110.267 194.564C113.257 194.564 115.397 196.975 117.941 186.89C118.603 184.253 112.236 179.872 110.09 179.999ZM110.233 197.35C102.085 197.35 99.0947 209.305 99.0947 209.305H121.29C121.295 209.305 118.382 197.35 110.233 197.35Z" fill="#1E4B6E"/>
<path d="M122.413 18.9753H122.402C121.116 18.9808 120.013 19.6042 119.257 20.5311C117.707 20.9117 115.577 20.9945 112.874 20.1394C112.124 19.4277 111.119 18.9753 110 18.9753C108.891 18.9753 107.881 19.4277 107.136 20.1449C104.427 21 102.298 20.9173 100.753 20.5366C99.9917 19.6097 98.8883 18.9808 97.6029 18.9808H97.5918C95.3023 18.9808 93.4541 20.829 93.4541 23.1185C93.4541 25.4026 95.3023 27.2563 97.5918 27.2563H97.6029C97.6029 43.8072 105.867 47.9449 110 47.9449C114.143 47.9449 122.402 43.8072 122.402 27.2563H122.413C124.708 27.2563 126.556 25.4026 126.556 23.1185C126.556 20.8235 124.708 18.9753 122.413 18.9753Z" fill="#FDCB58"/>
<path d="M74.1918 172.833L42.5354 182.509C41.0844 182.951 39.5342 182.134 39.0873 180.678L37.4708 175.398C37.0295 173.953 37.8515 172.402 39.3025 171.955L70.9589 162.279C72.4098 161.837 73.9601 162.659 74.4015 164.105L76.0124 169.385C76.4703 170.836 75.6428 172.38 74.1918 172.833Z" fill="#4289C1"/>
<path d="M68.8965 171.746C70.6516 171.746 72.0743 170.323 72.0743 168.568C72.0743 166.813 70.6516 165.391 68.8965 165.391C67.1415 165.391 65.7188 166.813 65.7188 168.568C65.7188 170.323 67.1415 171.746 68.8965 171.746Z" fill="white"/>
<path d="M145.868 172.833L177.524 182.509C178.981 182.951 180.525 182.134 180.972 180.678L182.589 175.398C183.03 173.953 182.208 172.402 180.757 171.955L149.095 162.279C147.644 161.837 146.094 162.659 145.653 164.105L144.042 169.385C143.595 170.836 144.417 172.38 145.868 172.833Z" fill="#4289C1"/>
<path d="M150.1 171.597C151.855 171.597 153.277 170.174 153.277 168.419C153.277 166.664 151.855 165.241 150.1 165.241C148.345 165.241 146.922 166.664 146.922 168.419C146.922 170.174 148.345 171.597 150.1 171.597Z" fill="white"/>
</g>
<defs>
<clipPath id="clip0_1387_34421">
<rect width="198.611" height="198.611" fill="white" transform="translate(10.6943 10.6945)"/>
</clipPath>
</defs>
</svg>
