<svg width="220" height="220" viewBox="0 0 220 220" fill="none" xmlns="http://www.w3.org/2000/svg">
<g clip-path="url(#clip0_1387_34582)">
<path d="M203.789 209.306V170.687C203.789 152.398 183.459 140.343 165.17 140.343H98.9665C80.6887 140.343 60.3477 152.398 60.3477 170.687V209.306H203.789Z" fill="#9266CC"/>
<path d="M131.76 19.3511C154.413 19.3511 192.16 30.6774 192.16 79.7509C192.16 128.824 192.16 140.151 180.834 140.151C169.502 140.151 154.407 128.824 131.754 128.824C109.107 128.824 94.3273 140.151 82.681 140.151C70.0637 140.151 71.3546 94.8509 71.3546 79.7509C71.3657 30.6774 109.113 19.3511 131.76 19.3511Z" fill="#292F33"/>
<path d="M111.812 140.453C111.812 148.619 123.794 151.377 132.07 151.377C140.345 151.377 152.262 148.619 152.262 140.453V122.771H111.812V140.453Z" fill="#F7DECE"/>
<path d="M111.772 130.296C117.416 136.669 124.412 138.395 132.014 138.395C139.622 138.395 146.618 136.674 152.262 130.296V114.099H111.772V130.296Z" fill="#EEC2AD"/>
<path d="M86.4668 78.0956C86.4668 45.9096 106.747 19.8198 131.761 19.8198C156.775 19.8198 177.061 45.9096 177.061 78.0956C177.061 110.276 156.775 134.843 131.761 134.843C106.747 134.843 86.4668 110.282 86.4668 78.0956Z" fill="#F7DECE"/>
<path d="M131.76 121.272C122.905 121.272 118.266 116.891 117.769 116.389C116.291 114.916 116.291 112.527 117.769 111.054C119.237 109.592 121.587 109.581 123.065 111.016C123.258 111.192 126.116 113.725 131.76 113.725C137.492 113.725 140.35 111.115 140.46 111.01C141.967 109.598 144.339 109.642 145.773 111.121C147.208 112.605 147.208 114.933 145.751 116.389C145.26 116.891 140.626 121.272 131.76 121.272Z" fill="#DF1F32"/>
<path d="M75.382 96.208C75.2662 90.691 75.1393 94.9722 75.1393 93.6426C75.1393 74.7635 86.4656 96.368 86.4656 82.9231C86.4656 69.4672 94.0128 68.1211 101.56 60.5738C105.339 56.7947 112.886 49.3964 112.886 49.3964C112.886 49.3964 131.76 60.8 146.86 60.8C161.954 60.8 177.06 68.3859 177.06 83.4858C177.06 98.5858 188.386 74.7469 188.386 93.6205C188.386 94.9667 188.265 90.691 188.166 96.208H192.127C192.165 85.174 192.165 85.5933 192.165 78.5426C192.165 29.4691 154.413 11.1969 131.766 11.1969C109.118 11.1969 71.3712 29.1657 71.3712 78.2392C71.3712 82.6141 71.2608 85.174 71.4153 96.208H75.382Z" fill="#292F33"/>
<path d="M113.353 90.0624C110.788 90.0624 108.686 87.9604 108.686 85.395V80.7332C108.686 78.1678 110.788 76.0658 113.353 76.0658C115.918 76.0658 118.026 78.1678 118.026 80.7332V85.395C118.026 87.9604 115.918 90.0624 113.353 90.0624ZM150.675 90.0624C148.11 90.0624 146.008 87.9604 146.008 85.395V80.7332C146.008 78.1678 148.11 76.0658 150.675 76.0658C153.241 76.0658 155.343 78.1678 155.343 80.7332V85.395C155.343 87.9604 153.241 90.0624 150.675 90.0624Z" fill="#662113"/>
<path d="M136.684 104.483H127.355C126.07 104.483 125.021 103.435 125.021 102.149V101.305C125.021 100.02 126.064 98.9661 127.355 98.9661H136.684C137.964 98.9661 139.018 100.014 139.018 101.305V102.149C139.018 103.435 137.964 104.483 136.684 104.483Z" fill="#C1694F"/>
<path d="M95.9001 84.8205C95.9001 92.8091 91.8506 99.286 86.8578 99.286C81.8649 99.286 77.8154 92.8091 77.8154 84.8205C77.8154 76.8319 81.8649 70.3495 86.8578 70.3495C91.8506 70.344 95.9001 76.8264 95.9001 84.8205ZM186.318 84.8205C186.318 92.8091 182.274 99.286 177.275 99.286C172.283 99.286 168.233 92.8091 168.233 84.8205C168.233 76.8319 172.277 70.3495 177.275 70.3495C182.274 70.344 186.318 76.8264 186.318 84.8205Z" fill="#F7DECE"/>
<path d="M192.755 203.789C192.755 206.839 190.289 209.306 187.238 209.306H132.069C129.018 209.306 126.552 206.839 126.552 203.789C126.552 200.738 129.018 198.272 132.069 198.272H187.238C190.289 198.272 192.755 200.738 192.755 203.789Z" fill="#E1E8ED"/>
<path d="M122.359 132.068H31.4337C23.0258 132.068 12.2457 136.321 17.7626 151.548L34.7108 198.305C34.7163 198.305 36.901 209.306 49.3142 209.306H159.654L137.586 147.295C135.169 140.001 130.772 132.068 122.359 132.068Z" fill="#E1E8ED"/>
<path d="M116.841 132.068H25.9161C17.5082 132.068 6.72808 136.321 12.2451 151.548L29.1932 198.305C29.1987 198.305 31.3834 209.306 43.7966 209.306H154.136L132.068 147.295C129.652 140.001 125.255 132.068 116.841 132.068Z" fill="#99AAB5"/>
<path d="M88.0367 172.248C90.9276 180.921 88.5884 189.516 82.8011 191.442C77.0248 193.373 69.9907 187.905 67.0998 179.233C64.2089 170.56 66.5536 161.964 72.3354 160.039C78.1172 158.114 85.1513 163.575 88.0367 172.248ZM115.517 147.24H27.2452C24.9611 147.24 23.1074 145.386 23.1074 143.102C23.1074 140.818 24.9611 138.964 27.2452 138.964H115.517C117.801 138.964 119.654 140.818 119.654 143.102C119.654 145.386 117.801 147.24 115.517 147.24Z" fill="#E1E8ED"/>
</g>
<defs>
<clipPath id="clip0_1387_34582">
<rect width="198.611" height="198.611" fill="white" transform="translate(10.6943 10.6945)"/>
</clipPath>
</defs>
</svg>
