<svg width="220" height="220" viewBox="0 0 220 220" fill="none" xmlns="http://www.w3.org/2000/svg">
<g clip-path="url(#clip0_1387_34374)">
<path d="M176.204 154.136C176.204 166.323 166.323 176.204 154.136 176.204H32.7622C20.5752 176.204 10.6943 166.323 10.6943 154.136V32.7624C10.6943 20.5754 20.5752 10.6945 32.7622 10.6945H154.136C166.323 10.6945 176.204 20.5754 176.204 32.7624V154.136Z" fill="#D99E82"/>
<path d="M165.17 154.136C165.17 160.226 160.227 165.17 154.136 165.17H32.7625C26.6717 165.17 21.7285 160.226 21.7285 154.136V32.7623C21.7285 26.6661 26.6717 21.7284 32.7625 21.7284H154.136C160.227 21.7284 165.17 26.6661 165.17 32.7623V154.136Z" fill="#5C913B"/>
<path d="M52.1557 59.7847C51.7144 60.3144 51.1406 61.1088 51.1406 62.0357C51.1406 64.0659 52.6412 64.9486 54.5832 64.9486H69.3135C70.9907 64.9486 72.4913 64.0659 72.4913 62.0357C72.4913 60.0054 70.9962 59.1227 69.0487 59.1227H60.9774C64.7234 54.4057 71.5645 48.3205 71.5645 42.1856C71.5645 36.5859 67.195 33.0109 61.7718 33.0109C56.3486 33.0109 51.4054 37.4631 51.4054 43.0242C51.4054 44.7399 52.5088 46.2406 54.6273 46.2406C58.8644 46.2406 56.4369 39.0961 61.507 39.0961C63.3166 39.0961 64.6848 40.685 64.6848 42.4945C64.6848 44.0834 63.9345 45.4516 63.14 46.5992C59.7857 51.4486 55.819 55.4208 52.1557 59.7847ZM44.9451 89.7584H38.5509V83.3588C38.5509 81.7699 37.5358 80.7161 35.9027 80.7161C34.2752 80.7161 33.2601 81.7754 33.2601 83.3588V89.7584H26.8659C25.2329 89.7584 24.2178 90.8177 24.2178 92.4011C24.2178 93.99 25.2329 95.0492 26.8659 95.0492H33.2601V101.443C33.2601 103.032 34.2752 104.086 35.9027 104.086C37.5358 104.086 38.5509 103.032 38.5509 101.443V95.0492H44.9451C46.5781 95.0492 47.5932 93.99 47.5932 92.4011C47.5932 90.8177 46.5781 89.7584 44.9451 89.7584ZM69.0487 97.7415H60.9719C64.7234 93.0245 71.5589 86.9393 71.5589 80.8044C71.5589 75.2047 67.1895 71.6297 61.7663 71.6297C56.3431 71.6297 51.3999 76.0874 51.3999 81.643C51.3999 83.3588 52.5033 84.8594 54.6163 84.8594C58.8533 84.8594 56.4259 77.7149 61.5015 77.7149C63.3111 77.7149 64.6793 79.3038 64.6793 81.1133C64.6793 82.7022 63.929 84.0704 63.1345 85.218C59.7802 90.0674 55.8135 94.0396 52.1502 98.4091C51.7089 98.9387 51.1351 99.7331 51.1351 100.66C51.1351 102.69 52.6357 103.573 54.5777 103.573H69.308C70.9852 103.573 72.4858 102.69 72.4858 100.66C72.4858 98.6242 70.9907 97.7415 69.0487 97.7415ZM73.683 115.352H27.7045C26.1818 115.352 24.946 114.116 24.946 112.593C24.946 111.071 26.1818 109.835 27.7045 109.835H73.6775C75.2001 109.835 76.436 111.071 76.436 112.593C76.4415 114.116 75.2057 115.352 73.683 115.352Z" fill="white"/>
<path d="M203.789 209.306V189.996C203.789 171.713 183.459 159.653 165.17 159.653H98.9665C80.6887 159.653 60.3477 171.713 60.3477 189.996V209.306H203.789Z" fill="#9266CC"/>
<path d="M131.76 38.6599C154.413 38.6599 192.16 49.9862 192.16 99.0597C192.16 148.133 192.16 159.46 180.834 159.46C169.502 159.46 154.407 148.133 131.754 148.133C109.107 148.133 94.3273 159.46 82.681 159.46C70.0637 159.46 71.3546 114.16 71.3546 99.0597C71.3657 49.9862 109.113 38.6599 131.76 38.6599ZM104.484 159.653H158.964C158.964 159.653 152.035 178.962 131.721 178.962C111.408 178.962 104.484 159.653 104.484 159.653Z" fill="#292F33"/>
<path d="M111.811 159.763C111.811 167.928 123.793 173.445 132.069 173.445C140.344 173.445 152.261 167.928 152.261 159.763V142.081H111.811V159.763Z" fill="#F7DECE"/>
<path d="M111.772 149.607C117.416 155.979 124.412 157.706 132.014 157.706C139.622 157.706 146.618 155.984 152.262 149.607V133.409H111.772V149.607Z" fill="#EEC2AD"/>
<path d="M86.4668 97.4051C86.4668 65.219 106.747 39.1293 131.761 39.1293C156.775 39.1293 177.061 65.219 177.061 97.4051C177.061 129.586 156.775 154.153 131.761 154.153C106.747 154.153 86.4668 129.591 86.4668 97.4051Z" fill="#F7DECE"/>
<path d="M131.759 140.581C122.904 140.581 118.265 136.2 117.768 135.698C116.29 134.225 116.29 131.836 117.768 130.363C119.236 128.901 121.586 128.89 123.064 130.324C123.257 130.501 126.115 133.033 131.759 133.033C137.491 133.033 140.349 130.424 140.459 130.319C141.966 128.907 144.338 128.951 145.772 130.429C147.207 131.913 147.207 134.242 145.75 135.698C145.259 136.2 140.625 140.581 131.759 140.581Z" fill="#DF1F32"/>
<path d="M75.382 115.517C75.2662 110 75.1393 114.281 75.1393 112.951C75.1393 94.0722 86.4656 115.677 86.4656 102.232C86.4656 88.7759 94.0129 87.4298 101.56 79.8825C105.339 76.1034 112.886 68.7051 112.886 68.7051C112.886 68.7051 131.76 80.1087 146.86 80.1087C161.954 80.1087 177.06 87.6946 177.06 102.795C177.06 117.894 188.386 94.0556 188.386 112.929C188.386 114.275 188.265 110 188.166 115.517H192.127C192.165 104.483 192.165 104.902 192.165 97.8513C192.165 48.7778 154.413 30.5056 131.766 30.5056C109.118 30.5056 71.3712 48.4744 71.3712 97.5479C71.3712 101.923 71.2608 104.483 71.4153 115.517H75.382Z" fill="#292F33"/>
<path d="M113.353 109.371C110.788 109.371 108.686 107.269 108.686 104.704V100.042C108.686 97.4765 110.788 95.3745 113.353 95.3745C115.918 95.3745 118.026 97.4765 118.026 100.042V104.704C118.026 107.269 115.918 109.371 113.353 109.371ZM150.675 109.371C148.11 109.371 146.008 107.269 146.008 104.704V100.042C146.008 97.4765 148.11 95.3745 150.675 95.3745C153.241 95.3745 155.343 97.4765 155.343 100.042V104.704C155.343 107.269 153.241 109.371 150.675 109.371Z" fill="#662113"/>
<path d="M136.684 123.792H127.355C126.07 123.792 125.021 122.744 125.021 121.459V120.615C125.021 119.329 126.064 118.276 127.355 118.276H136.684C137.964 118.276 139.018 119.324 139.018 120.615V121.459C139.018 122.744 137.964 123.792 136.684 123.792Z" fill="#C1694F"/>
<path d="M95.8991 98.6129C95.8991 106.602 91.8496 113.078 86.8568 113.078C81.8639 113.078 77.8145 106.602 77.8145 98.6129C77.8145 90.6244 81.8639 84.1419 86.8568 84.1419C91.8496 84.1364 95.8991 90.6188 95.8991 98.6129ZM186.317 98.6129C186.317 106.602 182.273 113.078 177.274 113.078C172.282 113.078 168.232 106.602 168.232 98.6129C168.232 90.6244 172.276 84.1419 177.274 84.1419C182.273 84.1364 186.317 90.6188 186.317 98.6129Z" fill="#F7DECE"/>
<path d="M132.07 177.429C132.07 177.429 150.723 191.188 154.656 192.749C155.517 193.091 152.632 172.579 152.632 172.579H111.514C111.514 172.579 108.628 193.439 110.223 192.578C113.753 190.691 132.07 177.429 132.07 177.429Z" fill="#744EAA"/>
<path d="M106.09 153.678C109.201 156.801 132.069 172.342 132.069 172.342C132.069 172.342 120.346 179.194 109.527 191.844C108.451 193.113 101.014 166.328 100.788 160.348C100.722 158.676 104.595 152.183 106.09 153.678ZM158.164 153.678C155.042 156.801 132.185 172.342 132.185 172.342C132.185 172.342 143.909 179.194 154.716 191.844C155.792 193.113 163.218 166.328 163.444 160.348C163.51 158.676 159.654 152.183 158.164 153.678Z" fill="#CBB7EA"/>
<path d="M126.552 176.204H137.586V209.306H126.552V176.204Z" fill="#744EAA"/>
<path d="M132.069 206.547C135.116 206.547 137.586 204.077 137.586 201.03C137.586 197.983 135.116 195.513 132.069 195.513C129.022 195.513 126.552 197.983 126.552 201.03C126.552 204.077 129.022 206.547 132.069 206.547Z" fill="#CBB7EA"/>
<path d="M132.069 189.996C135.116 189.996 137.586 187.526 137.586 184.479C137.586 181.432 135.116 178.962 132.069 178.962C129.022 178.962 126.552 181.432 126.552 184.479C126.552 187.526 129.022 189.996 132.069 189.996Z" fill="#CBB7EA"/>
</g>
<defs>
<clipPath id="clip0_1387_34374">
<rect width="198.611" height="198.611" fill="white" transform="translate(10.6943 10.6945)"/>
</clipPath>
</defs>
</svg>
